<mxfile host="app.diagrams.net" agent="Mozilla/5.0 (Windows NT 10.0; Win64; x64) AppleWebKit/537.36 (KHTML, like Gecko) Chrome/135.0.0.0 Safari/537.36" version="26.2.14">
  <diagram name="Page-1" id="IFhfaIm_POs_FLGeQBk5">
    <mxGraphModel dx="1158" dy="624" grid="1" gridSize="10" guides="1" tooltips="1" connect="1" arrows="1" fold="1" page="1" pageScale="1" pageWidth="850" pageHeight="1100" math="0" shadow="0">
      <root>
        <mxCell id="0" />
        <mxCell id="1" parent="0" />
        <mxCell id="SVQWeV-mscCjuDsBFyhi-41" value="" style="image;aspect=fixed;perimeter=ellipsePerimeter;html=1;align=center;shadow=0;dashed=0;fontColor=#4277BB;labelBackgroundColor=default;fontSize=12;spacingTop=3;image=img/lib/ibm/applications/iot_application.svg;direction=west;" vertex="1" parent="1">
          <mxGeometry x="440" y="119" width="40" height="40" as="geometry" />
        </mxCell>
        <mxCell id="SVQWeV-mscCjuDsBFyhi-42" value="" style="image;aspect=fixed;perimeter=ellipsePerimeter;html=1;align=center;shadow=0;dashed=0;fontColor=#4277BB;labelBackgroundColor=default;fontSize=12;spacingTop=3;image=img/lib/ibm/applications/iot_application.svg;" vertex="1" parent="1">
          <mxGeometry x="360" y="119" width="40" height="40" as="geometry" />
        </mxCell>
        <mxCell id="SVQWeV-mscCjuDsBFyhi-43" value="" style="image;aspect=fixed;perimeter=ellipsePerimeter;html=1;align=center;shadow=0;dashed=0;fontColor=#4277BB;labelBackgroundColor=default;fontSize=12;spacingTop=3;image=img/lib/ibm/applications/iot_application.svg;" vertex="1" parent="1">
          <mxGeometry x="279.76" y="119" width="40" height="40" as="geometry" />
        </mxCell>
        <mxCell id="SVQWeV-mscCjuDsBFyhi-45" value="" style="image;aspect=fixed;perimeter=ellipsePerimeter;html=1;align=center;shadow=0;dashed=0;fontColor=#4277BB;labelBackgroundColor=default;fontSize=12;spacingTop=3;image=img/lib/ibm/applications/iot_application.svg;" vertex="1" parent="1">
          <mxGeometry x="520" y="119" width="40" height="40" as="geometry" />
        </mxCell>
        <mxCell id="SVQWeV-mscCjuDsBFyhi-47" value="" style="image;aspect=fixed;perimeter=ellipsePerimeter;html=1;align=center;shadow=0;dashed=0;fontColor=#4277BB;labelBackgroundColor=default;fontSize=12;spacingTop=3;image=img/lib/ibm/users/device.svg;" vertex="1" parent="1">
          <mxGeometry x="490" y="319" width="80" height="80" as="geometry" />
        </mxCell>
        <mxCell id="SVQWeV-mscCjuDsBFyhi-51" value="" style="shape=image;verticalLabelPosition=bottom;labelBackgroundColor=default;verticalAlign=top;aspect=fixed;imageAspect=0;image=data:image/jpeg,/9j/4AAQSkZJRgABAQEAlgCWAAD/2wBDAAYEBQYFBAYGBQYHBwYIChAKCgkJChQODwwQFxQYGBcUFhYaHSUfGhsjHBYWICwgIyYnKSopGR8tMC0oMCUoKSj/2wBDAQcHBwoIChMKChMoGhYaKCgoKCgoKCgoKCgoKCgoKCgoKCgoKCgoKCgoKCgoKCgoKCgoKCgoKCgoKCgoKCgoKCj/wAARCAD4AUwDASIAAhEBAxEB/8QAHAAAAgIDAQEAAAAAAAAAAAAABQYEBwACAwEI/8QATRAAAgEDAwIDBAYHBQMLAwUAAQIDAAQRBRIhBjETQVEUImFxFSMygZGhBxZCUrHB0SQzYnKSQ3PhJSY0U2OCk7LS8PEXRaJGdJSjs//EABoBAAIDAQEAAAAAAAAAAAAAAAABAgMEBQb/xAAxEQACAgEDAwIDBwUBAQAAAAAAAQIRAxIhMQQTUUHwFCKxBTJhcYGRoSMzwdHh8RX/2gAMAwEAAhEDEQA/ABefdAxXnJOO2PKtlGVyDz3rACQR3zWc6VGmB5Vs5AUse2O58qAdR9T2ejRtGNs92RxGPL50i6jqmu6zC85juPZByfCQ7AP6U7S5IuaRZN1rmm2zYmvYs+YByajP1XopIzepyO+DSB0r01Lr09wFEkjQqG8NCNz59M1M6s6Nm0W3s7kRzJHcZDI+CUYeRI86reeCnoYk5uOqhx/WvRgDi8T8DWv63aQAD7UDngjB4qsrHSZby9gto2CvM4jDN2BJxXTU9Fm07UrmymdXkgcozKODirNUdWj1I9yVXRZ46o0koXW4ynrtNet1PpatjxmJPYbaUNM6akn6Ku9RDMBGzDHke1GpujHTWdMgMj7biB3yB2wB/WssuqhFtFyU2roKt1RpQVi0zHHBO3tWDqbSuAZ2z5DaeaXn6SkXSdcuNx/skjofjhQTXeXo+X2zRo/Fwbndzxge7ml8ZAemfgNHqXSDu+vYBTz7prD1NpPugzsQ3b3TzQL9U38PX2MvNo3b973Aa9PR8m7QAJCfayPLt7hNL4yIlGfgPL1NpXvDx2yp5901q3U+k7l+vYhuxCmgsfSEvtusoXIFttB7c5TNcY+k5TZaA5Zh7U6KOO2VJprrI0FT8DB+s2lBmAnYgckbTxWfrRpIQMJ32t29080Ht+kJJNU1WESkC3jRs/vZB/pUSDpWQ6Ro07OQLmSMAegJPNHxcQqfgZD1LpRJTxm45I2ntWv6zaQUDC4O08D3DQuPo2Ztev7UyH6q2SUHHfJbGfwoenSsrdP6bdBifHnjjx8S+KS6yDHU/AyjqTS923xm3AZ+wa1/WfSfC3G4JUnvsNC16Nn+n7q138x26yZ+bH+lDf1Xm/VyG7LcNciLb6HxMU/i4BU/Azr1HpPIErbj5bTXp6l0ho9xuCFBx9k4oQejpBr/ALMZCB7OZd3yahrdNyfq690rHb7S0eMf9pihdXF8BU/A0nqLSsBfGOe+NprVupNK2k+0EKO52GhL9ITr1DHaByWNu0nbyBH9agP0xMOnL29diFjnePGPMPihdZEKn4GY9R6WHx45yRwNp5rB1LpQUk3LAA4J2nAoTJ0bMvUFnaF8+LA8m4D0xkfnUBul5hoWq3W8/wBnmdCMd8YoXWRFU/Axt1Hpe8KZ2B7j3O4r09SaTtY+0EbTg+6aDz9ITR6zp1sXyZoWfI+Q4qGemJjputzhzi1kdT6YAzR8XCh6Z+BkPUele4PaTk/ZBQ1n6w6Thj7RyvBO08UEfpGcajpMRJInUtkDt7majjpiQW+tOz8WrlTj/ID/ADofVxQtM/AxHqPShtIuSC3AG081o3VGjplXu1BHqpzQb9UZvH0NDIMXY4OMAe5mlTqPTGstaubdmy0ZAz91WY88Zy0kJucVdFgfrVox5F6oB+BrxeqNFHAvU/A1XSaFcPosuphkEEUohK/tEmoHsjg1oUoy4IPLJeha0PUukyEKt8mfVuKKQzwTqGgljlU9tpzVKm0fzBr2F7q1cPBK8bg91OKlQlma5RdhyBgH414CQ2M4BqvtD62ngZYdVUSR9vExyPnT7BNHdQJNbuHiblWByKC2MlLg6H3gcY+VbxQJs+yfurRDyA3fFdFZwMCq5IkdQcKUznnviljrTqD6JtfZ7Vs3UoIz+6PX50wXlwlrbTTSnaiKWOaROldUS41/dqdvFNa3L4feM7FPzpSm4RtKyLe9C3Hp90WS6vIZ/DlYEO6EB+fInjmr+0TT7c6VZ3djZahfW1+oiFvEn1cS4wc47D4k0W0m18Jm0+9aDW1vpQsdnEuY4YP3ifLjz+FCOq+oNP6I06bRum5bk5LGVi+5sn9lfL765GXJLqqVFsILEt9zLPpnROkNW1C4uNSjjtLmPwo7ZGLTRjufe+HlSx1XqGlzaKmj6P7S0JkEsk15LudmHzqtNW1/U9SuZMs8OTgjndn4k0K9juJBl2dj6sSa2YujSlrnK2VTzv7qQ76dbiy1C2ul8N2hkWQLvAzg5xThP1RYzytLddM6NNM5JMkmCx+ZxVMDT5s179HzA+ea05cOPI9UuStZZLZF3T9SaXddN3OniytrCSSJykdsmFLZXHPbnn8Kkz9TaW2pWF7Gfds45UIKZySFxn17Gq8/VNh0zpN0X+tuZogAB2VjiiidFP8ArHcWsjYiitUkfjuTkfxxXJlDBbf5/wCjUpzfoMk+uaWNP160iYkX7SvESnJyoC8+XnUq46j0h7zS5wx22HiA/V9/qsDPr71V8OlZv1VgumIMk12kaccgeJtP5kUZt+jXj6ut7U7dkdssko253Hec0OGBfyGub9Boj17SPB6iVmYm/YNFhOP7sKflyK5HqDR/+Q1b/wC3kGQ7OceFj7/epDPSFx+rlxfF9oFy0W3b2+t20QuOiJR1Db2KPl2tnldsccEf1puODy/3/ANU/A2x9Q6Ss+qzMfdv9mz3O31WD8ua8TXNJTTenIjI3i6e6NMNvbCEffyRSHb9NunTGp3btkeI0CBh2Icc1Nboq5j6gsrVpMh4GmJx5AjP8aNGDyCnN+g5WnU2kpqeoXTkEXkcSfY4BCvu48uSKiQ61pY0rRrRm+ss5IHf3OcAnd8+McUkXHTLNousXgcLFFPKqKB3wePyohcdFTrq2lWqyASTxSsxI7Abcfzo0YF7/AFKfgd26m0aHX7+9Vy1vcRQxDKE9mbdx6gGhaazpn0Np2nliHtZoZm48hKWbB+VKsHSckOm6/c3GCtsZIxkftbQQfzqXc9HyY0W13ASziR9xHO3YCBSUcC8/wDgap+Bth6o0ga1cag2TG9ukOAnGRIc8f5TUE6zpZ0GPTy2JI7gT9uceNuxn/LS3J0izz6/KAogtCwwOMkRA/xrjJ0hKs2iRB8y3QJz6DZn+tGnAGqb9B4/WjRzrv0gGBj8EwFdnGfEz2+VQH1vS/oKTT45W8Vp2mBK+Rm3Dn/LmlK66TZY9ekRiI7MquO+TsB/jWrdIzhunvfBN92x+yNhNSUMC298C1T8D7L1RpJ1tdRDAhYJIXHh+ZdSP/xBodJrOknQtQ01Sd08sssbAc+84I/LNL0fR+y81fdIfCtVUvnzJQn+NQz0lMtvoDeICbxlwAOACuaioYPp/seua9B9ueqNHfXINQQfVwQzRMu3vkjb/A1Cn1rSvonVrKEndeSyyR5XyONoznjzpOTpOdpNbHiAmzQE+734P9K2TpGRtK0OZ5gJL2RAgI9akoYPf7i1z8D1P1NpD6vaXiDKWsMiY2dyVXGfvBFRH1rSjpus24bMl9LI8fu+qAD8+KWP1LuBqWpxiQEwW6SkhfXdx+VQ7XpKWbQdMvPEx48kaqO/c4pLHgpb+P8AYOc/A9y9SaSdQ06dQdlkrK4wRnMWOef3uK1TXNGax19C7D29t8WF9YwP40np0bMdb1S1MmDBAj529wc9/wAKhw9KXD6Dpl2HG24mRB974prHgfL98hrm/Qf5Ne0h59Bl3NmxUiYYz/syO3zqHfdUadJcPLFoekXKsFIlmjXceBnvS+nQ1wdeubMTDfHbLJnHqx/pQi96TuIek2vmZSVdlK/J8U4Q6dyT5/6JynXAxa3r0OqaQ+nRWGn2UTOJMwMAMj4YpZ9hi/6yP/WKVzpshPYfhWv0c+OQK62PFHEqiqMrySk7aGs6XuH1eH/ynNRZ9NYKTgcUAjjurZt8EsiEfutTDo/UAlkW21ZFVm4EwGB99WAmnyC7mxGDxipPTusTaHchHy9m599P3fiKZ7zT1ZcqAc0uX9jsJ900A41uiy4ZFkhSSIhkcbgfhUlM7eNv30o9DagXhfT5R70I3Jz5elNXfkdvlUJGhO0AevJjHo4hizmZwvHp3ov0P+j+Cezs5bzWEtNQv4zJaWvh7ty+W4+RJoT1lD4i2a/9ocn7qPNrclxY6QPZljvNPXatyjcuoxtBHwxVGfuNJQIpJvcY9Ckfo3o3WtSmYw3Ez+yoh8iudxPy7VR0F5LqfUUV7dySJCJAPd5Kpnn51aX6Zuqhr/TmnwW4KsWBnULtAc9x8eB3+NI+h6YERWYc4zUMGNyg3PlhkdySXBb02n2Q06e51eW3n6fu1WK2gtY900rkD3s+TCkPq3pK10bWntLWSR4jGki+Lw6gj7Jx5ijfTXUd909FMlq0b27jd4cy5VG/fHoRSHq+o6j1DfytA8rq7kmQ/akPmfl6VRjhLppNyexZOpLZBTRrLTrbUYZNTt/a7VT9ZCsmwsPnTV7R0Of/ANMXOPhdnn86Q26N1OKya7nMEMCclpX5+4dz91AjaztcLDbENvbarN7oJ+GacpxyvVbIJuG1F4anc6NJpuhCyWO3t/Fi8OJm3FAko3An7xWC4sB1DrEokgG2ELIC5wNsp3Efcarr6KvWt+l7Zol3xNI8gDA95wO/3V3bS9Ra/wCspzbv4UkUvhlRk4aXFYe1jutXuy9TlXA4XL2CdLaXGZocm6LjJ5G2dWP3Y5orJPYjqvVZBNArraSKeSApU5OPPOOaqe8s5YtE6bt33nfNPuyOeZVH86JpbXl11R1ZPFEzQJazqGz+0SoA/jTeGDTdgsjVDur6anQc8TXERZr1yvvc/wB9vx6H3eaIvcWC9dzSrNDmOydSNxwDhW49DiqgvLe5j6Y0W3WGR5pr6Y7O+73YxTFPayDrHXbr3QsdtcDGDwREAKjLFDm/ILIw3I9g3Q8qNJGxe/cqc85J3D7setM99cac/VdkUnt2ZbCaMqCe5CsPyFU9NFNb9GQRSJHve/dsnsR4XHP30fmtJ4uumlGwxwWjN7p+zi3Ix+dEsUeLDW0HHfT5Ojb+KOWE7rp9uD5smR/Ojz3Onv1lpriSFm9nKqN52tuT3flmqaKzW/6P5JDKrSy6j2HG3EXAP4/nTZp+ltP1npsrXAQ20FuBFsJL4gBznyAqU8MI7t+RRm3sM2q3OmzdMdQ+BLEyXN5mMhjnlFx8xwamGfTpOqdAaOaLK2wwC5wQyHGR9x5qqpLOa16FlVjtZ9RQ8+Y8Fz/E0bsrSRusdEIUMsFjGDx/2T/1pdqHN+SWtrYZBc2D9M9WtHcKWuLlvCyx3e8oCY/A0QE9g2vdNFZoCREoUEnJBjdRn/velVhaWk6dF6kwA3SXUAC+hAJx+dToop4urujoJCAyW1sXHxwWNNYIv190J5WuRwiuNMfS+qyskXhXFxuXLHgMMKR/3hiiq3mnBekoFkhaQFJN3w8Mpz6e9VR2KS/qz1DJkAGa3UAt/jY/ypn0TSZ7q46XuGmtkEVnCSjyYdjvckAffRLDBK2/dCjkb4GSO60wx9Y4mi2yvuAyeFChSQf83HNdFuNNZOjVEsZaLbnv6bOf+96VWtks8emdWzvu95oo0Hn70rZ/LFS4Iw1x0RG55bYf/wC/NSeCKfPugeV3RYMN3piy9Xs0sKxyKMYz5ZU48/tEVxFzpg0/opPGi3xSoWYd8DKt8PtEUjWMN1dRdUZjHvLsQqvLE3C1vqmk3mnt0lDcxBZFyzLuyVzPnnHbsKj2oXV+6DuN7liJe6YmvdVSNLE0XgKmOce6GVsefc0PS406HpnpOGSZPEjuIy3rhCQ3wxkikyO1llvetSSoz4ioMY3ZmP8AwqNNbONO6TjIXLPKSMZHMwJprDBbX7oetssmO806LqnqWZ5YTH7IgYDOPdyG/wDMKh2eoaOnROjWDXMftlvPFK6+agSZP5UlXELtqfV88ZQ/2WdOO+fESkLxplJyoPz7Vbi6eM/X3RXLPo5PoodQaEOpr6+N1F7PLZLGp/xBicY++h2m6nocHQlvHqNvDflnYeA7Fdzby3f5EVRCNMx3vwnPamO+guV6J0po0Q/2i4chhzjjFD6WEat+AjnssL6Y6SAOektPz6mbt+dKd/b2N3qFxLaRQ20UjlkgRshAfKkRZLhmwQvvdvdrZjNDK/ur7rbSUP8AAit2OEcbtfUollT2GybRkOduc+mKB6jpRRTuWjXT+rGeRbW5bcSPq5CMHPoaM3NsJUIZe/wrUpWg0poE9H3jz2z2FwQzwcox7lP+FTtQtAyNjtQqzgaz1+2YA4Ztp+IIpqnTOcDPpTHHimKWlKbHqC2cfZZtp++n8MF90sMj40p3VvtvIH7YcH86bGAzyozUZDhsgXr4EhswqgDcx/KmPprpPUNatGnshB4avsy8wXn76AavHua0by3N/CpWnAi4tyjMo8RcgHA7iq8rlpteg0rZH630m406dLG9CieOVSyhs91zXG1iCIPgKaP0oIG6nuNucCRMcf4KBRKAOO1GKTlFNjcfmZH1CF57CWJTh3ATj0JonZW1roFsryqgOAqAjPPrj4Uy61ZwJYdMtbW0KPLb+JIQPtsCOTQPVLSS90zxm8QTO5AVV/ZH8ea5HV5O5OKvYuitMRN1x2vpXd7qe4bcQhKbFUeYANEuk9D+kJVtktppQ4ZBMMkI3BBA8vjRmy6aklhthtaZ5RuKk4I/pTIf0hWf6MLlLG8sEmZ7cOJCcH7RGMAfA0pSTXbhyymKe82SI+lb+TU9JiaHabWAAuYyMESZP/vyrm3Td7FpWrStF4TTFhvBILHxM/cMcU5Q9etO5lEFiPFXKubr7IceYx3GK43HWKXcHhzWlgYXOWT2rk7h8vLFc+UVT3NcZPwAl0lra601BBbzhInBEinCguDkfEULs+lLqM9R3ccIVpldY3BxzkNnimxerVWTC2mmjcAFJuOEDDB8vhmvIusBDbJFb22niMEF1a6OTu4Pl99QSaW7JNp8IUX6K1T2XS97q8sTySuzPhgzMDlfhW11oN5c33UM6QMXMckaArhTux+JxTiOvlinEPsWnOsgGGE5ITyG4447ZrX9cYwAUs9NwSC5N19oEbeOPvqxxdJ2RTvair4eidVOg6XamJpbgXMrncQV2kDGT8himxumWfV725aOX6yB4mVVyPsgcfHimJOr41kjc2OlYTGwC5+yclTnj45rSLr0SK0fsdgDCR7/ALQyiTBxx7v30Scsjtv+AVR9Cvr79HU970xY2OnQrF4lw0rmTgElAAfypjseir6HXr28x9UqBRtb9nwto/MUxN1kCyKLTTTGAODdnIIOAcY885+6uZ63a1iZvZdLcRjki7Yl9pwBjHc5NGpyWly/gfG6Qq670HdX2gw2doH4ug/A+0CuBn4jNcG6U1O16sWf3EtltVRge4xGVH5g09nr8TqJRZWHhkE7GuShBU8cY8/5VBv+rbiWOePw9JYEEbjdNyFPAHu+eTQ5aVpTIr5nbRWE2h3bdNNa6ZbySSi85kI5bAwD+OKNW/ROoP1Hp95eqY2tLaLcT+0QmCfxpq07qOTTpH2Q6XJEQQY/ajnK4OQcebcUTvetriaN1WHSQ43BpDdkjAwePd8ycD76lGbrd0xyir4K5t/0eM/S1zCgn3XM8ZLYAGQzAfdzTJp/Q15FqullRhbK1RDlefdznn76PP1lOIzHJbaS0SlsILs5JADE9vXitx1hKgfK6Z4h3AsLs7VAG4gcc4PFRcnLZsaVcIUn/Rxs0jU1vb3wknnXMp4xg/8AGtr79HUo1Xp+WzmWW0sl2h0wd218n+NNF/1TFf27w3VvpwiOdwjvTknbuOOPXgVpF1QYI2hiXTgDna3thHhgrk+XfOBQ5tOrCrV0IMf6O9Rt9K1xobuMyXLDavIZSr7ia633Q2qTXuhuoVhBGBKTkknxNxP507R9TqJHElvpYic4kHth3MSuTzjyOBU2PrKV23G30lWbhSLs4jBXJydvlj8TT7kuW/4E1HhIr+PoO8z1C0qSf2kuSwP+PcMD5Vxj6KvhBoa+ySL4DFhkZ/b3fwqxR1mce9b6aoYjxc3Zydyntx5Y/GsHWEku0m207JI2g3R+r3Kc548gPzpd1v1/gNl6CLB+j+8LdQzPI0a3IZd5xgchj91DLf8AQ3JPbRmFlnDDd4qNjv5YOOKss9Xltu620wJIVEha6OCSvPl5YqDbfpVEEaRR6LbLHwBiZue/+H4VdinL0ZCelcoru9/RFqVvHPst92yPKMDyx3DP5VD17p2/bRdIjktnVYmlLBjjK+7jJ+NWxa/pPe+nSCLS7OHxOC8tyyqMg8n3fQUF1j9Io0vKXWl2N4j2/iBVuM7EGRzkcE+nyqyU8mtK7IpR0ttUUe+jX1xLKHgKgEDcowFz2rSfp2S3cePDKIlbyHBHnirXs5otUt0fbHHbsAwXIbaeCAPlUXUL+yS4eIxhpXXAO3g5x2qxddK9LRF9KqtMraz01FumMAbYB4qEjkYYYBp3TTLm4sLq+jj3W1uwWV8j3Se3FTLzSDDdySnYEa1bCA/KiulR/wDMnqDOP7yIYArVg6luLa8gsWnYQ3gUX1s5H2ZAeaMeDJJvMauw7ZVSRXDw83UWewcU92et32jdDWsmnSiORrt1LFd2R99bcuRxS0q7IKNlcXkRWRdwwQwz8KLNIwZgvIz6VG1e5n1C6kurt988rhncDGakuBuPIqz03EMnSKoNZjEukNqieG31YjD7Txzg9qsIRwKcx9ESbh2b2dO/40g9FpO+uKtrfR2T+E+XePfntxjIqxhbahgZ6ngJ7Eeyj/1Vx+qk1kasuitgLr9hDr99Zwah0+1jcSbm9olcx7iBx9kHNdI/0fwqvuxWWB+9LKf4VIu7v2K4tTqXUjXlsxZfCtomVyceq5P51KtNX0OGNvc1CQ5/2njMR8OaoWaUFSY0r9D290ZI7PTttrZXJtVEZRhISAT+zz/GoR07UJLNIzpGnqUOQpti4Az5A1IvOoNL+qSKwkjmLqFeTeF7+ee1eTX1rNCu6CKZD2aOV6w5sjtWWwi2uDtBZXsUm+S0tA2ANyWgG0fOkPrO2tP1ivLq4ijnuVtNrCaBdqjcM4yasERQR26TT2a+LgcQysw/Ajmq86+BV71nsxbRyQEpJ4QBbkdyDn+FRhNudJj01F7FfavNYXljcPHcZjc4MsQ3bT3x8OKF2dlbWdxHcPc3Dhc+66YDcVI0C1lj0WRZY2Q+OThiB+yKBRXlxfdRot3M8qqJFy/OACcYroYsdKUYvZGNtbN+oY1KK0vpAwnmiCKVIVRyfxoj4ttbxxwtudkAXdt5OB581wuoIttx4iqASAQo5zg81FFhaS3c5aAOyzk+fpiqqjKO7dIsppki9itb5QRPNCEU5CqPe/OuNvZQMsSJczEAhcmNe+O5/hXaSwtvFf6hckbsAYwOR2rpbQpFeFoUEbCKTkL27UKfy0n/AADg+TyFYLWSQO0kmMDJQYGOf51pcxwSojeLOu5uF8MHH/scV7caVbTyNJKshZiCTvI/nUc6RY7VUROSftZc8cE+tKMo82/2DTInQrEbIKC+MbQSozz+VQ1sYgMeLNwQP7teDmmnojSNNkivUnT7Dx7d7HAJDZ8/gKZ5NF0oe59XgFW+8ffWPL10cE3Hf9jVj6WU46hFigjcYQu5UfaZQM8/0r1rZQjkp584FMOtdL2Uz25stSaBxICUX7O3ueK8Touzuru4e+1CUoyqERHKAHnPGaj8Tha1ykP4XJdITL+zUzlt0q5wAFRT8vjUaeGGS3WLfcKVcMG2DPftRHVtMt9F6guYLV5GRCmC7Fj2B8z61EuJPFG7cPI9sHNb1ktJxexkcdOzOzXMBIPhvg5x7uP50IvTb3E7yS2V0M8DZJx+AqSrs4XDcDvkduB/Wu8Uh4AIIyfL504/I7FVgZ1slYD2S8HoS59flR+5uLeC1juHCKkvbJxnI+VRLtBNCEk2kMSrY4OMipeqwRJpenIOURlC/D3SKcnGdaiOnTwCb+TT5xHPMHUt7oIlKjHHwre1vrG2hdI/sbifffPPY84+FTZ4kNsEYh2Bzj4cf+/uqLfopWREKkBSO2M8VNOMlpdjcWtyU3g31jH4kbKssmwYYg5wfPHwqOI13EC0uDgdvEP9K906W7azht45bIXHiKySXDhRt8wM+dHmbY5E0mnK3oLtc58hUJJ49o/UcU2LrRbBg2048v70/L0rp7Faj7VreEj92cijbwubkxrBaytjOVm3fmB3rcW9xjIsoCBxzJ/wqt53H8P1H279BauZrPTI/aWsrwBfN5iRny8qZdHgt2F289urq9tlA0Qf09eB86harIltal7yztRFkA7mOAf9NafTLxXV9DDbRMEtQcsT2YZzViUsqTj+92RtRlTLX027W3tLddQ0qAsyK4c7WPbAwE7ffUaTULOPV5nMdukQchWSz95RjsWbPOaHdM6+YdMsILiG0aNowAz26k545BozBdwak+YYdKudxKCCVPCYFeCQex86xO4N7GpVI3udXkjhZ7e9R2MLHwnjUjt27UV0C/N3pC+0dNvLFcYMvg2h2ykE47cGl2bU1t7Z/Z0tQ7wu6p4QfbgevbHw86aOlZdQm0m0nOo6dEXX+79jPujJ/wAWPyq/Dag/zQ5/gjlq1ro72EvidOXFiduRcLYn3D68Gor6f0xLpFtpT6vcKqSGcuVUHcR258qO61dXMWmzvNd6ddRqpzGbdlLfDO6uNudSeKF4+k7TwSoIwkQJGPUmtCySrZ/5KXtzsKmrdL9Mx2csltrcjTohZEOw5Izx+VJ8oCyEHPHwq09aFy+n3Sv0lFGDGffAi93496qm5QCd8Hz9K6nR5JTtSINKg90utq+rJ7bpsupKUfEUcZYg8c8dqf449KCcdIXf32zf1pF6JjvH11fYr2Gzm8F8vKhdSOOOD3qx1i1sAbuorDA5z7O3/qrF1f8AcZJcAgmCLWdPNhocmmXHvjfIWjVxj4g02xPfmLIMIcDA/tLY/wDLS/cvfQXtk191FbT2hLhhE5jYcfHNTGv9JwA2p3THPlcyY/IVjlyP0NNXl1FoVWcW00BdcxpcMWHPfGwfmaj2ySiMNDZRsAcYLyH8OK4ajc6TMI/D1K6jnDrtZrmRlPPYgiu8aWrRc6mzgd9pc/wrFmvUaMXBPjspgqulhCrA5JMbN3+Zquv0hRKt3dspy5tiGi8Laq8+WCc0+W7WkcSYuXlVm4+qkOPnzSF1uha+k8S08ODwiFn8BlEnvDgnzpQbUkyLWzKusr54+njNPO+fatudpcnK9u/5/Cok8VrFq9s9tBMgZJGYsT7xOT50065pw9iji06T2JDKrsY1JydvnmuWk6Fb3uotJdTzyzIu0NkDHrW9dVjjBzszRxyk6B8kpcuQkgyCc8YHfvWLLi5uxChKCQ7txHfbzRu50+1h1ZLGabY0yEo0koUHHlQWSLwbq6VmBV5W57+X/CoQmpRuuSyUXGRzEjtNxExBUAgMK3hmYzlQhCrDJgE58xXOULHOuzkH3vlXQDfPIFHPgsvIxntT2Eb+MwQsYmIAA+155qPDOwYAxliV/f8AnXNTKUVFRtu3J90+vet4o5AoYqcb+TtPoaVRQrb4G7oS4YrqQWMkGWIHODg4am6KUI3MbDJzwAfSkXopliOo+LJFGGkjcF22ns3mPLmmqB/FXdGyse2fFPJrj9bD+raOl08vkSZvdAXGpDfFIq4919qjy7VIGniTeoaQOe3C8cdxmoEUC3d6izRIy4OxmYkBvj92aIm3SytmZY7ZFJBYiRSBVE3SVFsWk9yvOsPFTqa68Tc7e5knGT7g9OKAeIy4yD9le+KYesYzL1DcG0Dy7imDHhhjaKA3drNCF3xuAxCgsOciu/ga0I5Wb7zo8TcIsBGIPP5VIVmX/ZMMMeQRx3qLGJnRMJIQBgYB5rpNOELgjDBsYarHGytGO7YXchHI5OP3qIawcabZ5JADjsPgaFPvlVSiOyLgkgE+eaK6upbSrMpyC4I4+BpNU4hV2DGk9zcjOPmBUW6YsGwzc+eK3O4I65Oc+v3Vp4TZzhiCDwPvqyNWRZ3zi3ySPhz91QNS91FeILvWTByAeKINETbcxvuwONp7ZqBrCTCzDICsgdTux5c1PE7nyKV0HdL1XT7XTg1urxiPO4eGM5861/XG0I+1N/4Z/rQS31vUVtGEnhMynGTD3+JrX6eu/wBy2/8ACFRfSQcm5K/1EsklwwnqHUmk3tuY72MyxEgsrxHGfWiWmaYt5q+qNIsqW0lkPCeNN2TgYApUvOo72K2Z1S1BHrCKcrC6v5JJ1t9P8fdZ7wx7ZIGePhU3CWGK7arn1BPXL5h007pm0i0u2tNQl1GGcKCNkKsCMeuam2uiaTCkOLq7RFLYje2Ck59fe79/xrr0RPq4S1ZdFtWgMaF5JIlL5xzj0olcSdTm5Kx6TpvhLIQA1qNoGe5INc2U5cM1pJOwNeabp8MLEXk8ahGChbfgAj03UxaHaaGNIgL6TdXb7SGm9jch+/oa5al7bJHKy6LbNiMlR7NyWx6elE+nrbWW023k9ss7QkH+z+A/ud+CN2KuwtqDX4jlTdg3W7fRBYy7dFltm28TPaygIfXNTIGs/CgX9abpCVGFWFVUcdsmpHUEGrtplwZb+yuYgpJgEDgv8MhuK4WqXhtrdj0XAYyoyRAgLcerNmrkvl2Iy2OerCH6Pnx1TLLujJ8NkiO74VV84PjNyw+FWdqyP7Dcb+jfCHhn6wRQ+6cd++eKq+4H1zckfd3ro/Z/qV5OOQz0sLU6rF7dYy30XhvhYkZmB4/dp7iGhGNf+bOobvQ28vFJnQ63f02g025gtpfCf35gxBHHHFWUi6+eDrWm7u+PCf8ArWfq/wC6xx4AsMunx6vYDTtGurG7y+DO7Qo3HP2lP5U0Jda0Dhbey482vD/JKC3T6pFd2banrdjLZgtuMTqjLx/iBP4VIa80cnc2t3QPf3Ls/wAhWNveg9D3VrrWDZ7bi0sLiIsuUW7ZmxnvjbWls0/OzTIkXAx9s/wqFqV7ovgx+Dr2oQzFlx9bI4PPbBxXUXVkm4yazeMNvlkfzrHm2luXYuCcvtqxKJbCGN853JHIw7/xxVdddOkVxK2MusJZ4vCZMe8Pnn5U920Vldoskd3dTruI3kswJ+5qRevY4xO+63MSNCVWba6l+RwTk1GFOSYNOnaFHTdTXWbNZBDtKy7cM+7Jx3orBGYWZlQI5OMocUNggt7GNFtYliUtuKp64opHMJOeQcqapztW9HAYFfJ5NYQ31ypuIY5XQe6zjcR8jUs2cWNoZto8jg15b8TvjuM9q77iATjknmsry5OLNscUPBFjsIomZoSUZjyQK8Nvvl2byxPkalBveXBY5zxiucRzdgYH2qFkyNPck4QtHvsskcgjWeQLyuB8BXq2zCNFFxKFOMjNSJAfawfRjWpJynfy/nVbyza5Dtx1HE2xXIWeQDO37qyTTwr+7PJ3HNdieXP+MVvK5L0nkm3yRljigbJCzKInmkeMMMKewPqBWSWgUcMx4ziujHLA/wCIV0mPByTjHlVqnLYg4RBes/2HTjcwguwC+4xx3OKi6az6rCHijfh8YyDhhRHW0D6Ogz3C4P8A3q06Mg8KxgJAzJKzH8cD+FallrA5vlFLheTSuDpJYXQiKTRMIyMEEjsaGHQbNSjvae8OQxYk/jmnDU4zlHGMAYNCrhsW4J9BVOLrMjjaZbLp4p7gzwVSQDfLlR9kyNj8K53d1aWEEcl1IsaE7VLDOTiuszhp3cZwcEGlLqxi9oqlwAt4u3PP+zrodPF5pLUzLmrHwHxq2mlDJ7REVB2khPPvitH1XTwfduFB/wAhpZtDi1nzglpB2XH7Na5wowucHz861Ppop0rKFkbGU6rZkHNyo+aGvEv7aeUxpMsjDkqENL1zvmQIEO9hwB8e1RrI/wBsfc5i75btnntR8PBqxObuhpury1iDCZ1UKOcpUI6tpfnPB/4dBdQ2m0vtspl5HJ70u5I7GrcXSRa3bK5Tpj1JrGkIm57i3C+ZMfFG7Ao7TMoDKbVioCE7u3kKqO/JNo/J8v409aJf+Dqk0c84S3GnLtD52glRzgedPJ0aik4thDJ8xbmjaTYXbWsmpW5srgRKyhLQLkDt2bk1LudF6fFzMntNyssv2l8LuSfL3u9BumNXh002iwRwX8UiL75sGD5xyA+85/CmG81q3kcRQ6favchgZEMXZfLt51y5txfJtikwPdaLpFhDcSQXlwJZY9zARElQB/mwDRXQG0h9MgB0e8uxzmf2aQ7zk+hxQ+/1Bks2eTSbNFKuTmNsHA4PftRTpi8u7jSrdrfUdNtV94i3VZDt5P8AixWjDJuDd+qHNJUka6uujNZShdKvLJiCFna2mURn1JqRZW0CJb7eqXVygPNsMAY9WNdtba/+jro3GoWE8YTLRhZE3D0zk4rjprNLa2/h9Eo8RQNvECtu475J5rQk3G2Vy2N9RgY2cuzqlpcqfdMEfvcdu9Vbc4EzDBOPMVaOoxRC2mH6lNH7hwwtk4OO/eqruyyzspByODzXS+z/AFK58BjpdrBdUjGpW088Gxv7nfuDcfuc4p5VumkfI0rUznzHtFJ3Q3t41oHS5raGYRPnx2IBGR2xVmRt1OMKb/Suf8Ug/lWfq/7rHH7oEtZNFXWLFtPsL60u8tgSuwVhj/H/ACpxja5PJ8MDvkSKaUdd1PVdMvdNXqDU7dbSVnUSW7AsOPVl4rrHrGiOOddvvQ/2gDH/AONY5rcklsGtdt5ZtP8ArbxfB3KdohWQjnvQr6KZoD4V1tyeWeAgYx8BQrWNZ0xIENlq+pi4DrgeOGVueRW66u5t2zeXZ3AHPj44+FYM9J2XY062YatdFgtoYB7V2yzNtkO4n04xVe9VWUMF3czC/wDa8wsns/vr4eGHvYpiHVLx2kPgyLK7Y91rhz2HOcD1pE6nv2d5xFptxHM0LO04kkKtyP3vSp4oa5JRIyk0nbI8iGQr73GQd3J8q6xMsJUGQHccdiOfhmk6W3vtY0QK1+pljn/vFyONvb3ahaboEkOpwvqF7HcRAkCN2fv6gn0rQujg01Oe/gojmaeyLKhuDFKzbGOQfKsfUI1YiXCknOGIBoLbeFaABobdO53m4yCPj738qgavrKSvBaRTWPvyKGCtuJGewB71lXRKcqXBt+IcVdjT9IQZUhsj/MK5R30Kzhyy4zn7QpD1fwEusWgAjHBA9aglqtj9nRatMzy62aZaq6vbe0M7YwST9oVyGqQjbyOMftCqu3VgbkUv/lw8kPj52WmNUhYMVVsZBzkVo2qRAF2Vx88Uuabk6bERx9TRO3wZBkAjHp8KyT6WEOTRHPOdIkC+jcjGTk5HIrpJfI2QEbtiuWpBQFwAPeHaoLkYP30Qwwluh5Jzg6sJuJNR0/wbeMZTCkl1Xsc+Zqbp8E1nDbp4OfD4P1sf/qqttfb+2Jg/7JaGZ+FbV0CnCr2Mr6txfBc93cyyRlRb9z5yp/Wh8sc7wbREvp/fJ/Wqo3cYrAf/AIoj9lxjwyXxrb3LBmVoC0Td+PMH+BNL2q6cdSiki8URFblZMn/IBiu/TLltLXJ3YkkHJ+JofqgglhujeTSxxxXasGjGT9gVowY3jm4p8EMk9aslwaSIIHjW4VmchueccYrz6JlbcBPGf5VJVLW602EhcjkeInDd/MVxtrVYhN4Us7O6bQJAMDmlrbbt7j0VVHv0TN4seZFCAAMUbDUNn0u/hmLW5i8MkkMZOaLzQTmEiOWNif2XWlfU9Ivpgggnt0XzzOBV3Ttze8ivK1FBKbSdRls7gSmEyynI97y/ChbdN34zxF/r/wCFbR6TqUabRdxqPQXNYdO1IHm9T/8Ak1epOL2kirnkj3fTWoPbuiLEWOP2/wDhTHp8apfyRewpeXAsVRouT5Dnj0xS/cadqbQkJeoDkc+00x9PB16qukOHb6NIJIZuQBz7vNDm2rbur/wEY2x20IxwwQJdaVLpv1AEarDKoH+I847VIisLFNQk26kil1B/bGT9/bFGOkLeZrSGT2GHU4fCGZTZShh8AWNFpIppJSzdOW4wwKk2z5PrXHyupOjoQlWwoan4S2KAamssoV1MABJIx/Sp3SK6a+jQrcdPXM5BbMyRytk5Ppx6VLv4ZC80jdMRpwQv1UmTx6ijfSsepNpUPgy2dkMsRbN4pK8nORmrsMl22vxQT3e4J1eLRhZS+BoN7DNt4d4JgAfInJx+NGNNt7k6bbbupo4V8JSIxAp2ccAnPJqfqi6hHp1wbmazmiCHciGRWI/ChFotq9rAf1KMkZQEyGEuW4754rQpXGit7Eu9gu1spQvU0TjY3Hsy88fOqouC3inBGPnVnX0Wnm1f/mZLGdv2vZMbeO+c1WN0mZ32jA7Yz2ro/Z9q7KsjtBXpr6POqp9KNcCHw22+A7qScj93nFPUf6rEcjVCfjNP/Sk/oNtQXW1Oli1abwnBE8pQYyPgas/xup+5+ivuuW4//GqOrX9VjjwLsUminWNPOkw6j7UC+2OeXKnj1ftTT7RqXddPj++6jH8qHXba415ZnWH09bZN58eGSMsvHqwrqZtPOQ/Uk6nPldxD+ArG92SXBz12a++jt13pMU9uGXKrcoxHPf7NQVkg3Iq6VGp24z44H3dq6ajcWvsw9h6mcXBYYE11GVPPI4XJqTBcXGMya1bA47CQf0rHm59/5Lsd1/7/AIIc0eLdBHaojDhgl86hT9wpG6wkkMlxBJepNCsBIgFw7smSOTkCrKS5kaNlGrRO+STicjjy7Liqx63kE95dINscxtGTxfHLCTkf4RRhdzSZGS2bFvTraC2t2TTRGsZbcdp3jOK11C1a4jQTrDKobIDAgA/dS7LYS6Xo5jM4VhN4mYzgEFexqX0PLLJd3RlmkkzGOHYkDmtU8ThGWVSuijH80lAkHSYcZ9ltfuLVyk0kiSB7YQRMrrkKCd3I9ab8D0FCNWJ8WQDeRtiOEUk/3g7AVRh6qU5Uap9PpVtipq0D217LHICDuJGRjIPNQyTRDXCZtTndRIRu/bUgjj0NQPDk/cP4V01wrObP7zo1++sFemOTH2T+FYEf905+VOyNDXpp/wCTYf8Ac/zorbEeIB8P5UJ04EabFnsIsfnUua+gsFE1y2yPtnBPOPhXMyxcrUeTfiaTTYV1Q8Dn9oev86HOeD99R5uodOv5khtpXd2YAe43867P27etVQxyxqpqi3NNTdxFfXz/AGxP92tDM5opr6N7YoCk/VrQsxSfuN+FdbHWhHNmtzM16DWeC57q34V6I3H7JqaohTGbpk50z3toxI/YfGoMd+bnWp7AWvtMT4kQqeScDyqV00wGlt5/WyD86EdJXh0TWLaaK3jmcTBiztyfgD5VSorVNrk0J/dT4Gq6t5lUKlhcSDOeF296jG3uR30y6/GnS368lkiDy2MKbic/2gmukvWh2+7axEYz/emuRLNmi6eP+TesWJraQitDMBltNnA+LAVDFpCWUDR7ZV5JMhXv68Zp01Dq03dsY2swVb92WlmbqVRAH9kUIXZQu7tg45rVhnmavTX6lc8eNbORzWxiwCun2IB/9/u1h05fKxsfz/pUSTqCFzzasP8ALMRUSbVkf7Buoz8J8/xFXqOV8lElBcMJSaahXBsLE/MH/wBNTtLt4hqMkhjVZfZJFJUsPdA+z7vNKM2oRRuks810UB594Gm7QrlZLnfGxANq5UlmXuvH2ealOGSFNkINOWw6dNnSXtLJZ7iXTZGjBEXh3BDHyJyR3o/dGH2mcJ1CFZGwQY5Vwx7etD+kzdG3t3e0h1UCJSJY1nYp/hyTjijkoVjM8vTr47AhZCST6c8fOufmq2zVGwJqEQETSrr0MjSZdSGkHGDgYxwKndMfRraZELmO5u5CTunjlnKnnt2AqJdmKGAwnp9l2jkFpQORRnpabUPoqFbb2Gyj3Ntt3mkJHPfFXdO/kaT8Dmdro6alpL7Kl1BLtJWR5plCn4k8AVpaQ6jJDbM3VlqzeGDs2NIP/Nz86l6o2pewz+1zWjxFDuWOR1JGOwyDQPTzpEllbN+ql04KD3ykshJ+YwD91aY7ryQlsFb6DVEs5W/WG1YbCSPZTyMf5qqS6z47cj76sm9TR3tJP+at4g2kbvZpeDj51W9ygExGCuAOPT8a6XQLdlWR2gt0s+nx6kp1S7nt4tjbGhm8Mk5GfLkU8JcdLlWzq2oEkZI9sJH8KU+g5r+HWx9GwwysYm3LLIqcZHme9WSlz1GBn6PsMHOf7Sn9Kz9Zfdf/AAI1pANqdAk1WxOmS3txON+IpCkgPHqxGKafEnX7OlAqfPdCKFztrz6jYe32FqkI3fXxbJWXj18vnRF4mb/7lcIPIBIR/FaxS2ZOPBC1x2Onf23Ri8G5eUaEsOeDxzUeKSx349hnBI7tKgH8K21OCf2c+xatcGfIO2SO3Kt+QNdlTUgFzerGxUf7SJSTWPNvItg6R0ikgFrIUglBDc5uFH8FxVd/pAuZGaVvaEeFbVsRe0KWU5B5AGasJr2WHT5vH1e3B8i90q4+Zqquqr+0vri78C5MshgIkl9qSRXyQOCBUsSqSfoKT2dFeLe3Go6DJNcurSCXb9nHlUvoRv7Vc/7sfxr3UbKCw0uSG1QhN+45bPOK06G4vLgHyj/nW/K08M9PBnxX3I2O+eKXup3lW3vWt5Xhl9nTbIhIZTv7gijuaXupz/Zb3/cp/wD6Vzei/ur9Df1D+QTLBXRZvEdpHaQkuzElviakZzXKD7Pz5rpXeybyZxjN3zr0E5HNa1nmPnUKF6jbprf8mRf7r+dT0hhuMLcRpIoGcOAR2obpp/5Nh/3X86KWrHxRj09fhXLzOraN+FW1Zve2NnEQ0NrCjArgqo4qNI3H40R1PlO5PK+hoY3b8apxyco/M7LsySlSFvqAn2xDn/ZihefWievf9LT/AHY/nQuuxj+4jm5OTM8n0r0HNeVlWFYzdOFBpvuFiPEfOR50uWTH26Hb28Qfxpg6bb/k5/8AfSUAsgwuYSRx4g/jVMPvzL5cIcLPxXs0HvADJBVBg8/OtmnuEK7DkHvlcAfnQ5LlrK2hJAKO7A47jk1xuuoJUkCwxFlwCST/AErI8M5StI09yKVMJSPIVV1aUDz2ngfgaX9QYtaIR7/10nJz6/OpV3q850sSBVHiEpt3FcfKhglJ0i1btl279+9acOOUVbKck1Lgi5b92td5HfFblyfP8a1bHlj8K0IqImqOTYy49Kb+lbhhrMduZNsA01mA3leduOCvNJupFvYpA2O3kKc+lICNSgvA4CtpzR4LlSDt75APHwqc67e/4hj++WT06LYx2zSXr6XmIZQNcsX+IzwfuotcQD2qSK36kCMy5wxmU8fPtQ3piUyW9iJLAasDGPrVe5bZ8Ps4o9qMERn50QLHggspnB3eXAFcDJ97c3x98AyRZl3kdRRYxyPFdQvFEenU036OUXE91ezFjunjupSvft7poRqJWG3k8fQjtK8/WyDJx27Ud6QudQbSIxYpYWkG9sQSXLls+fZc81bhrQ/0G7sl3S2C2sptRcRzFfcZppcA+p3HFe6fHrRtLXf1JY79nEY3SffwcfhUy9uNQFlP7W1kYdhLrHcPkjzHKUu6fJoBsoCuhXzrtBLjxnP5AD8K0Q3RCfIauodaaFy2u2DDBz9S/p86qS/4un3ZZvMjzqxpn6f8F86FqS5B5MU9VvdlROwUMq+Qz2FdT7PW7K8l0FulWsvpMC/v5bFPDbEkThSxyvHOaekl6dUEt1HfE/8A7hP6UmdES3cesf2HT1vpPCbKOyDaMjn3qsZLnXNvPTltk/8AaQ1R1i/rMIvYFQ/Q76tYfR+q3l1MN58CULIp49eB+NMo89uls/rhYP5mhcx1KTUrEX+gQ28YDbbqOFXKnH+E4/Gi6rICf7Zs9V8BB/E1gnzRNPYFa9sXTf7ZosogLL76Rwkjnjs1cI5dOCxbba+CgdhGn9KIanFKbfFncwSSllzHLCm0jPPZq5RR6rsX3rJTyPdjj4/E1lyq2ieN0jksli1lMrRXKe8eHeNSTVcdbLdAXZkkb2IWreDEZoSU57e7zk1Z6NqCwSiVo3Ic4b6kYqr+tyj3WorG8/tXspEhkaHYSSMYxzUsFKaQ8m8SrNU1JW0SOWB2WP2na2Vx+zUroe/ia9uvEcLiMDc3Geah32i3cehR2jKDI1xvynvDbt7mjGjJb6TaiGGGZmPLv4fLGurm7TwuMd7MOJy1qT9Bm+kLVe9zAPm4oTq81vdpdBZ1MfhIGZPex74rQ6kAc+z3B+UYNaHVByPY7g57nwhWDFg0PUkbZZtSpgK9smsZzEXWRcAqyjGR8vKuGKZL98SqPBkY7QeFBqIztj/osv8AoFa45pNW0Y3BWB1ikZcqjEfAVsIJSRiNvwotvVRxby/+HXnibRkWsv8AoNDyy8C0LyENPUrp0QYEYi8/nRGBwj5Y4GP5VEtcvZphSuR2Iwa2kjYhFGDyCawTak2maIycXYRv7iJ0wrgksKgvnH41xSJ1Zf8ANmuzDkY781Wko7IlOet2xc1yN2u0wpP1Y7UNMMn7jfhTFqTFZxiGRxtHKrkVFLse1rL/AKK6ePI9KM0oJvdgcxSZ+w34VghkP7DfhRYsc82sv+mtS0h4FpKCe2V4qzuMj20iT04CNPfgj696CWx/tceCeHpk0qAw25UuzFpGYlhg8+Q+FB47RluEIWTAb92qoTTlMlJbInXUPiWluh5w7n8zURNPhklk8QyZXH2TiiF5G4tY9u8FXJzsz3qLG8ibyyuSx/6vApKT07MsVXuiJq9ukVjBEhO0S8ZOe9cNSk8OX2aJQsUXYY7k0RvImubaP3XX6zP2ah39sz3Lt4Uhz6Crsc9kpFU1b2Bpkf4fhXniN8PwqUbVv+pl/wBNeNaScYhkHzWrVJFelkC6cm3kBwePSnDpe4dNYggEgSH6PL4L7P2e2QKWrmxmaB9kTbiPNTTJ0rFJHrVpcORGosWjIMnhsDtPniicouJLGvmLC6aNs9lbGTV7jSU2jCJPO5k/xdgPwpkvw0oIh6kljKd2xKPu9KWNCu2ntbIG2OsMqDBi1GUiMehAXGaYrwxRRndoDhBk+5LISTjIAyOa4mdPUb4kHUWuUs5HTXlCyD3SzSA/MZHFTelZtO9gUXl1cXNyHOZUuXC48vsigN5faXMkxbTZf7vDBLokj7mXimnoe5ujoqHTXSC2EjfVT3aBs+fASrsVrG/z/AGybKbJ4JDZyzLPtO1nu2wD/wB6t7A9ReyW+7X9Nzt/u95f/wAvFS7ya+NtN7VLH4ZQg7LnJ7eWVpWsp+l/ZYN+n6m2FILNO/ByfJOKthun7+hGQx3EXUDRv/yvpxyD2WQVTt+pNy24ZbzIqxbibpbwmItNR2gf9dcD+dVvelGuGMZIQ/ZB9K6n2fyyvJsji+rXul3MEmnzmKRwwYhQePSi9h1ZrktzAr6g+1pFB4A7kUs6oSZbX933iT+FMnTL9NJZl9alvUvUk3IsIBXA5HlWvPihpcnG2URk7oM9QdUPo3VchvN89lG/hiEAEcqDnFSh+kfRGxjRUPzgQ/ypE68vodS1aa6tixglmBTcMHG3Hb7qFRDCj4VTHoYSgrtMl3ZJ0i1+ouoLSS30yJdHtALwLMjxxhHUZ+FB4up7O5t5ltLVRPGDgSg4yPI1x1HJPSYVgQLVfu96lCZ5dG6mv7SVAfEcsDjsDyDXKy9LGVeS/uOO46/rgYdFlM8MQnkkKlIkHugY5OaSNa6s1O4vBDtgMW0qpFqoYgkcZGOag6jqE5solMxCI75AIxkn/wCaWpdRulHhpM3hqSw5q/B0cY70Z8nUNui4x05aXNjEPph4PFaNfEWL3YyyFypbPcdqjQ9FCSSND1Ff72EWU8D3jvUtwPPtVVwa1f8AsRtHuJTbNJ4oTd+1jGfzoiOpNVS7t7tdQm9ojUIjB/srjA/nUV0s4PZ7D7sGuCz06YtrmziVNWuEDrEGmSAnZuJzk9geOx9a4w9CGRo1+ndSBYRkqbbk7mIYr6gYH41Wcmu6pClzZrd3KwyHc6+IeSO35nNTrfrHW4BDMl/cZh9xCWzgVGPTTivlY+5AsVeloJbGNBqs4ZlRGlEJyhMm3J9OOagXHRZgtmmTW7+VggdI/Cx4h8TbgH5c0nx9Z6xCLhBcttmPv5x72BWk/WmrH2cvezIbcDwwuBjj/iaUenyRY3kgxwtukFntPaH12/ikKeI0XhZEY8TbyfLjmp9v0naWkcks+tXMqMJNheHglHA93nnIOaRbfrTWtszC9lPtGFfIBOPTtXC61/UbqCK3mu5WSHlBkjGe/P3CieHI9gUoVaLOfpi1UzgX85aISkqIOV2kYyM8ZBzXk/TVoscrjUZNqGUBvB91iuCuDnkkE8VUkev6pHczXEd5cm4uMrI+4+9nvmuUuq6rPaJbTXcxgRt4XxDwe1QXQPyPurwXBP0zaBp1S/maSMSEJ4HvYChgcehyea1l6bsF8Vl1KQxqWVXMXuk+GGUbs4znIqt5utNVlsghlG9ovCeYgB2XsRn5cUKn1nU2sxYtdT+zIQ4j3nAI7H86F0MvUHliWdf9HWc923g65fxsV9yJIcEjwt4bHfBPFZpvR9l4/iJrl9cxkquXjyo3R7hn0O7iq0j6k1cTLKb6cSRx+EGLHhcYxXD6Wv0tDapdXCwu4kKhyMsO2fxq1dPkrTf8Ee5HwWtc9F2l1dQqusalA8gTZEkRBZWQnIB7+8MVH07pPTYzFcya/eyR7o1kDx+6hcMPePkQwx8qQ7XqzXLdo3S+nPgqVQsckD/4qc3W+tqs0fjoFmyXURj0xmo9nIlpslqiWBF03p/1BkvrgLL4RU+BjcGJU455w35c0C0zpKPUzdmfUtTtvZJFWQRLuAUsQWPpg4+6kq86k1yeRZ3v7hZIvdTBwAMeQqNHqmqRo8aXtwqz8yYkPvc55++nDp3Dhic0yyrHo3To7q1Z9evnEm0xqyAiT39jY9ce6R681Kj6e0t8j6QnLxqGlxD/AHWJCr7vlwRVUrqWqQxRL7ZceFA++Mbz7p75r0a9qk0rytfXG+fiQ7vtD40S6aU92xdxXVFi3HRmlrKrz69qMaSqZFwoCsBIVbb6jHIqVZ9Iafardr9KX880JPio0YYx7HAbgf4SCKq25vtQuVQT3U8iwgKm5z7o+FZBqepxO80d7cJJPw77zl/XPrUngm41qDXHwWtddLaWYju1O5RH8RVlCABirchTnk7Dn51ztOi7Cze5U6pqM0iB9yNGCVCEHOPihz8waqj26+aMQNcTsincgLnCt5kVq2paoZ2n9suRKylXfxDlh25oj08kq1A8i8Fp3HR2ke0C6Ot34hdpCpXHhkqQQv3qfx4oH1zA3TW2fp69d79J5LeVJIwGWMrlWA9COCfWkCS6vAohNzOIhyI95wPuqHcz3rsXmmmkf7O5nJP41di6dqScndEJ5FWyGzQ+tNf0xo4ItRvoCAN8QlZcn4gU2f8A1G1+KBvDvLppCAMGViRzyf5VVlt45mEwZ2nJ53HJNHoHlQEm4Cs3f3asyYcT5RUpyH2TrrWLqaGN7x1MigNs7Zz3ORU/pPW7+T6VaW6dnSzaWPAUbW9eBVb2sga/tCzgyb8H0pl0nUhpsl0WhMontmhwCBjI71HH08XCUUtzRHI73O36360oVvbt3+FokYH58U/6V1vqo6fvJt8W2y2hUjUIGyfQdqqCT7HHBFP3TMUF7puq2M19b2hn8Pa8xwMDntWrqenxxhaQoTbbsmT/AKUNYMZ3W8RGOfrGpXuZDJJvbG5wGPPrzXPqTT4tNunt7e+t71dm7xIfs/L8q1zuSMqf2B3+VXYcWOHzQXInJvYgasD4tsCeMN/KsiYAD1Pes1UE+zsPIsK8i4HNaVwVepz1LDLb8c7+33Gvbce6Mdq3vIy9uGTnYwb7q1Q4HFSoFyEdHbbewF2YhHXaCfIGpn6SY2HUdhOUIjlhCq54BIJ/rQhJCjhlbkU4tdWfVWh+w3bRw6hCMwSsONw8vvrl9XglqWSK2WxfH5ouJWiWzSx3AWLxNuQVQ5Pfk4oCmlz3Mj4ilwBweOB8af7TRNXsWmEum3Dbl2FkYMO/BFdl064WKRUtrqNzxlkwCTVfdlHhFPZsQJdOYJDGre8n2iPPmvItOmQPI5GwE8j1zVgLp/h3LhI2Z/DPdORkVxi0nFi0rr7zZUAdj91V9+TXBZ2BW9ktZLgC4uZgzZ7Lkk8flU59MtTEyxiZmyccYGMUWTRpFviEj95UL4bkE5rUWNw0UrSK4RT2AweRjiq5yk+CShXoCLuztLWaNjG7bgMruBHauTwr4iLHGnv4wzDOPhzTAukm5uYBLEYEYAnC+gPOK6RWd0lyyRQb4eBuK5xzj7jS1NbEtAAurJkkjWNdhY8EcZODzWngEuyOGB2ruJPANMWo2N6t3EngMQSMH0FRJNLupzM/hMu0ANk4J5PYUJyIuIAOnMIodi57Y/xVzEDtOyJGSFwp/E0yx6NO8dkrK6AqMEc//FbNo10LllRHJjUktjaDg9/nUlN+qDt2K8tlgAshVmfHB8s1JubfMikcjYVz8jRu50m69kRvAkJDlST5HPP/AM12k0a6NwcRPjZk4wM9uKNT8B2xTW2d7EqqklWIIHlzXWWweO6jWRDuZSFPr8ab7XRiLMlw65kKkPwAfXFSrzSjJeq0MeHAZBkYG3A5Hz5pSyyXoNYfIqnTyYmD/Zw+09s1zbTpIvCadQkbuVLN64/pTbcWRfSRi1xc72yADwMccVqbCaaeFbiGQ/Blypwpx99QjKZJ4xTeKB4iVf3SxXePLit3i2ey4jDQlQMnjnHFF00e5MNyzwSlS3uqoA5+XlRJ9LZZ7GaG1n8LAX4E7fIn76k79COgU106S6gO4eEofaSxzk8fgK6w6AsRV4LhriJcZymNxIPY+nFMS6a4F/KttKG2hFQjuMjk/H41JsYJrUQEWjOkgCkvwBwR3HoTSc58Iaxq9xMe3aSa4CpuXhVXPn8a5pbuUgjjRpGRiDkHHenIWMqLMsNgFmRgRx5Z8/X51wNrebt8ttKv1xyYxtAO4Zz6U9UvAPGKJTEjMv2k7qew5rgVcwnxto4wuz503DSLkXF5HJZOoK5BI5A75rSXRp104FLaQsQ28sOF5qep1wQ7YrvZYzuDEEZyeOM1xNqGYLHuBLnB78Z86dfoeY3Lq9nLtKNnHc4APGe9R49GvWQBbOUuGYHj7Pnj4cetSjOXog7YKt4I42cTII1KERlPdwfXnmoly6YjK73xjcCMYpgudE1AxjwLOSR/Ill/rXGPp7WpziS3jgB4Z5JF7VZGEm7aIOLSogaNaS3+tQqiYWP6x+OwFFLtFScqvZeM0ShjtdBsnt7SYXF7MPrZh2A9BQo8n3q39PjcbkwaqNEedeOO+eM1PuBufLAGo3hGWVEGcsccVImx4pwc44zWhqxLYjy4CNjA4zRKMfUxY4G0edDZTlDle/FE2AUIpPIUD8qTQ47HO4VZ7WUYyVww+7vUFMbeFzU62kCOp7rjHzFcruDwZjtGY295G9RTXAjWBlzh+EYYPyrnLEYHK9x3BHmK8yewFTYJ4pIxDcqfD8iO6n4UwIIJOOTitkcgggkH4VLm06TG63InjPYp3/DvUNoypAZSCPWgAxourR21/E+pi5uLIZ3xxSFWPpimQ9TdKEgHRtS9CGuTSHsbPHetgjN+yx+QrNlwKbu6JqbstC8uYprLS5rFBBbTSwFI35ZBuAOT510iEv01qS71Bjt1OSgwSGI/OoaoG6e6eG094txx2+sFEEUfT2sEr9WbXbxnH2zXBkpK/wBfqa0wWxkGg2kgcAPLtPu8jE45ooiTDqa5iMoZktmYEqMcFTQ5Y2HTFjH3cTkkYOceMtFwpPVt7gEr7I4HB7+7UXq3/UPABaST9UTJ4oA8d0wV5+2TnPpRwC4HWMUPjDi3Zgdgx9oEUEeNv1KKFGZhdOQCO/J/lTBtb9d4GJygtmGQPPC8GpPVuPYEarLO2h6vKsva8mVh51LmEx6rsovFZd9uzDjsMZqNq0Un6u6wvhtua9kwMcng4xU5kc9V6c53Mq23vHGQDs7E0nq+v0EwSjy/QGsSNLnE7LjHqi/0qZcGf6d0CPxvdliZgSO2Ux9+KjRxuentXXwyS1wCgA5PuDt61Omjb6f6ZbHCQ4bj7PuefpzRUvf5DIRklfTeqsynKSkknz93HH8a6M8om6W+vP1g3Y74ymKxbaU6V1SpiYCWQlCVPveXHrzW3hss3ShWNsxoN+VPA2+fp3p3L3+QjWMzLP1P9cwKFWOfP3SK0WWZbPpImYlWkj8u3GOfWuwQi66rzG21sbTzyfhWjxyexdJjY+6KRS6lfeHbv6Ulq+gWjpB466t1EntBDxwRkk+eARUDfOvT3TLeO+DcIAPTDGitvGV1fqQqjbJIQFJH2jz51ANvIOnenI/CbxEulLjacqA3mPKmtVfsDJ1kZl6s1aMzuSkCMG9QDnGKErdzfqBoieK5UXqkDP8AjPejcELHq7WXKMEe2A3Y4Jx60GS2m/UfS4/CfxFu0JXacgbzzjypJS+g9gsTMOt79BMwLWW4N5fbzjj8KCSSTfqPAxmO0XrKQP8AeZo+IWPW91IFcRtZFQ+PdzkcZ7UB9llPQaRGGQyC8JChDnBf0oipbfoJh3MrdcmNbhstYNtPOBls0HvpZ36Q1mUTt/02YMM47yj+lGBC36+QyBG8L2HbvxkA7uBQOSCZuiNWj8GUyyXrMqbDlh4gwQKEpbe/UGwtO88nW9kouGJlspSDjtnANDopp/1W6lPtBwlxOGH72QB/Kissbt1vps0ayeEtk6lyvC/Oh0dtMvSvU8ZhcNJPM0a4OWBwAR60969+Q9SfcNKdf0FGnP1sEpGR2zGorXRr2aJuop5Cs6xXbmSJzxJ9UBivbiOVuoumn2OFjgfexXhPdA5Pl6Vx0uORYeqGaJlEtxIUyv2htxx680lGT8+2G1AH9dNLPfpSxPnkue340u67qsWp3ni2lkmnxBAoijYkZ9ai+w3iqC1vMCPLYa89juCciCbv22GvQY8EYboyOTZGGefOvB2B8v4VNi0y7c48FkHmXG0fnXeOK2sW3yutxMOyLyq/P1rSQ5NYovZbYzS/30gwg/dX1qE3vcdv6U5/o/n0u41a6fWEgnl2AwpNygOeTjz8qj/pA0qK01NLuytxFZXCgho/7vd5gelZfiY93tPknoenUK9nCZrlEUZGdzZPYCpEzlpWIHGfWpKxCxsjvOLicZxjlV8hUHB9a0EKPE4UCpkEkckRtpyfDY+6w7ofUVCHY16G2rQgNru1kt2xIMg9iOzD4VHP5UStbzEfgzqJYT+y3l8R8a3axt5zutJwp/cl8vvpjoGxTPE2UZh8qlLq12o4lzkefNbTaXdqeYXcfvR+8Pyrh7FOePAlH/cNAtwlpGo3FzqlpDO2YpJVVgOOCfUU36nr/TWnajPavpOos8LlWZbjj7uaQYbe8hlSWGOVJY2DIwQ5B9e1dLiC/urh57mOeSZzlmaM+8fwrPlxOclu6JKVIs+DWYLvpHU7vSbee2gjiZAsz723cHIPkKlXM96L3Q4TNhp0ly2zg5UEZ/GgPTdvJ/8ATzVI3V1kO/ahB3HIHYU1TRL9K9PErlUV92P2TsHeuJlhKMml+Jqi9kQUvbtv1mkEqkRFwFx2JjXt6Vze6vBF06PaMrcuDjbn/Y45+8ZqYtqqJ1Twx8RiU4xu+qHb1rnJbk2/SuAwMbpvAHYeGRz6VFxlfHuiR7DcXTa1rANxnwY4zjjB+rIqBb3l6mi9PP44PizxE47ngjk+dFYYQNX15iDtaJNuR9o7T2qBFaSL0504m0iSOeIuuOV796FGfj3QBGO8upertR+sIEcEThSOP2waDRXt4OkrGQXB+suol7c8SY/nR2GPb1ZqLkfVPaRgPngnLZ+/kUJSA/qhp6FH8RLqMldvvYEvfHyo0ztbe6AnxT3f62JE1wSYbRW7YDYb0oL7Ve/qjczrcsAbnbjHIxMfP76YjD/zwaXDeD7Ht3+RO/tQZ7Zz0bcxLE3iG5ZgnmR4uc4+VKMJ7beBE2WS8HVFjbi6PNq7Z8j76t/Oh0l5dHpzX5/aWwJZkAxz9oGjc8SnquwlyDGtrIrNjhTlcD8jQua3Y9L6/CsZEsk8xjUd2BIxihQntt4HZJvGvJNd0eAXGNySvn04BqHJc3TWfVEwnlBR5VCjyyin+VFblN+u6NKD9WkUgdh2UlR3qC1u3sPU6DIeaRygJ+2DGO1NQl492Fms0l48vTtv7U22bcc9sZj7Vul7dm56lmNySYzjHziFdpIMz9MOuB4PEhx9n6vHP31rBARN1JuwFlIMY4w/1eP48UtEvHuw9CCbi7Ol9NqbiTE8kZz5jMW3n8KlwXF2Nc1gm6f6mGP7xsYHHNaJFjTOmV8Mh4ZIzJx9jCkHNS4Yk+mtZdmCxSwxhWOMEgN2p9ufjz9QAyXN3+r3T+65cLPNFnJ5U4Ionb3F3+tF+ntLkW9tDx+9gMKhezsOm9AiYEyQTxF1PcAE5NFYVC9VahMcCKS2RVfIwSC2f40njn4DYAx3d4OlNLl9pb37qJSCe2JD+PejMc9z+tUsXjuDHZKUbvyHzQ72d16RsYTjxo7pGK8ZUCXOfwosoReqZJwymJrMRl8jG7fnFScJ77eQF83l0vRrN7S+72vYQT6TcH86LvLdnq6KA3MgUWbEFf8AODUBrUnpB7f3fGN0z7MgHHi5/hRaRY/1ohmEiG3Fo6F9w4bcMDOfnSeOd7L3sAvyXV1+qeqyG5ZW9pkVgfP6zP41K6v6gj0Y2SXumpqYZWMbySFCgzyMD4mtJLUjpTU7YczPcStGu4ZYFsgihn6R7SS/fT2tMTFEO4KRxwKuw4pSyJSWxGb2dHul9RafrPtlunT9vbOlu8gk8VjjApBN/clQRLJ+J4qZFpepwkmCOaNmXaSrAZHp3rn9CX449mbj4j+tdjFh7cm/QzOTaIb3c0h9+RyMftE4riBuJPc0UGiXnObdlJ82YAfxrddIEbZu7qKMDyU72rQRpgsR7zjHvZwMCm7TtQudL6els78rJDIQ0NvJ7xT4/ChS3drY5NlEXmHHiy8kfIdhQy4meaVnkcsx8yc5quWOMqsaelG13dPcTNJL7zMck1zB47fnWvwHNYPiKmRe57GSY/LmvcZAHbFZWUkI9DZ4/lXqsQOOKyspjO0dzNERsdwB5g13+k7oZ/tEhHzrKygdnn0nd9/Hk/GvfpW8JH9ok+81lZRQWZ9K3uf+kSf6jW/0te5P9pl/1GsrKhS8D1Mz6Xvcc3En+o14NXvjx7TJ89xrKyil4DUz36WvCBm4l5/xHitfpW88riTn/Eaysp0vAamenVLzH9/J2/eNefSd1kf2iUfNiaysopeA1M8+lLr7PjPwe+6vRqd2G5nkB/zVlZRS8BqZ59J3Z/28hHnzWDUroHmd/wAayso28BqZ4dRuSGxNIOP3q9+kbo4zNJ/qrKykq8BqZ59IXP8A10n+qvDf3J7zOfXnvWVlG3gNTPPb7k4HiSev2q1N/cjA8Z+PjWVlLYNTPTfXB5Mz/jXnttwMZlcn51lZT28BqZnt04/2jZ9c14LyYDmR+/bNZWUw1Mw3k5P962fM5rz2ucd5GPnyayso28CcmaG7mx/eN+NYbmU9pCPv71lZT2YtTMNzL5yN+NeNPLxiRvxrKygLZ4Z5D/tCfvrn4jHktmsrKYWzTOeT3PNYDnJx3rKymB6vGeOawH4A1lZQB//Z;" vertex="1" parent="1">
          <mxGeometry x="246.20999999999998" y="319" width="107.1" height="80" as="geometry" />
        </mxCell>
        <mxCell id="SVQWeV-mscCjuDsBFyhi-53" value="" style="html=1;labelBackgroundColor=#ffffff;startArrow=classic;startFill=1;startSize=6;endArrow=classic;endFill=1;endSize=6;jettySize=auto;orthogonalLoop=1;strokeWidth=1;fontSize=14;rounded=0;" edge="1" parent="1">
          <mxGeometry width="60" height="60" relative="1" as="geometry">
            <mxPoint x="210" y="239" as="sourcePoint" />
            <mxPoint x="600" y="239" as="targetPoint" />
            <Array as="points">
              <mxPoint x="450" y="239" />
            </Array>
          </mxGeometry>
        </mxCell>
        <mxCell id="SVQWeV-mscCjuDsBFyhi-54" value="" style="html=1;labelBackgroundColor=#ffffff;startArrow=classic;startFill=1;startSize=6;endArrow=classic;endFill=1;endSize=6;jettySize=auto;orthogonalLoop=1;strokeWidth=1;fontSize=14;rounded=0;" edge="1" parent="1" target="SVQWeV-mscCjuDsBFyhi-43">
          <mxGeometry width="60" height="60" relative="1" as="geometry">
            <mxPoint x="300" y="239" as="sourcePoint" />
            <mxPoint x="259.63" y="169" as="targetPoint" />
            <Array as="points" />
          </mxGeometry>
        </mxCell>
        <mxCell id="SVQWeV-mscCjuDsBFyhi-57" value="" style="html=1;labelBackgroundColor=#ffffff;startArrow=classic;startFill=1;startSize=6;endArrow=classic;endFill=1;endSize=6;jettySize=auto;orthogonalLoop=1;strokeWidth=1;fontSize=14;rounded=0;entryX=0.5;entryY=1;entryDx=0;entryDy=0;" edge="1" parent="1" target="SVQWeV-mscCjuDsBFyhi-42">
          <mxGeometry width="60" height="60" relative="1" as="geometry">
            <mxPoint x="380" y="239" as="sourcePoint" />
            <mxPoint x="410" y="159" as="targetPoint" />
          </mxGeometry>
        </mxCell>
        <mxCell id="SVQWeV-mscCjuDsBFyhi-59" value="" style="html=1;labelBackgroundColor=#ffffff;startArrow=classic;startFill=1;startSize=6;endArrow=classic;endFill=1;endSize=6;jettySize=auto;orthogonalLoop=1;strokeWidth=1;fontSize=14;rounded=0;entryX=0.5;entryY=0;entryDx=0;entryDy=0;" edge="1" parent="1" target="SVQWeV-mscCjuDsBFyhi-41">
          <mxGeometry width="60" height="60" relative="1" as="geometry">
            <mxPoint x="460" y="239" as="sourcePoint" />
            <mxPoint x="500" y="159" as="targetPoint" />
          </mxGeometry>
        </mxCell>
        <mxCell id="SVQWeV-mscCjuDsBFyhi-60" value="" style="html=1;labelBackgroundColor=#ffffff;startArrow=classic;startFill=1;startSize=6;endArrow=classic;endFill=1;endSize=6;jettySize=auto;orthogonalLoop=1;strokeWidth=1;fontSize=14;rounded=0;entryX=0.5;entryY=1;entryDx=0;entryDy=0;" edge="1" parent="1" target="SVQWeV-mscCjuDsBFyhi-45">
          <mxGeometry width="60" height="60" relative="1" as="geometry">
            <mxPoint x="540" y="239" as="sourcePoint" />
            <mxPoint x="510" y="149" as="targetPoint" />
          </mxGeometry>
        </mxCell>
        <mxCell id="SVQWeV-mscCjuDsBFyhi-61" value="" style="html=1;labelBackgroundColor=#ffffff;startArrow=classic;startFill=1;startSize=6;endArrow=classic;endFill=1;endSize=6;jettySize=auto;orthogonalLoop=1;strokeWidth=1;fontSize=14;rounded=0;exitX=0.5;exitY=0;exitDx=0;exitDy=0;" edge="1" parent="1" source="SVQWeV-mscCjuDsBFyhi-47">
          <mxGeometry width="60" height="60" relative="1" as="geometry">
            <mxPoint x="600" y="309" as="sourcePoint" />
            <mxPoint x="530" y="249" as="targetPoint" />
            <Array as="points">
              <mxPoint x="530" y="289" />
            </Array>
          </mxGeometry>
        </mxCell>
        <mxCell id="SVQWeV-mscCjuDsBFyhi-62" value="" style="html=1;labelBackgroundColor=#ffffff;startArrow=classic;startFill=1;startSize=6;endArrow=classic;endFill=1;endSize=6;jettySize=auto;orthogonalLoop=1;strokeWidth=1;fontSize=14;rounded=0;exitX=0.5;exitY=0;exitDx=0;exitDy=0;" edge="1" parent="1" source="SVQWeV-mscCjuDsBFyhi-51">
          <mxGeometry width="60" height="60" relative="1" as="geometry">
            <mxPoint x="450" y="359" as="sourcePoint" />
            <mxPoint x="300" y="249" as="targetPoint" />
          </mxGeometry>
        </mxCell>
        <mxCell id="SVQWeV-mscCjuDsBFyhi-71" value="Processor 1" style="ellipse;whiteSpace=wrap;html=1;" vertex="1" parent="1">
          <mxGeometry x="253.93" y="59" width="72.14" height="40" as="geometry" />
        </mxCell>
        <mxCell id="SVQWeV-mscCjuDsBFyhi-74" value="Processor 2" style="ellipse;whiteSpace=wrap;html=1;" vertex="1" parent="1">
          <mxGeometry x="343.93" y="59" width="72.14" height="40" as="geometry" />
        </mxCell>
        <mxCell id="SVQWeV-mscCjuDsBFyhi-75" value="Processor 3" style="ellipse;whiteSpace=wrap;html=1;" vertex="1" parent="1">
          <mxGeometry x="423.93" y="59" width="72.14" height="40" as="geometry" />
        </mxCell>
        <mxCell id="SVQWeV-mscCjuDsBFyhi-76" value="Processor 4" style="ellipse;whiteSpace=wrap;html=1;" vertex="1" parent="1">
          <mxGeometry x="503.93" y="59" width="72.14" height="40" as="geometry" />
        </mxCell>
        <mxCell id="SVQWeV-mscCjuDsBFyhi-77" value="I/O&lt;div&gt;Device&lt;/div&gt;" style="ellipse;whiteSpace=wrap;html=1;" vertex="1" parent="1">
          <mxGeometry x="493.93" y="419" width="72.14" height="40" as="geometry" />
        </mxCell>
        <mxCell id="SVQWeV-mscCjuDsBFyhi-78" value="Main Cpu" style="ellipse;whiteSpace=wrap;html=1;" vertex="1" parent="1">
          <mxGeometry x="263.69" y="419" width="72.14" height="40" as="geometry" />
        </mxCell>
        <mxCell id="SVQWeV-mscCjuDsBFyhi-79" value="Symmetric Multiprocessing" style="rounded=0;whiteSpace=wrap;html=1;fillColor=#eeeeee;strokeColor=#36393d;" vertex="1" parent="1">
          <mxGeometry x="199.76" y="479" width="400.24" height="40" as="geometry" />
        </mxCell>
        <mxCell id="SVQWeV-mscCjuDsBFyhi-85" value="" style="edgeStyle=orthogonalEdgeStyle;rounded=0;orthogonalLoop=1;jettySize=auto;html=1;" edge="1" parent="1" target="SVQWeV-mscCjuDsBFyhi-84">
          <mxGeometry relative="1" as="geometry">
            <mxPoint x="179.76" y="680" as="sourcePoint" />
          </mxGeometry>
        </mxCell>
        <mxCell id="SVQWeV-mscCjuDsBFyhi-81" value="" style="image;aspect=fixed;perimeter=ellipsePerimeter;html=1;align=center;shadow=0;dashed=0;fontColor=#4277BB;labelBackgroundColor=default;fontSize=12;spacingTop=3;image=img/lib/ibm/applications/iot_application.svg;" vertex="1" parent="1">
          <mxGeometry x="600" y="760" width="40" height="40" as="geometry" />
        </mxCell>
        <mxCell id="SVQWeV-mscCjuDsBFyhi-82" value="" style="html=1;labelBackgroundColor=#ffffff;startArrow=classic;startFill=1;startSize=6;endArrow=classic;endFill=1;endSize=6;jettySize=auto;orthogonalLoop=1;strokeWidth=1;fontSize=14;rounded=0;exitX=1;exitY=0.5;exitDx=0;exitDy=0;" edge="1" parent="1" source="SVQWeV-mscCjuDsBFyhi-87">
          <mxGeometry width="60" height="60" relative="1" as="geometry">
            <mxPoint x="200" y="650" as="sourcePoint" />
            <mxPoint x="300" y="650" as="targetPoint" />
            <Array as="points">
              <mxPoint x="270" y="650" />
            </Array>
          </mxGeometry>
        </mxCell>
        <mxCell id="SVQWeV-mscCjuDsBFyhi-83" value="" style="html=1;labelBackgroundColor=#ffffff;startArrow=classic;startFill=1;startSize=6;endArrow=classic;endFill=1;endSize=6;jettySize=auto;orthogonalLoop=1;strokeWidth=1;fontSize=14;rounded=0;entryX=0.5;entryY=1;entryDx=0;entryDy=0;" edge="1" parent="1">
          <mxGeometry width="60" height="60" relative="1" as="geometry">
            <mxPoint x="180" y="780" as="sourcePoint" />
            <mxPoint x="179.76" y="680" as="targetPoint" />
          </mxGeometry>
        </mxCell>
        <mxCell id="SVQWeV-mscCjuDsBFyhi-84" value="" style="image;aspect=fixed;perimeter=ellipsePerimeter;html=1;align=center;shadow=0;dashed=0;fontColor=#4277BB;labelBackgroundColor=default;fontSize=12;spacingTop=3;image=img/lib/ibm/applications/iot_application.svg;" vertex="1" parent="1">
          <mxGeometry x="159.76" y="760" width="40" height="40" as="geometry" />
        </mxCell>
        <mxCell id="SVQWeV-mscCjuDsBFyhi-87" value="" style="shape=image;verticalLabelPosition=bottom;labelBackgroundColor=default;verticalAlign=top;aspect=fixed;imageAspect=0;image=data:image/jpeg,/9j/4AAQSkZJRgABAQEAlgCWAAD/2wBDAAYEBQYFBAYGBQYHBwYIChAKCgkJChQODwwQFxQYGBcUFhYaHSUfGhsjHBYWICwgIyYnKSopGR8tMC0oMCUoKSj/2wBDAQcHBwoIChMKChMoGhYaKCgoKCgoKCgoKCgoKCgoKCgoKCgoKCgoKCgoKCgoKCgoKCgoKCgoKCgoKCgoKCgoKCj/wAARCAD4AUwDASIAAhEBAxEB/8QAHAAAAgIDAQEAAAAAAAAAAAAABQYEBwACAwEI/8QATRAAAgEDAwIDBAYHBQMLAwUAAQIDAAQRBRIhBjETQVEUImFxFSMygZGhBxZCUrHB0SQzYnKSQ3PhJSY0U2OCk7LS8PEXRaJGdJSjs//EABoBAAIDAQEAAAAAAAAAAAAAAAABAgMEBQb/xAAxEQACAgEDAwIDBwUBAQAAAAAAAQIRAxIhMQQTUUHwFCKxBTJhcYGRoSMzwdHh8RX/2gAMAwEAAhEDEQA/ABefdAxXnJOO2PKtlGVyDz3rACQR3zWc6VGmB5Vs5AUse2O58qAdR9T2ejRtGNs92RxGPL50i6jqmu6zC85juPZByfCQ7AP6U7S5IuaRZN1rmm2zYmvYs+YByajP1XopIzepyO+DSB0r01Lr09wFEkjQqG8NCNz59M1M6s6Nm0W3s7kRzJHcZDI+CUYeRI86reeCnoYk5uOqhx/WvRgDi8T8DWv63aQAD7UDngjB4qsrHSZby9gto2CvM4jDN2BJxXTU9Fm07UrmymdXkgcozKODirNUdWj1I9yVXRZ46o0koXW4ynrtNet1PpatjxmJPYbaUNM6akn6Ku9RDMBGzDHke1GpujHTWdMgMj7biB3yB2wB/WssuqhFtFyU2roKt1RpQVi0zHHBO3tWDqbSuAZ2z5DaeaXn6SkXSdcuNx/skjofjhQTXeXo+X2zRo/Fwbndzxge7ml8ZAemfgNHqXSDu+vYBTz7prD1NpPugzsQ3b3TzQL9U38PX2MvNo3b973Aa9PR8m7QAJCfayPLt7hNL4yIlGfgPL1NpXvDx2yp5901q3U+k7l+vYhuxCmgsfSEvtusoXIFttB7c5TNcY+k5TZaA5Zh7U6KOO2VJprrI0FT8DB+s2lBmAnYgckbTxWfrRpIQMJ32t29080Ht+kJJNU1WESkC3jRs/vZB/pUSDpWQ6Ro07OQLmSMAegJPNHxcQqfgZD1LpRJTxm45I2ntWv6zaQUDC4O08D3DQuPo2Ztev7UyH6q2SUHHfJbGfwoenSsrdP6bdBifHnjjx8S+KS6yDHU/AyjqTS923xm3AZ+wa1/WfSfC3G4JUnvsNC16Nn+n7q138x26yZ+bH+lDf1Xm/VyG7LcNciLb6HxMU/i4BU/Azr1HpPIErbj5bTXp6l0ho9xuCFBx9k4oQejpBr/ALMZCB7OZd3yahrdNyfq690rHb7S0eMf9pihdXF8BU/A0nqLSsBfGOe+NprVupNK2k+0EKO52GhL9ITr1DHaByWNu0nbyBH9agP0xMOnL29diFjnePGPMPihdZEKn4GY9R6WHx45yRwNp5rB1LpQUk3LAA4J2nAoTJ0bMvUFnaF8+LA8m4D0xkfnUBul5hoWq3W8/wBnmdCMd8YoXWRFU/Axt1Hpe8KZ2B7j3O4r09SaTtY+0EbTg+6aDz9ITR6zp1sXyZoWfI+Q4qGemJjputzhzi1kdT6YAzR8XCh6Z+BkPUele4PaTk/ZBQ1n6w6Thj7RyvBO08UEfpGcajpMRJInUtkDt7majjpiQW+tOz8WrlTj/ID/ADofVxQtM/AxHqPShtIuSC3AG081o3VGjplXu1BHqpzQb9UZvH0NDIMXY4OMAe5mlTqPTGstaubdmy0ZAz91WY88Zy0kJucVdFgfrVox5F6oB+BrxeqNFHAvU/A1XSaFcPosuphkEEUohK/tEmoHsjg1oUoy4IPLJeha0PUukyEKt8mfVuKKQzwTqGgljlU9tpzVKm0fzBr2F7q1cPBK8bg91OKlQlma5RdhyBgH414CQ2M4BqvtD62ngZYdVUSR9vExyPnT7BNHdQJNbuHiblWByKC2MlLg6H3gcY+VbxQJs+yfurRDyA3fFdFZwMCq5IkdQcKUznnviljrTqD6JtfZ7Vs3UoIz+6PX50wXlwlrbTTSnaiKWOaROldUS41/dqdvFNa3L4feM7FPzpSm4RtKyLe9C3Hp90WS6vIZ/DlYEO6EB+fInjmr+0TT7c6VZ3djZahfW1+oiFvEn1cS4wc47D4k0W0m18Jm0+9aDW1vpQsdnEuY4YP3ifLjz+FCOq+oNP6I06bRum5bk5LGVi+5sn9lfL765GXJLqqVFsILEt9zLPpnROkNW1C4uNSjjtLmPwo7ZGLTRjufe+HlSx1XqGlzaKmj6P7S0JkEsk15LudmHzqtNW1/U9SuZMs8OTgjndn4k0K9juJBl2dj6sSa2YujSlrnK2VTzv7qQ76dbiy1C2ul8N2hkWQLvAzg5xThP1RYzytLddM6NNM5JMkmCx+ZxVMDT5s179HzA+ea05cOPI9UuStZZLZF3T9SaXddN3OniytrCSSJykdsmFLZXHPbnn8Kkz9TaW2pWF7Gfds45UIKZySFxn17Gq8/VNh0zpN0X+tuZogAB2VjiiidFP8ArHcWsjYiitUkfjuTkfxxXJlDBbf5/wCjUpzfoMk+uaWNP160iYkX7SvESnJyoC8+XnUq46j0h7zS5wx22HiA/V9/qsDPr71V8OlZv1VgumIMk12kaccgeJtP5kUZt+jXj6ut7U7dkdssko253Hec0OGBfyGub9Boj17SPB6iVmYm/YNFhOP7sKflyK5HqDR/+Q1b/wC3kGQ7OceFj7/epDPSFx+rlxfF9oFy0W3b2+t20QuOiJR1Db2KPl2tnldsccEf1puODy/3/ANU/A2x9Q6Ss+qzMfdv9mz3O31WD8ua8TXNJTTenIjI3i6e6NMNvbCEffyRSHb9NunTGp3btkeI0CBh2Icc1Nboq5j6gsrVpMh4GmJx5AjP8aNGDyCnN+g5WnU2kpqeoXTkEXkcSfY4BCvu48uSKiQ61pY0rRrRm+ss5IHf3OcAnd8+McUkXHTLNousXgcLFFPKqKB3wePyohcdFTrq2lWqyASTxSsxI7Abcfzo0YF7/AFKfgd26m0aHX7+9Vy1vcRQxDKE9mbdx6gGhaazpn0Np2nliHtZoZm48hKWbB+VKsHSckOm6/c3GCtsZIxkftbQQfzqXc9HyY0W13ASziR9xHO3YCBSUcC8/wDgap+Bth6o0ga1cag2TG9ukOAnGRIc8f5TUE6zpZ0GPTy2JI7gT9uceNuxn/LS3J0izz6/KAogtCwwOMkRA/xrjJ0hKs2iRB8y3QJz6DZn+tGnAGqb9B4/WjRzrv0gGBj8EwFdnGfEz2+VQH1vS/oKTT45W8Vp2mBK+Rm3Dn/LmlK66TZY9ekRiI7MquO+TsB/jWrdIzhunvfBN92x+yNhNSUMC298C1T8D7L1RpJ1tdRDAhYJIXHh+ZdSP/xBodJrOknQtQ01Sd08sssbAc+84I/LNL0fR+y81fdIfCtVUvnzJQn+NQz0lMtvoDeICbxlwAOACuaioYPp/seua9B9ueqNHfXINQQfVwQzRMu3vkjb/A1Cn1rSvonVrKEndeSyyR5XyONoznjzpOTpOdpNbHiAmzQE+734P9K2TpGRtK0OZ5gJL2RAgI9akoYPf7i1z8D1P1NpD6vaXiDKWsMiY2dyVXGfvBFRH1rSjpus24bMl9LI8fu+qAD8+KWP1LuBqWpxiQEwW6SkhfXdx+VQ7XpKWbQdMvPEx48kaqO/c4pLHgpb+P8AYOc/A9y9SaSdQ06dQdlkrK4wRnMWOef3uK1TXNGax19C7D29t8WF9YwP40np0bMdb1S1MmDBAj529wc9/wAKhw9KXD6Dpl2HG24mRB974prHgfL98hrm/Qf5Ne0h59Bl3NmxUiYYz/syO3zqHfdUadJcPLFoekXKsFIlmjXceBnvS+nQ1wdeubMTDfHbLJnHqx/pQi96TuIek2vmZSVdlK/J8U4Q6dyT5/6JynXAxa3r0OqaQ+nRWGn2UTOJMwMAMj4YpZ9hi/6yP/WKVzpshPYfhWv0c+OQK62PFHEqiqMrySk7aGs6XuH1eH/ynNRZ9NYKTgcUAjjurZt8EsiEfutTDo/UAlkW21ZFVm4EwGB99WAmnyC7mxGDxipPTusTaHchHy9m599P3fiKZ7zT1ZcqAc0uX9jsJ900A41uiy4ZFkhSSIhkcbgfhUlM7eNv30o9DagXhfT5R70I3Jz5elNXfkdvlUJGhO0AevJjHo4hizmZwvHp3ov0P+j+Cezs5bzWEtNQv4zJaWvh7ty+W4+RJoT1lD4i2a/9ocn7qPNrclxY6QPZljvNPXatyjcuoxtBHwxVGfuNJQIpJvcY9Ckfo3o3WtSmYw3Ez+yoh8iudxPy7VR0F5LqfUUV7dySJCJAPd5Kpnn51aX6Zuqhr/TmnwW4KsWBnULtAc9x8eB3+NI+h6YERWYc4zUMGNyg3PlhkdySXBb02n2Q06e51eW3n6fu1WK2gtY900rkD3s+TCkPq3pK10bWntLWSR4jGki+Lw6gj7Jx5ijfTXUd909FMlq0b27jd4cy5VG/fHoRSHq+o6j1DfytA8rq7kmQ/akPmfl6VRjhLppNyexZOpLZBTRrLTrbUYZNTt/a7VT9ZCsmwsPnTV7R0Of/ANMXOPhdnn86Q26N1OKya7nMEMCclpX5+4dz91AjaztcLDbENvbarN7oJ+GacpxyvVbIJuG1F4anc6NJpuhCyWO3t/Fi8OJm3FAko3An7xWC4sB1DrEokgG2ELIC5wNsp3Efcarr6KvWt+l7Zol3xNI8gDA95wO/3V3bS9Ra/wCspzbv4UkUvhlRk4aXFYe1jutXuy9TlXA4XL2CdLaXGZocm6LjJ5G2dWP3Y5orJPYjqvVZBNArraSKeSApU5OPPOOaqe8s5YtE6bt33nfNPuyOeZVH86JpbXl11R1ZPFEzQJazqGz+0SoA/jTeGDTdgsjVDur6anQc8TXERZr1yvvc/wB9vx6H3eaIvcWC9dzSrNDmOydSNxwDhW49DiqgvLe5j6Y0W3WGR5pr6Y7O+73YxTFPayDrHXbr3QsdtcDGDwREAKjLFDm/ILIw3I9g3Q8qNJGxe/cqc85J3D7setM99cac/VdkUnt2ZbCaMqCe5CsPyFU9NFNb9GQRSJHve/dsnsR4XHP30fmtJ4uumlGwxwWjN7p+zi3Ix+dEsUeLDW0HHfT5Ojb+KOWE7rp9uD5smR/Ojz3Onv1lpriSFm9nKqN52tuT3flmqaKzW/6P5JDKrSy6j2HG3EXAP4/nTZp+ltP1npsrXAQ20FuBFsJL4gBznyAqU8MI7t+RRm3sM2q3OmzdMdQ+BLEyXN5mMhjnlFx8xwamGfTpOqdAaOaLK2wwC5wQyHGR9x5qqpLOa16FlVjtZ9RQ8+Y8Fz/E0bsrSRusdEIUMsFjGDx/2T/1pdqHN+SWtrYZBc2D9M9WtHcKWuLlvCyx3e8oCY/A0QE9g2vdNFZoCREoUEnJBjdRn/velVhaWk6dF6kwA3SXUAC+hAJx+dToop4urujoJCAyW1sXHxwWNNYIv190J5WuRwiuNMfS+qyskXhXFxuXLHgMMKR/3hiiq3mnBekoFkhaQFJN3w8Mpz6e9VR2KS/qz1DJkAGa3UAt/jY/ypn0TSZ7q46XuGmtkEVnCSjyYdjvckAffRLDBK2/dCjkb4GSO60wx9Y4mi2yvuAyeFChSQf83HNdFuNNZOjVEsZaLbnv6bOf+96VWtks8emdWzvu95oo0Hn70rZ/LFS4Iw1x0RG55bYf/wC/NSeCKfPugeV3RYMN3piy9Xs0sKxyKMYz5ZU48/tEVxFzpg0/opPGi3xSoWYd8DKt8PtEUjWMN1dRdUZjHvLsQqvLE3C1vqmk3mnt0lDcxBZFyzLuyVzPnnHbsKj2oXV+6DuN7liJe6YmvdVSNLE0XgKmOce6GVsefc0PS406HpnpOGSZPEjuIy3rhCQ3wxkikyO1llvetSSoz4ioMY3ZmP8AwqNNbONO6TjIXLPKSMZHMwJprDBbX7oetssmO806LqnqWZ5YTH7IgYDOPdyG/wDMKh2eoaOnROjWDXMftlvPFK6+agSZP5UlXELtqfV88ZQ/2WdOO+fESkLxplJyoPz7Vbi6eM/X3RXLPo5PoodQaEOpr6+N1F7PLZLGp/xBicY++h2m6nocHQlvHqNvDflnYeA7Fdzby3f5EVRCNMx3vwnPamO+guV6J0po0Q/2i4chhzjjFD6WEat+AjnssL6Y6SAOektPz6mbt+dKd/b2N3qFxLaRQ20UjlkgRshAfKkRZLhmwQvvdvdrZjNDK/ur7rbSUP8AAit2OEcbtfUollT2GybRkOduc+mKB6jpRRTuWjXT+rGeRbW5bcSPq5CMHPoaM3NsJUIZe/wrUpWg0poE9H3jz2z2FwQzwcox7lP+FTtQtAyNjtQqzgaz1+2YA4Ztp+IIpqnTOcDPpTHHimKWlKbHqC2cfZZtp++n8MF90sMj40p3VvtvIH7YcH86bGAzyozUZDhsgXr4EhswqgDcx/KmPprpPUNatGnshB4avsy8wXn76AavHua0by3N/CpWnAi4tyjMo8RcgHA7iq8rlpteg0rZH630m406dLG9CieOVSyhs91zXG1iCIPgKaP0oIG6nuNucCRMcf4KBRKAOO1GKTlFNjcfmZH1CF57CWJTh3ATj0JonZW1roFsryqgOAqAjPPrj4Uy61ZwJYdMtbW0KPLb+JIQPtsCOTQPVLSS90zxm8QTO5AVV/ZH8ea5HV5O5OKvYuitMRN1x2vpXd7qe4bcQhKbFUeYANEuk9D+kJVtktppQ4ZBMMkI3BBA8vjRmy6aklhthtaZ5RuKk4I/pTIf0hWf6MLlLG8sEmZ7cOJCcH7RGMAfA0pSTXbhyymKe82SI+lb+TU9JiaHabWAAuYyMESZP/vyrm3Td7FpWrStF4TTFhvBILHxM/cMcU5Q9etO5lEFiPFXKubr7IceYx3GK43HWKXcHhzWlgYXOWT2rk7h8vLFc+UVT3NcZPwAl0lra601BBbzhInBEinCguDkfEULs+lLqM9R3ccIVpldY3BxzkNnimxerVWTC2mmjcAFJuOEDDB8vhmvIusBDbJFb22niMEF1a6OTu4Pl99QSaW7JNp8IUX6K1T2XS97q8sTySuzPhgzMDlfhW11oN5c33UM6QMXMckaArhTux+JxTiOvlinEPsWnOsgGGE5ITyG4447ZrX9cYwAUs9NwSC5N19oEbeOPvqxxdJ2RTvair4eidVOg6XamJpbgXMrncQV2kDGT8himxumWfV725aOX6yB4mVVyPsgcfHimJOr41kjc2OlYTGwC5+yclTnj45rSLr0SK0fsdgDCR7/ALQyiTBxx7v30Scsjtv+AVR9Cvr79HU970xY2OnQrF4lw0rmTgElAAfypjseir6HXr28x9UqBRtb9nwto/MUxN1kCyKLTTTGAODdnIIOAcY885+6uZ63a1iZvZdLcRjki7Yl9pwBjHc5NGpyWly/gfG6Qq670HdX2gw2doH4ug/A+0CuBn4jNcG6U1O16sWf3EtltVRge4xGVH5g09nr8TqJRZWHhkE7GuShBU8cY8/5VBv+rbiWOePw9JYEEbjdNyFPAHu+eTQ5aVpTIr5nbRWE2h3bdNNa6ZbySSi85kI5bAwD+OKNW/ROoP1Hp95eqY2tLaLcT+0QmCfxpq07qOTTpH2Q6XJEQQY/ajnK4OQcebcUTvetriaN1WHSQ43BpDdkjAwePd8ycD76lGbrd0xyir4K5t/0eM/S1zCgn3XM8ZLYAGQzAfdzTJp/Q15FqullRhbK1RDlefdznn76PP1lOIzHJbaS0SlsILs5JADE9vXitx1hKgfK6Z4h3AsLs7VAG4gcc4PFRcnLZsaVcIUn/Rxs0jU1vb3wknnXMp4xg/8AGtr79HUo1Xp+WzmWW0sl2h0wd218n+NNF/1TFf27w3VvpwiOdwjvTknbuOOPXgVpF1QYI2hiXTgDna3thHhgrk+XfOBQ5tOrCrV0IMf6O9Rt9K1xobuMyXLDavIZSr7ia633Q2qTXuhuoVhBGBKTkknxNxP507R9TqJHElvpYic4kHth3MSuTzjyOBU2PrKV23G30lWbhSLs4jBXJydvlj8TT7kuW/4E1HhIr+PoO8z1C0qSf2kuSwP+PcMD5Vxj6KvhBoa+ySL4DFhkZ/b3fwqxR1mce9b6aoYjxc3Zydyntx5Y/GsHWEku0m207JI2g3R+r3Kc548gPzpd1v1/gNl6CLB+j+8LdQzPI0a3IZd5xgchj91DLf8AQ3JPbRmFlnDDd4qNjv5YOOKss9Xltu620wJIVEha6OCSvPl5YqDbfpVEEaRR6LbLHwBiZue/+H4VdinL0ZCelcoru9/RFqVvHPst92yPKMDyx3DP5VD17p2/bRdIjktnVYmlLBjjK+7jJ+NWxa/pPe+nSCLS7OHxOC8tyyqMg8n3fQUF1j9Io0vKXWl2N4j2/iBVuM7EGRzkcE+nyqyU8mtK7IpR0ttUUe+jX1xLKHgKgEDcowFz2rSfp2S3cePDKIlbyHBHnirXs5otUt0fbHHbsAwXIbaeCAPlUXUL+yS4eIxhpXXAO3g5x2qxddK9LRF9KqtMraz01FumMAbYB4qEjkYYYBp3TTLm4sLq+jj3W1uwWV8j3Se3FTLzSDDdySnYEa1bCA/KiulR/wDMnqDOP7yIYArVg6luLa8gsWnYQ3gUX1s5H2ZAeaMeDJJvMauw7ZVSRXDw83UWewcU92et32jdDWsmnSiORrt1LFd2R99bcuRxS0q7IKNlcXkRWRdwwQwz8KLNIwZgvIz6VG1e5n1C6kurt988rhncDGakuBuPIqz03EMnSKoNZjEukNqieG31YjD7Txzg9qsIRwKcx9ESbh2b2dO/40g9FpO+uKtrfR2T+E+XePfntxjIqxhbahgZ6ngJ7Eeyj/1Vx+qk1kasuitgLr9hDr99Zwah0+1jcSbm9olcx7iBx9kHNdI/0fwqvuxWWB+9LKf4VIu7v2K4tTqXUjXlsxZfCtomVyceq5P51KtNX0OGNvc1CQ5/2njMR8OaoWaUFSY0r9D290ZI7PTttrZXJtVEZRhISAT+zz/GoR07UJLNIzpGnqUOQpti4Az5A1IvOoNL+qSKwkjmLqFeTeF7+ee1eTX1rNCu6CKZD2aOV6w5sjtWWwi2uDtBZXsUm+S0tA2ANyWgG0fOkPrO2tP1ivLq4ijnuVtNrCaBdqjcM4yasERQR26TT2a+LgcQysw/Ajmq86+BV71nsxbRyQEpJ4QBbkdyDn+FRhNudJj01F7FfavNYXljcPHcZjc4MsQ3bT3x8OKF2dlbWdxHcPc3Dhc+66YDcVI0C1lj0WRZY2Q+OThiB+yKBRXlxfdRot3M8qqJFy/OACcYroYsdKUYvZGNtbN+oY1KK0vpAwnmiCKVIVRyfxoj4ttbxxwtudkAXdt5OB581wuoIttx4iqASAQo5zg81FFhaS3c5aAOyzk+fpiqqjKO7dIsppki9itb5QRPNCEU5CqPe/OuNvZQMsSJczEAhcmNe+O5/hXaSwtvFf6hckbsAYwOR2rpbQpFeFoUEbCKTkL27UKfy0n/AADg+TyFYLWSQO0kmMDJQYGOf51pcxwSojeLOu5uF8MHH/scV7caVbTyNJKshZiCTvI/nUc6RY7VUROSftZc8cE+tKMo82/2DTInQrEbIKC+MbQSozz+VQ1sYgMeLNwQP7teDmmnojSNNkivUnT7Dx7d7HAJDZ8/gKZ5NF0oe59XgFW+8ffWPL10cE3Hf9jVj6WU46hFigjcYQu5UfaZQM8/0r1rZQjkp584FMOtdL2Uz25stSaBxICUX7O3ueK8Touzuru4e+1CUoyqERHKAHnPGaj8Tha1ykP4XJdITL+zUzlt0q5wAFRT8vjUaeGGS3WLfcKVcMG2DPftRHVtMt9F6guYLV5GRCmC7Fj2B8z61EuJPFG7cPI9sHNb1ktJxexkcdOzOzXMBIPhvg5x7uP50IvTb3E7yS2V0M8DZJx+AqSrs4XDcDvkduB/Wu8Uh4AIIyfL504/I7FVgZ1slYD2S8HoS59flR+5uLeC1juHCKkvbJxnI+VRLtBNCEk2kMSrY4OMipeqwRJpenIOURlC/D3SKcnGdaiOnTwCb+TT5xHPMHUt7oIlKjHHwre1vrG2hdI/sbifffPPY84+FTZ4kNsEYh2Bzj4cf+/uqLfopWREKkBSO2M8VNOMlpdjcWtyU3g31jH4kbKssmwYYg5wfPHwqOI13EC0uDgdvEP9K906W7azht45bIXHiKySXDhRt8wM+dHmbY5E0mnK3oLtc58hUJJ49o/UcU2LrRbBg2048v70/L0rp7Faj7VreEj92cijbwubkxrBaytjOVm3fmB3rcW9xjIsoCBxzJ/wqt53H8P1H279BauZrPTI/aWsrwBfN5iRny8qZdHgt2F289urq9tlA0Qf09eB86harIltal7yztRFkA7mOAf9NafTLxXV9DDbRMEtQcsT2YZzViUsqTj+92RtRlTLX027W3tLddQ0qAsyK4c7WPbAwE7ffUaTULOPV5nMdukQchWSz95RjsWbPOaHdM6+YdMsILiG0aNowAz26k545BozBdwak+YYdKudxKCCVPCYFeCQex86xO4N7GpVI3udXkjhZ7e9R2MLHwnjUjt27UV0C/N3pC+0dNvLFcYMvg2h2ykE47cGl2bU1t7Z/Z0tQ7wu6p4QfbgevbHw86aOlZdQm0m0nOo6dEXX+79jPujJ/wAWPyq/Dag/zQ5/gjlq1ro72EvidOXFiduRcLYn3D68Gor6f0xLpFtpT6vcKqSGcuVUHcR258qO61dXMWmzvNd6ddRqpzGbdlLfDO6uNudSeKF4+k7TwSoIwkQJGPUmtCySrZ/5KXtzsKmrdL9Mx2csltrcjTohZEOw5Izx+VJ8oCyEHPHwq09aFy+n3Sv0lFGDGffAi93496qm5QCd8Hz9K6nR5JTtSINKg90utq+rJ7bpsupKUfEUcZYg8c8dqf449KCcdIXf32zf1pF6JjvH11fYr2Gzm8F8vKhdSOOOD3qx1i1sAbuorDA5z7O3/qrF1f8AcZJcAgmCLWdPNhocmmXHvjfIWjVxj4g02xPfmLIMIcDA/tLY/wDLS/cvfQXtk191FbT2hLhhE5jYcfHNTGv9JwA2p3THPlcyY/IVjlyP0NNXl1FoVWcW00BdcxpcMWHPfGwfmaj2ySiMNDZRsAcYLyH8OK4ajc6TMI/D1K6jnDrtZrmRlPPYgiu8aWrRc6mzgd9pc/wrFmvUaMXBPjspgqulhCrA5JMbN3+Zquv0hRKt3dspy5tiGi8Laq8+WCc0+W7WkcSYuXlVm4+qkOPnzSF1uha+k8S08ODwiFn8BlEnvDgnzpQbUkyLWzKusr54+njNPO+fatudpcnK9u/5/Cok8VrFq9s9tBMgZJGYsT7xOT50065pw9iji06T2JDKrsY1JydvnmuWk6Fb3uotJdTzyzIu0NkDHrW9dVjjBzszRxyk6B8kpcuQkgyCc8YHfvWLLi5uxChKCQ7txHfbzRu50+1h1ZLGabY0yEo0koUHHlQWSLwbq6VmBV5W57+X/CoQmpRuuSyUXGRzEjtNxExBUAgMK3hmYzlQhCrDJgE58xXOULHOuzkH3vlXQDfPIFHPgsvIxntT2Eb+MwQsYmIAA+155qPDOwYAxliV/f8AnXNTKUVFRtu3J90+vet4o5AoYqcb+TtPoaVRQrb4G7oS4YrqQWMkGWIHODg4am6KUI3MbDJzwAfSkXopliOo+LJFGGkjcF22ns3mPLmmqB/FXdGyse2fFPJrj9bD+raOl08vkSZvdAXGpDfFIq4919qjy7VIGniTeoaQOe3C8cdxmoEUC3d6izRIy4OxmYkBvj92aIm3SytmZY7ZFJBYiRSBVE3SVFsWk9yvOsPFTqa68Tc7e5knGT7g9OKAeIy4yD9le+KYesYzL1DcG0Dy7imDHhhjaKA3drNCF3xuAxCgsOciu/ga0I5Wb7zo8TcIsBGIPP5VIVmX/ZMMMeQRx3qLGJnRMJIQBgYB5rpNOELgjDBsYarHGytGO7YXchHI5OP3qIawcabZ5JADjsPgaFPvlVSiOyLgkgE+eaK6upbSrMpyC4I4+BpNU4hV2DGk9zcjOPmBUW6YsGwzc+eK3O4I65Oc+v3Vp4TZzhiCDwPvqyNWRZ3zi3ySPhz91QNS91FeILvWTByAeKINETbcxvuwONp7ZqBrCTCzDICsgdTux5c1PE7nyKV0HdL1XT7XTg1urxiPO4eGM5861/XG0I+1N/4Z/rQS31vUVtGEnhMynGTD3+JrX6eu/wBy2/8ACFRfSQcm5K/1EsklwwnqHUmk3tuY72MyxEgsrxHGfWiWmaYt5q+qNIsqW0lkPCeNN2TgYApUvOo72K2Z1S1BHrCKcrC6v5JJ1t9P8fdZ7wx7ZIGePhU3CWGK7arn1BPXL5h007pm0i0u2tNQl1GGcKCNkKsCMeuam2uiaTCkOLq7RFLYje2Ck59fe79/xrr0RPq4S1ZdFtWgMaF5JIlL5xzj0olcSdTm5Kx6TpvhLIQA1qNoGe5INc2U5cM1pJOwNeabp8MLEXk8ahGChbfgAj03UxaHaaGNIgL6TdXb7SGm9jch+/oa5al7bJHKy6LbNiMlR7NyWx6elE+nrbWW023k9ss7QkH+z+A/ud+CN2KuwtqDX4jlTdg3W7fRBYy7dFltm28TPaygIfXNTIGs/CgX9abpCVGFWFVUcdsmpHUEGrtplwZb+yuYgpJgEDgv8MhuK4WqXhtrdj0XAYyoyRAgLcerNmrkvl2Iy2OerCH6Pnx1TLLujJ8NkiO74VV84PjNyw+FWdqyP7Dcb+jfCHhn6wRQ+6cd++eKq+4H1zckfd3ro/Z/qV5OOQz0sLU6rF7dYy30XhvhYkZmB4/dp7iGhGNf+bOobvQ28vFJnQ63f02g025gtpfCf35gxBHHHFWUi6+eDrWm7u+PCf8ArWfq/wC6xx4AsMunx6vYDTtGurG7y+DO7Qo3HP2lP5U0Jda0Dhbey482vD/JKC3T6pFd2banrdjLZgtuMTqjLx/iBP4VIa80cnc2t3QPf3Ls/wAhWNveg9D3VrrWDZ7bi0sLiIsuUW7ZmxnvjbWls0/OzTIkXAx9s/wqFqV7ovgx+Dr2oQzFlx9bI4PPbBxXUXVkm4yazeMNvlkfzrHm2luXYuCcvtqxKJbCGN853JHIw7/xxVdddOkVxK2MusJZ4vCZMe8Pnn5U920Vldoskd3dTruI3kswJ+5qRevY4xO+63MSNCVWba6l+RwTk1GFOSYNOnaFHTdTXWbNZBDtKy7cM+7Jx3orBGYWZlQI5OMocUNggt7GNFtYliUtuKp64opHMJOeQcqapztW9HAYFfJ5NYQ31ypuIY5XQe6zjcR8jUs2cWNoZto8jg15b8TvjuM9q77iATjknmsry5OLNscUPBFjsIomZoSUZjyQK8Nvvl2byxPkalBveXBY5zxiucRzdgYH2qFkyNPck4QtHvsskcgjWeQLyuB8BXq2zCNFFxKFOMjNSJAfawfRjWpJynfy/nVbyza5Dtx1HE2xXIWeQDO37qyTTwr+7PJ3HNdieXP+MVvK5L0nkm3yRljigbJCzKInmkeMMMKewPqBWSWgUcMx4ziujHLA/wCIV0mPByTjHlVqnLYg4RBes/2HTjcwguwC+4xx3OKi6az6rCHijfh8YyDhhRHW0D6Ogz3C4P8A3q06Mg8KxgJAzJKzH8cD+FallrA5vlFLheTSuDpJYXQiKTRMIyMEEjsaGHQbNSjvae8OQxYk/jmnDU4zlHGMAYNCrhsW4J9BVOLrMjjaZbLp4p7gzwVSQDfLlR9kyNj8K53d1aWEEcl1IsaE7VLDOTiuszhp3cZwcEGlLqxi9oqlwAt4u3PP+zrodPF5pLUzLmrHwHxq2mlDJ7REVB2khPPvitH1XTwfduFB/wAhpZtDi1nzglpB2XH7Na5wowucHz861Ppop0rKFkbGU6rZkHNyo+aGvEv7aeUxpMsjDkqENL1zvmQIEO9hwB8e1RrI/wBsfc5i75btnntR8PBqxObuhpury1iDCZ1UKOcpUI6tpfnPB/4dBdQ2m0vtspl5HJ70u5I7GrcXSRa3bK5Tpj1JrGkIm57i3C+ZMfFG7Ao7TMoDKbVioCE7u3kKqO/JNo/J8v409aJf+Dqk0c84S3GnLtD52glRzgedPJ0aik4thDJ8xbmjaTYXbWsmpW5srgRKyhLQLkDt2bk1LudF6fFzMntNyssv2l8LuSfL3u9BumNXh002iwRwX8UiL75sGD5xyA+85/CmG81q3kcRQ6favchgZEMXZfLt51y5txfJtikwPdaLpFhDcSQXlwJZY9zARElQB/mwDRXQG0h9MgB0e8uxzmf2aQ7zk+hxQ+/1Bks2eTSbNFKuTmNsHA4PftRTpi8u7jSrdrfUdNtV94i3VZDt5P8AixWjDJuDd+qHNJUka6uujNZShdKvLJiCFna2mURn1JqRZW0CJb7eqXVygPNsMAY9WNdtba/+jro3GoWE8YTLRhZE3D0zk4rjprNLa2/h9Eo8RQNvECtu475J5rQk3G2Vy2N9RgY2cuzqlpcqfdMEfvcdu9Vbc4EzDBOPMVaOoxRC2mH6lNH7hwwtk4OO/eqruyyzspByODzXS+z/AFK58BjpdrBdUjGpW088Gxv7nfuDcfuc4p5VumkfI0rUznzHtFJ3Q3t41oHS5raGYRPnx2IBGR2xVmRt1OMKb/Suf8Ug/lWfq/7rHH7oEtZNFXWLFtPsL60u8tgSuwVhj/H/ACpxja5PJ8MDvkSKaUdd1PVdMvdNXqDU7dbSVnUSW7AsOPVl4rrHrGiOOddvvQ/2gDH/AONY5rcklsGtdt5ZtP8ArbxfB3KdohWQjnvQr6KZoD4V1tyeWeAgYx8BQrWNZ0xIENlq+pi4DrgeOGVueRW66u5t2zeXZ3AHPj44+FYM9J2XY062YatdFgtoYB7V2yzNtkO4n04xVe9VWUMF3czC/wDa8wsns/vr4eGHvYpiHVLx2kPgyLK7Y91rhz2HOcD1pE6nv2d5xFptxHM0LO04kkKtyP3vSp4oa5JRIyk0nbI8iGQr73GQd3J8q6xMsJUGQHccdiOfhmk6W3vtY0QK1+pljn/vFyONvb3ahaboEkOpwvqF7HcRAkCN2fv6gn0rQujg01Oe/gojmaeyLKhuDFKzbGOQfKsfUI1YiXCknOGIBoLbeFaABobdO53m4yCPj738qgavrKSvBaRTWPvyKGCtuJGewB71lXRKcqXBt+IcVdjT9IQZUhsj/MK5R30Kzhyy4zn7QpD1fwEusWgAjHBA9aglqtj9nRatMzy62aZaq6vbe0M7YwST9oVyGqQjbyOMftCqu3VgbkUv/lw8kPj52WmNUhYMVVsZBzkVo2qRAF2Vx88Uuabk6bERx9TRO3wZBkAjHp8KyT6WEOTRHPOdIkC+jcjGTk5HIrpJfI2QEbtiuWpBQFwAPeHaoLkYP30Qwwluh5Jzg6sJuJNR0/wbeMZTCkl1Xsc+Zqbp8E1nDbp4OfD4P1sf/qqttfb+2Jg/7JaGZ+FbV0CnCr2Mr6txfBc93cyyRlRb9z5yp/Wh8sc7wbREvp/fJ/Wqo3cYrAf/AIoj9lxjwyXxrb3LBmVoC0Td+PMH+BNL2q6cdSiki8URFblZMn/IBiu/TLltLXJ3YkkHJ+JofqgglhujeTSxxxXasGjGT9gVowY3jm4p8EMk9aslwaSIIHjW4VmchueccYrz6JlbcBPGf5VJVLW602EhcjkeInDd/MVxtrVYhN4Us7O6bQJAMDmlrbbt7j0VVHv0TN4seZFCAAMUbDUNn0u/hmLW5i8MkkMZOaLzQTmEiOWNif2XWlfU9Ivpgggnt0XzzOBV3Ttze8ivK1FBKbSdRls7gSmEyynI97y/ChbdN34zxF/r/wCFbR6TqUabRdxqPQXNYdO1IHm9T/8Ak1epOL2kirnkj3fTWoPbuiLEWOP2/wDhTHp8apfyRewpeXAsVRouT5Dnj0xS/cadqbQkJeoDkc+00x9PB16qukOHb6NIJIZuQBz7vNDm2rbur/wEY2x20IxwwQJdaVLpv1AEarDKoH+I847VIisLFNQk26kil1B/bGT9/bFGOkLeZrSGT2GHU4fCGZTZShh8AWNFpIppJSzdOW4wwKk2z5PrXHyupOjoQlWwoan4S2KAamssoV1MABJIx/Sp3SK6a+jQrcdPXM5BbMyRytk5Ppx6VLv4ZC80jdMRpwQv1UmTx6ijfSsepNpUPgy2dkMsRbN4pK8nORmrsMl22vxQT3e4J1eLRhZS+BoN7DNt4d4JgAfInJx+NGNNt7k6bbbupo4V8JSIxAp2ccAnPJqfqi6hHp1wbmazmiCHciGRWI/ChFotq9rAf1KMkZQEyGEuW4754rQpXGit7Eu9gu1spQvU0TjY3Hsy88fOqouC3inBGPnVnX0Wnm1f/mZLGdv2vZMbeO+c1WN0mZ32jA7Yz2ro/Z9q7KsjtBXpr6POqp9KNcCHw22+A7qScj93nFPUf6rEcjVCfjNP/Sk/oNtQXW1Oli1abwnBE8pQYyPgas/xup+5+ivuuW4//GqOrX9VjjwLsUminWNPOkw6j7UC+2OeXKnj1ftTT7RqXddPj++6jH8qHXba415ZnWH09bZN58eGSMsvHqwrqZtPOQ/Uk6nPldxD+ArG92SXBz12a++jt13pMU9uGXKrcoxHPf7NQVkg3Iq6VGp24z44H3dq6ajcWvsw9h6mcXBYYE11GVPPI4XJqTBcXGMya1bA47CQf0rHm59/5Lsd1/7/AIIc0eLdBHaojDhgl86hT9wpG6wkkMlxBJepNCsBIgFw7smSOTkCrKS5kaNlGrRO+STicjjy7Liqx63kE95dINscxtGTxfHLCTkf4RRhdzSZGS2bFvTraC2t2TTRGsZbcdp3jOK11C1a4jQTrDKobIDAgA/dS7LYS6Xo5jM4VhN4mYzgEFexqX0PLLJd3RlmkkzGOHYkDmtU8ThGWVSuijH80lAkHSYcZ9ltfuLVyk0kiSB7YQRMrrkKCd3I9ab8D0FCNWJ8WQDeRtiOEUk/3g7AVRh6qU5Uap9PpVtipq0D217LHICDuJGRjIPNQyTRDXCZtTndRIRu/bUgjj0NQPDk/cP4V01wrObP7zo1++sFemOTH2T+FYEf905+VOyNDXpp/wCTYf8Ac/zorbEeIB8P5UJ04EabFnsIsfnUua+gsFE1y2yPtnBPOPhXMyxcrUeTfiaTTYV1Q8Dn9oev86HOeD99R5uodOv5khtpXd2YAe43867P27etVQxyxqpqi3NNTdxFfXz/AGxP92tDM5opr6N7YoCk/VrQsxSfuN+FdbHWhHNmtzM16DWeC57q34V6I3H7JqaohTGbpk50z3toxI/YfGoMd+bnWp7AWvtMT4kQqeScDyqV00wGlt5/WyD86EdJXh0TWLaaK3jmcTBiztyfgD5VSorVNrk0J/dT4Gq6t5lUKlhcSDOeF296jG3uR30y6/GnS368lkiDy2MKbic/2gmukvWh2+7axEYz/emuRLNmi6eP+TesWJraQitDMBltNnA+LAVDFpCWUDR7ZV5JMhXv68Zp01Dq03dsY2swVb92WlmbqVRAH9kUIXZQu7tg45rVhnmavTX6lc8eNbORzWxiwCun2IB/9/u1h05fKxsfz/pUSTqCFzzasP8ALMRUSbVkf7Buoz8J8/xFXqOV8lElBcMJSaahXBsLE/MH/wBNTtLt4hqMkhjVZfZJFJUsPdA+z7vNKM2oRRuks810UB594Gm7QrlZLnfGxANq5UlmXuvH2ealOGSFNkINOWw6dNnSXtLJZ7iXTZGjBEXh3BDHyJyR3o/dGH2mcJ1CFZGwQY5Vwx7etD+kzdG3t3e0h1UCJSJY1nYp/hyTjijkoVjM8vTr47AhZCST6c8fOufmq2zVGwJqEQETSrr0MjSZdSGkHGDgYxwKndMfRraZELmO5u5CTunjlnKnnt2AqJdmKGAwnp9l2jkFpQORRnpabUPoqFbb2Gyj3Ntt3mkJHPfFXdO/kaT8Dmdro6alpL7Kl1BLtJWR5plCn4k8AVpaQ6jJDbM3VlqzeGDs2NIP/Nz86l6o2pewz+1zWjxFDuWOR1JGOwyDQPTzpEllbN+ql04KD3ykshJ+YwD91aY7ryQlsFb6DVEs5W/WG1YbCSPZTyMf5qqS6z47cj76sm9TR3tJP+at4g2kbvZpeDj51W9ygExGCuAOPT8a6XQLdlWR2gt0s+nx6kp1S7nt4tjbGhm8Mk5GfLkU8JcdLlWzq2oEkZI9sJH8KU+g5r+HWx9GwwysYm3LLIqcZHme9WSlz1GBn6PsMHOf7Sn9Kz9Zfdf/AAI1pANqdAk1WxOmS3txON+IpCkgPHqxGKafEnX7OlAqfPdCKFztrz6jYe32FqkI3fXxbJWXj18vnRF4mb/7lcIPIBIR/FaxS2ZOPBC1x2Onf23Ri8G5eUaEsOeDxzUeKSx349hnBI7tKgH8K21OCf2c+xatcGfIO2SO3Kt+QNdlTUgFzerGxUf7SJSTWPNvItg6R0ikgFrIUglBDc5uFH8FxVd/pAuZGaVvaEeFbVsRe0KWU5B5AGasJr2WHT5vH1e3B8i90q4+Zqquqr+0vri78C5MshgIkl9qSRXyQOCBUsSqSfoKT2dFeLe3Go6DJNcurSCXb9nHlUvoRv7Vc/7sfxr3UbKCw0uSG1QhN+45bPOK06G4vLgHyj/nW/K08M9PBnxX3I2O+eKXup3lW3vWt5Xhl9nTbIhIZTv7gijuaXupz/Zb3/cp/wD6Vzei/ur9Df1D+QTLBXRZvEdpHaQkuzElviakZzXKD7Pz5rpXeybyZxjN3zr0E5HNa1nmPnUKF6jbprf8mRf7r+dT0hhuMLcRpIoGcOAR2obpp/5Nh/3X86KWrHxRj09fhXLzOraN+FW1Zve2NnEQ0NrCjArgqo4qNI3H40R1PlO5PK+hoY3b8apxyco/M7LsySlSFvqAn2xDn/ZihefWievf9LT/AHY/nQuuxj+4jm5OTM8n0r0HNeVlWFYzdOFBpvuFiPEfOR50uWTH26Hb28Qfxpg6bb/k5/8AfSUAsgwuYSRx4g/jVMPvzL5cIcLPxXs0HvADJBVBg8/OtmnuEK7DkHvlcAfnQ5LlrK2hJAKO7A47jk1xuuoJUkCwxFlwCST/AErI8M5StI09yKVMJSPIVV1aUDz2ngfgaX9QYtaIR7/10nJz6/OpV3q850sSBVHiEpt3FcfKhglJ0i1btl279+9acOOUVbKck1Lgi5b92td5HfFblyfP8a1bHlj8K0IqImqOTYy49Kb+lbhhrMduZNsA01mA3leduOCvNJupFvYpA2O3kKc+lICNSgvA4CtpzR4LlSDt75APHwqc67e/4hj++WT06LYx2zSXr6XmIZQNcsX+IzwfuotcQD2qSK36kCMy5wxmU8fPtQ3piUyW9iJLAasDGPrVe5bZ8Ps4o9qMERn50QLHggspnB3eXAFcDJ97c3x98AyRZl3kdRRYxyPFdQvFEenU036OUXE91ezFjunjupSvft7poRqJWG3k8fQjtK8/WyDJx27Ud6QudQbSIxYpYWkG9sQSXLls+fZc81bhrQ/0G7sl3S2C2sptRcRzFfcZppcA+p3HFe6fHrRtLXf1JY79nEY3SffwcfhUy9uNQFlP7W1kYdhLrHcPkjzHKUu6fJoBsoCuhXzrtBLjxnP5AD8K0Q3RCfIauodaaFy2u2DDBz9S/p86qS/4un3ZZvMjzqxpn6f8F86FqS5B5MU9VvdlROwUMq+Qz2FdT7PW7K8l0FulWsvpMC/v5bFPDbEkThSxyvHOaekl6dUEt1HfE/8A7hP6UmdES3cesf2HT1vpPCbKOyDaMjn3qsZLnXNvPTltk/8AaQ1R1i/rMIvYFQ/Q76tYfR+q3l1MN58CULIp49eB+NMo89uls/rhYP5mhcx1KTUrEX+gQ28YDbbqOFXKnH+E4/Gi6rICf7Zs9V8BB/E1gnzRNPYFa9sXTf7ZosogLL76Rwkjnjs1cI5dOCxbba+CgdhGn9KIanFKbfFncwSSllzHLCm0jPPZq5RR6rsX3rJTyPdjj4/E1lyq2ieN0jksli1lMrRXKe8eHeNSTVcdbLdAXZkkb2IWreDEZoSU57e7zk1Z6NqCwSiVo3Ic4b6kYqr+tyj3WorG8/tXspEhkaHYSSMYxzUsFKaQ8m8SrNU1JW0SOWB2WP2na2Vx+zUroe/ia9uvEcLiMDc3Geah32i3cehR2jKDI1xvynvDbt7mjGjJb6TaiGGGZmPLv4fLGurm7TwuMd7MOJy1qT9Bm+kLVe9zAPm4oTq81vdpdBZ1MfhIGZPex74rQ6kAc+z3B+UYNaHVByPY7g57nwhWDFg0PUkbZZtSpgK9smsZzEXWRcAqyjGR8vKuGKZL98SqPBkY7QeFBqIztj/osv8AoFa45pNW0Y3BWB1ikZcqjEfAVsIJSRiNvwotvVRxby/+HXnibRkWsv8AoNDyy8C0LyENPUrp0QYEYi8/nRGBwj5Y4GP5VEtcvZphSuR2Iwa2kjYhFGDyCawTak2maIycXYRv7iJ0wrgksKgvnH41xSJ1Zf8ANmuzDkY781Wko7IlOet2xc1yN2u0wpP1Y7UNMMn7jfhTFqTFZxiGRxtHKrkVFLse1rL/AKK6ePI9KM0oJvdgcxSZ+w34VghkP7DfhRYsc82sv+mtS0h4FpKCe2V4qzuMj20iT04CNPfgj696CWx/tceCeHpk0qAw25UuzFpGYlhg8+Q+FB47RluEIWTAb92qoTTlMlJbInXUPiWluh5w7n8zURNPhklk8QyZXH2TiiF5G4tY9u8FXJzsz3qLG8ibyyuSx/6vApKT07MsVXuiJq9ukVjBEhO0S8ZOe9cNSk8OX2aJQsUXYY7k0RvImubaP3XX6zP2ah39sz3Lt4Uhz6Crsc9kpFU1b2Bpkf4fhXniN8PwqUbVv+pl/wBNeNaScYhkHzWrVJFelkC6cm3kBwePSnDpe4dNYggEgSH6PL4L7P2e2QKWrmxmaB9kTbiPNTTJ0rFJHrVpcORGosWjIMnhsDtPniicouJLGvmLC6aNs9lbGTV7jSU2jCJPO5k/xdgPwpkvw0oIh6kljKd2xKPu9KWNCu2ntbIG2OsMqDBi1GUiMehAXGaYrwxRRndoDhBk+5LISTjIAyOa4mdPUb4kHUWuUs5HTXlCyD3SzSA/MZHFTelZtO9gUXl1cXNyHOZUuXC48vsigN5faXMkxbTZf7vDBLokj7mXimnoe5ujoqHTXSC2EjfVT3aBs+fASrsVrG/z/AGybKbJ4JDZyzLPtO1nu2wD/wB6t7A9ReyW+7X9Nzt/u95f/wAvFS7ya+NtN7VLH4ZQg7LnJ7eWVpWsp+l/ZYN+n6m2FILNO/ByfJOKthun7+hGQx3EXUDRv/yvpxyD2WQVTt+pNy24ZbzIqxbibpbwmItNR2gf9dcD+dVvelGuGMZIQ/ZB9K6n2fyyvJsji+rXul3MEmnzmKRwwYhQePSi9h1ZrktzAr6g+1pFB4A7kUs6oSZbX933iT+FMnTL9NJZl9alvUvUk3IsIBXA5HlWvPihpcnG2URk7oM9QdUPo3VchvN89lG/hiEAEcqDnFSh+kfRGxjRUPzgQ/ypE68vodS1aa6tixglmBTcMHG3Hb7qFRDCj4VTHoYSgrtMl3ZJ0i1+ouoLSS30yJdHtALwLMjxxhHUZ+FB4up7O5t5ltLVRPGDgSg4yPI1x1HJPSYVgQLVfu96lCZ5dG6mv7SVAfEcsDjsDyDXKy9LGVeS/uOO46/rgYdFlM8MQnkkKlIkHugY5OaSNa6s1O4vBDtgMW0qpFqoYgkcZGOag6jqE5solMxCI75AIxkn/wCaWpdRulHhpM3hqSw5q/B0cY70Z8nUNui4x05aXNjEPph4PFaNfEWL3YyyFypbPcdqjQ9FCSSND1Ff72EWU8D3jvUtwPPtVVwa1f8AsRtHuJTbNJ4oTd+1jGfzoiOpNVS7t7tdQm9ojUIjB/srjA/nUV0s4PZ7D7sGuCz06YtrmziVNWuEDrEGmSAnZuJzk9geOx9a4w9CGRo1+ndSBYRkqbbk7mIYr6gYH41Wcmu6pClzZrd3KwyHc6+IeSO35nNTrfrHW4BDMl/cZh9xCWzgVGPTTivlY+5AsVeloJbGNBqs4ZlRGlEJyhMm3J9OOagXHRZgtmmTW7+VggdI/Cx4h8TbgH5c0nx9Z6xCLhBcttmPv5x72BWk/WmrH2cvezIbcDwwuBjj/iaUenyRY3kgxwtukFntPaH12/ikKeI0XhZEY8TbyfLjmp9v0naWkcks+tXMqMJNheHglHA93nnIOaRbfrTWtszC9lPtGFfIBOPTtXC61/UbqCK3mu5WSHlBkjGe/P3CieHI9gUoVaLOfpi1UzgX85aISkqIOV2kYyM8ZBzXk/TVoscrjUZNqGUBvB91iuCuDnkkE8VUkev6pHczXEd5cm4uMrI+4+9nvmuUuq6rPaJbTXcxgRt4XxDwe1QXQPyPurwXBP0zaBp1S/maSMSEJ4HvYChgcehyea1l6bsF8Vl1KQxqWVXMXuk+GGUbs4znIqt5utNVlsghlG9ovCeYgB2XsRn5cUKn1nU2sxYtdT+zIQ4j3nAI7H86F0MvUHliWdf9HWc923g65fxsV9yJIcEjwt4bHfBPFZpvR9l4/iJrl9cxkquXjyo3R7hn0O7iq0j6k1cTLKb6cSRx+EGLHhcYxXD6Wv0tDapdXCwu4kKhyMsO2fxq1dPkrTf8Ee5HwWtc9F2l1dQqusalA8gTZEkRBZWQnIB7+8MVH07pPTYzFcya/eyR7o1kDx+6hcMPePkQwx8qQ7XqzXLdo3S+nPgqVQsckD/4qc3W+tqs0fjoFmyXURj0xmo9nIlpslqiWBF03p/1BkvrgLL4RU+BjcGJU455w35c0C0zpKPUzdmfUtTtvZJFWQRLuAUsQWPpg4+6kq86k1yeRZ3v7hZIvdTBwAMeQqNHqmqRo8aXtwqz8yYkPvc55++nDp3Dhic0yyrHo3To7q1Z9evnEm0xqyAiT39jY9ce6R681Kj6e0t8j6QnLxqGlxD/AHWJCr7vlwRVUrqWqQxRL7ZceFA++Mbz7p75r0a9qk0rytfXG+fiQ7vtD40S6aU92xdxXVFi3HRmlrKrz69qMaSqZFwoCsBIVbb6jHIqVZ9Iafardr9KX880JPio0YYx7HAbgf4SCKq25vtQuVQT3U8iwgKm5z7o+FZBqepxO80d7cJJPw77zl/XPrUngm41qDXHwWtddLaWYju1O5RH8RVlCABirchTnk7Dn51ztOi7Cze5U6pqM0iB9yNGCVCEHOPihz8waqj26+aMQNcTsincgLnCt5kVq2paoZ2n9suRKylXfxDlh25oj08kq1A8i8Fp3HR2ke0C6Ot34hdpCpXHhkqQQv3qfx4oH1zA3TW2fp69d79J5LeVJIwGWMrlWA9COCfWkCS6vAohNzOIhyI95wPuqHcz3rsXmmmkf7O5nJP41di6dqScndEJ5FWyGzQ+tNf0xo4ItRvoCAN8QlZcn4gU2f8A1G1+KBvDvLppCAMGViRzyf5VVlt45mEwZ2nJ53HJNHoHlQEm4Cs3f3asyYcT5RUpyH2TrrWLqaGN7x1MigNs7Zz3ORU/pPW7+T6VaW6dnSzaWPAUbW9eBVb2sga/tCzgyb8H0pl0nUhpsl0WhMontmhwCBjI71HH08XCUUtzRHI73O36360oVvbt3+FokYH58U/6V1vqo6fvJt8W2y2hUjUIGyfQdqqCT7HHBFP3TMUF7puq2M19b2hn8Pa8xwMDntWrqenxxhaQoTbbsmT/AKUNYMZ3W8RGOfrGpXuZDJJvbG5wGPPrzXPqTT4tNunt7e+t71dm7xIfs/L8q1zuSMqf2B3+VXYcWOHzQXInJvYgasD4tsCeMN/KsiYAD1Pes1UE+zsPIsK8i4HNaVwVepz1LDLb8c7+33Gvbce6Mdq3vIy9uGTnYwb7q1Q4HFSoFyEdHbbewF2YhHXaCfIGpn6SY2HUdhOUIjlhCq54BIJ/rQhJCjhlbkU4tdWfVWh+w3bRw6hCMwSsONw8vvrl9XglqWSK2WxfH5ouJWiWzSx3AWLxNuQVQ5Pfk4oCmlz3Mj4ilwBweOB8af7TRNXsWmEum3Dbl2FkYMO/BFdl064WKRUtrqNzxlkwCTVfdlHhFPZsQJdOYJDGre8n2iPPmvItOmQPI5GwE8j1zVgLp/h3LhI2Z/DPdORkVxi0nFi0rr7zZUAdj91V9+TXBZ2BW9ktZLgC4uZgzZ7Lkk8flU59MtTEyxiZmyccYGMUWTRpFviEj95UL4bkE5rUWNw0UrSK4RT2AweRjiq5yk+CShXoCLuztLWaNjG7bgMruBHauTwr4iLHGnv4wzDOPhzTAukm5uYBLEYEYAnC+gPOK6RWd0lyyRQb4eBuK5xzj7jS1NbEtAAurJkkjWNdhY8EcZODzWngEuyOGB2ruJPANMWo2N6t3EngMQSMH0FRJNLupzM/hMu0ANk4J5PYUJyIuIAOnMIodi57Y/xVzEDtOyJGSFwp/E0yx6NO8dkrK6AqMEc//FbNo10LllRHJjUktjaDg9/nUlN+qDt2K8tlgAshVmfHB8s1JubfMikcjYVz8jRu50m69kRvAkJDlST5HPP/AM12k0a6NwcRPjZk4wM9uKNT8B2xTW2d7EqqklWIIHlzXWWweO6jWRDuZSFPr8ab7XRiLMlw65kKkPwAfXFSrzSjJeq0MeHAZBkYG3A5Hz5pSyyXoNYfIqnTyYmD/Zw+09s1zbTpIvCadQkbuVLN64/pTbcWRfSRi1xc72yADwMccVqbCaaeFbiGQ/Blypwpx99QjKZJ4xTeKB4iVf3SxXePLit3i2ey4jDQlQMnjnHFF00e5MNyzwSlS3uqoA5+XlRJ9LZZ7GaG1n8LAX4E7fIn76k79COgU106S6gO4eEofaSxzk8fgK6w6AsRV4LhriJcZymNxIPY+nFMS6a4F/KttKG2hFQjuMjk/H41JsYJrUQEWjOkgCkvwBwR3HoTSc58Iaxq9xMe3aSa4CpuXhVXPn8a5pbuUgjjRpGRiDkHHenIWMqLMsNgFmRgRx5Z8/X51wNrebt8ttKv1xyYxtAO4Zz6U9UvAPGKJTEjMv2k7qew5rgVcwnxto4wuz503DSLkXF5HJZOoK5BI5A75rSXRp104FLaQsQ28sOF5qep1wQ7YrvZYzuDEEZyeOM1xNqGYLHuBLnB78Z86dfoeY3Lq9nLtKNnHc4APGe9R49GvWQBbOUuGYHj7Pnj4cetSjOXog7YKt4I42cTII1KERlPdwfXnmoly6YjK73xjcCMYpgudE1AxjwLOSR/Ill/rXGPp7WpziS3jgB4Z5JF7VZGEm7aIOLSogaNaS3+tQqiYWP6x+OwFFLtFScqvZeM0ShjtdBsnt7SYXF7MPrZh2A9BQo8n3q39PjcbkwaqNEedeOO+eM1PuBufLAGo3hGWVEGcsccVImx4pwc44zWhqxLYjy4CNjA4zRKMfUxY4G0edDZTlDle/FE2AUIpPIUD8qTQ47HO4VZ7WUYyVww+7vUFMbeFzU62kCOp7rjHzFcruDwZjtGY295G9RTXAjWBlzh+EYYPyrnLEYHK9x3BHmK8yewFTYJ4pIxDcqfD8iO6n4UwIIJOOTitkcgggkH4VLm06TG63InjPYp3/DvUNoypAZSCPWgAxourR21/E+pi5uLIZ3xxSFWPpimQ9TdKEgHRtS9CGuTSHsbPHetgjN+yx+QrNlwKbu6JqbstC8uYprLS5rFBBbTSwFI35ZBuAOT510iEv01qS71Bjt1OSgwSGI/OoaoG6e6eG094txx2+sFEEUfT2sEr9WbXbxnH2zXBkpK/wBfqa0wWxkGg2kgcAPLtPu8jE45ooiTDqa5iMoZktmYEqMcFTQ5Y2HTFjH3cTkkYOceMtFwpPVt7gEr7I4HB7+7UXq3/UPABaST9UTJ4oA8d0wV5+2TnPpRwC4HWMUPjDi3Zgdgx9oEUEeNv1KKFGZhdOQCO/J/lTBtb9d4GJygtmGQPPC8GpPVuPYEarLO2h6vKsva8mVh51LmEx6rsovFZd9uzDjsMZqNq0Un6u6wvhtua9kwMcng4xU5kc9V6c53Mq23vHGQDs7E0nq+v0EwSjy/QGsSNLnE7LjHqi/0qZcGf6d0CPxvdliZgSO2Ux9+KjRxuentXXwyS1wCgA5PuDt61Omjb6f6ZbHCQ4bj7PuefpzRUvf5DIRklfTeqsynKSkknz93HH8a6M8om6W+vP1g3Y74ymKxbaU6V1SpiYCWQlCVPveXHrzW3hss3ShWNsxoN+VPA2+fp3p3L3+QjWMzLP1P9cwKFWOfP3SK0WWZbPpImYlWkj8u3GOfWuwQi66rzG21sbTzyfhWjxyexdJjY+6KRS6lfeHbv6Ulq+gWjpB466t1EntBDxwRkk+eARUDfOvT3TLeO+DcIAPTDGitvGV1fqQqjbJIQFJH2jz51ANvIOnenI/CbxEulLjacqA3mPKmtVfsDJ1kZl6s1aMzuSkCMG9QDnGKErdzfqBoieK5UXqkDP8AjPejcELHq7WXKMEe2A3Y4Jx60GS2m/UfS4/CfxFu0JXacgbzzjypJS+g9gsTMOt79BMwLWW4N5fbzjj8KCSSTfqPAxmO0XrKQP8AeZo+IWPW91IFcRtZFQ+PdzkcZ7UB9llPQaRGGQyC8JChDnBf0oipbfoJh3MrdcmNbhstYNtPOBls0HvpZ36Q1mUTt/02YMM47yj+lGBC36+QyBG8L2HbvxkA7uBQOSCZuiNWj8GUyyXrMqbDlh4gwQKEpbe/UGwtO88nW9kouGJlspSDjtnANDopp/1W6lPtBwlxOGH72QB/Kissbt1vps0ayeEtk6lyvC/Oh0dtMvSvU8ZhcNJPM0a4OWBwAR60969+Q9SfcNKdf0FGnP1sEpGR2zGorXRr2aJuop5Cs6xXbmSJzxJ9UBivbiOVuoumn2OFjgfexXhPdA5Pl6Vx0uORYeqGaJlEtxIUyv2htxx680lGT8+2G1AH9dNLPfpSxPnkue340u67qsWp3ni2lkmnxBAoijYkZ9ai+w3iqC1vMCPLYa89juCciCbv22GvQY8EYboyOTZGGefOvB2B8v4VNi0y7c48FkHmXG0fnXeOK2sW3yutxMOyLyq/P1rSQ5NYovZbYzS/30gwg/dX1qE3vcdv6U5/o/n0u41a6fWEgnl2AwpNygOeTjz8qj/pA0qK01NLuytxFZXCgho/7vd5gelZfiY93tPknoenUK9nCZrlEUZGdzZPYCpEzlpWIHGfWpKxCxsjvOLicZxjlV8hUHB9a0EKPE4UCpkEkckRtpyfDY+6w7ofUVCHY16G2rQgNru1kt2xIMg9iOzD4VHP5UStbzEfgzqJYT+y3l8R8a3axt5zutJwp/cl8vvpjoGxTPE2UZh8qlLq12o4lzkefNbTaXdqeYXcfvR+8Pyrh7FOePAlH/cNAtwlpGo3FzqlpDO2YpJVVgOOCfUU36nr/TWnajPavpOos8LlWZbjj7uaQYbe8hlSWGOVJY2DIwQ5B9e1dLiC/urh57mOeSZzlmaM+8fwrPlxOclu6JKVIs+DWYLvpHU7vSbee2gjiZAsz723cHIPkKlXM96L3Q4TNhp0ly2zg5UEZ/GgPTdvJ/8ATzVI3V1kO/ahB3HIHYU1TRL9K9PErlUV92P2TsHeuJlhKMml+Jqi9kQUvbtv1mkEqkRFwFx2JjXt6Vze6vBF06PaMrcuDjbn/Y45+8ZqYtqqJ1Twx8RiU4xu+qHb1rnJbk2/SuAwMbpvAHYeGRz6VFxlfHuiR7DcXTa1rANxnwY4zjjB+rIqBb3l6mi9PP44PizxE47ngjk+dFYYQNX15iDtaJNuR9o7T2qBFaSL0504m0iSOeIuuOV796FGfj3QBGO8upertR+sIEcEThSOP2waDRXt4OkrGQXB+suol7c8SY/nR2GPb1ZqLkfVPaRgPngnLZ+/kUJSA/qhp6FH8RLqMldvvYEvfHyo0ztbe6AnxT3f62JE1wSYbRW7YDYb0oL7Ve/qjczrcsAbnbjHIxMfP76YjD/zwaXDeD7Ht3+RO/tQZ7Zz0bcxLE3iG5ZgnmR4uc4+VKMJ7beBE2WS8HVFjbi6PNq7Z8j76t/Oh0l5dHpzX5/aWwJZkAxz9oGjc8SnquwlyDGtrIrNjhTlcD8jQua3Y9L6/CsZEsk8xjUd2BIxihQntt4HZJvGvJNd0eAXGNySvn04BqHJc3TWfVEwnlBR5VCjyyin+VFblN+u6NKD9WkUgdh2UlR3qC1u3sPU6DIeaRygJ+2DGO1NQl492Fms0l48vTtv7U22bcc9sZj7Vul7dm56lmNySYzjHziFdpIMz9MOuB4PEhx9n6vHP31rBARN1JuwFlIMY4w/1eP48UtEvHuw9CCbi7Ol9NqbiTE8kZz5jMW3n8KlwXF2Nc1gm6f6mGP7xsYHHNaJFjTOmV8Mh4ZIzJx9jCkHNS4Yk+mtZdmCxSwxhWOMEgN2p9ufjz9QAyXN3+r3T+65cLPNFnJ5U4Ionb3F3+tF+ntLkW9tDx+9gMKhezsOm9AiYEyQTxF1PcAE5NFYVC9VahMcCKS2RVfIwSC2f40njn4DYAx3d4OlNLl9pb37qJSCe2JD+PejMc9z+tUsXjuDHZKUbvyHzQ72d16RsYTjxo7pGK8ZUCXOfwosoReqZJwymJrMRl8jG7fnFScJ77eQF83l0vRrN7S+72vYQT6TcH86LvLdnq6KA3MgUWbEFf8AODUBrUnpB7f3fGN0z7MgHHi5/hRaRY/1ohmEiG3Fo6F9w4bcMDOfnSeOd7L3sAvyXV1+qeqyG5ZW9pkVgfP6zP41K6v6gj0Y2SXumpqYZWMbySFCgzyMD4mtJLUjpTU7YczPcStGu4ZYFsgihn6R7SS/fT2tMTFEO4KRxwKuw4pSyJSWxGb2dHul9RafrPtlunT9vbOlu8gk8VjjApBN/clQRLJ+J4qZFpepwkmCOaNmXaSrAZHp3rn9CX449mbj4j+tdjFh7cm/QzOTaIb3c0h9+RyMftE4riBuJPc0UGiXnObdlJ82YAfxrddIEbZu7qKMDyU72rQRpgsR7zjHvZwMCm7TtQudL6els78rJDIQ0NvJ7xT4/ChS3drY5NlEXmHHiy8kfIdhQy4meaVnkcsx8yc5quWOMqsaelG13dPcTNJL7zMck1zB47fnWvwHNYPiKmRe57GSY/LmvcZAHbFZWUkI9DZ4/lXqsQOOKyspjO0dzNERsdwB5g13+k7oZ/tEhHzrKygdnn0nd9/Hk/GvfpW8JH9ok+81lZRQWZ9K3uf+kSf6jW/0te5P9pl/1GsrKhS8D1Mz6Xvcc3En+o14NXvjx7TJ89xrKyil4DUz36WvCBm4l5/xHitfpW88riTn/Eaysp0vAamenVLzH9/J2/eNefSd1kf2iUfNiaysopeA1M8+lLr7PjPwe+6vRqd2G5nkB/zVlZRS8BqZ59J3Z/28hHnzWDUroHmd/wAayso28BqZ4dRuSGxNIOP3q9+kbo4zNJ/qrKykq8BqZ59IXP8A10n+qvDf3J7zOfXnvWVlG3gNTPPb7k4HiSev2q1N/cjA8Z+PjWVlLYNTPTfXB5Mz/jXnttwMZlcn51lZT28BqZnt04/2jZ9c14LyYDmR+/bNZWUw1Mw3k5P962fM5rz2ucd5GPnyayso28CcmaG7mx/eN+NYbmU9pCPv71lZT2YtTMNzL5yN+NeNPLxiRvxrKygLZ4Z5D/tCfvrn4jHktmsrKYWzTOeT3PNYDnJx3rKymB6vGeOawH4A1lZQB//Z;" vertex="1" parent="1">
          <mxGeometry x="139.88" y="620.42" width="79.76" height="59.58" as="geometry" />
        </mxCell>
        <mxCell id="SVQWeV-mscCjuDsBFyhi-91" value="" style="shape=image;verticalLabelPosition=bottom;labelBackgroundColor=default;verticalAlign=top;aspect=fixed;imageAspect=0;image=data:image/jpeg,/9j/4AAQSkZJRgABAQEAlgCWAAD/2wBDAAYEBQYFBAYGBQYHBwYIChAKCgkJChQODwwQFxQYGBcUFhYaHSUfGhsjHBYWICwgIyYnKSopGR8tMC0oMCUoKSj/2wBDAQcHBwoIChMKChMoGhYaKCgoKCgoKCgoKCgoKCgoKCgoKCgoKCgoKCgoKCgoKCgoKCgoKCgoKCgoKCgoKCgoKCj/wAARCAD4AUwDASIAAhEBAxEB/8QAHAAAAgIDAQEAAAAAAAAAAAAABQYEBwACAwEI/8QATRAAAgEDAwIDBAYHBQMLAwUAAQIDAAQRBRIhBjETQVEUImFxFSMygZGhBxZCUrHB0SQzYnKSQ3PhJSY0U2OCk7LS8PEXRaJGdJSjs//EABoBAAIDAQEAAAAAAAAAAAAAAAABAgMEBQb/xAAxEQACAgEDAwIDBwUBAQAAAAAAAQIRAxIhMQQTUUHwFCKxBTJhcYGRoSMzwdHh8RX/2gAMAwEAAhEDEQA/ABefdAxXnJOO2PKtlGVyDz3rACQR3zWc6VGmB5Vs5AUse2O58qAdR9T2ejRtGNs92RxGPL50i6jqmu6zC85juPZByfCQ7AP6U7S5IuaRZN1rmm2zYmvYs+YByajP1XopIzepyO+DSB0r01Lr09wFEkjQqG8NCNz59M1M6s6Nm0W3s7kRzJHcZDI+CUYeRI86reeCnoYk5uOqhx/WvRgDi8T8DWv63aQAD7UDngjB4qsrHSZby9gto2CvM4jDN2BJxXTU9Fm07UrmymdXkgcozKODirNUdWj1I9yVXRZ46o0koXW4ynrtNet1PpatjxmJPYbaUNM6akn6Ku9RDMBGzDHke1GpujHTWdMgMj7biB3yB2wB/WssuqhFtFyU2roKt1RpQVi0zHHBO3tWDqbSuAZ2z5DaeaXn6SkXSdcuNx/skjofjhQTXeXo+X2zRo/Fwbndzxge7ml8ZAemfgNHqXSDu+vYBTz7prD1NpPugzsQ3b3TzQL9U38PX2MvNo3b973Aa9PR8m7QAJCfayPLt7hNL4yIlGfgPL1NpXvDx2yp5901q3U+k7l+vYhuxCmgsfSEvtusoXIFttB7c5TNcY+k5TZaA5Zh7U6KOO2VJprrI0FT8DB+s2lBmAnYgckbTxWfrRpIQMJ32t29080Ht+kJJNU1WESkC3jRs/vZB/pUSDpWQ6Ro07OQLmSMAegJPNHxcQqfgZD1LpRJTxm45I2ntWv6zaQUDC4O08D3DQuPo2Ztev7UyH6q2SUHHfJbGfwoenSsrdP6bdBifHnjjx8S+KS6yDHU/AyjqTS923xm3AZ+wa1/WfSfC3G4JUnvsNC16Nn+n7q138x26yZ+bH+lDf1Xm/VyG7LcNciLb6HxMU/i4BU/Azr1HpPIErbj5bTXp6l0ho9xuCFBx9k4oQejpBr/ALMZCB7OZd3yahrdNyfq690rHb7S0eMf9pihdXF8BU/A0nqLSsBfGOe+NprVupNK2k+0EKO52GhL9ITr1DHaByWNu0nbyBH9agP0xMOnL29diFjnePGPMPihdZEKn4GY9R6WHx45yRwNp5rB1LpQUk3LAA4J2nAoTJ0bMvUFnaF8+LA8m4D0xkfnUBul5hoWq3W8/wBnmdCMd8YoXWRFU/Axt1Hpe8KZ2B7j3O4r09SaTtY+0EbTg+6aDz9ITR6zp1sXyZoWfI+Q4qGemJjputzhzi1kdT6YAzR8XCh6Z+BkPUele4PaTk/ZBQ1n6w6Thj7RyvBO08UEfpGcajpMRJInUtkDt7majjpiQW+tOz8WrlTj/ID/ADofVxQtM/AxHqPShtIuSC3AG081o3VGjplXu1BHqpzQb9UZvH0NDIMXY4OMAe5mlTqPTGstaubdmy0ZAz91WY88Zy0kJucVdFgfrVox5F6oB+BrxeqNFHAvU/A1XSaFcPosuphkEEUohK/tEmoHsjg1oUoy4IPLJeha0PUukyEKt8mfVuKKQzwTqGgljlU9tpzVKm0fzBr2F7q1cPBK8bg91OKlQlma5RdhyBgH414CQ2M4BqvtD62ngZYdVUSR9vExyPnT7BNHdQJNbuHiblWByKC2MlLg6H3gcY+VbxQJs+yfurRDyA3fFdFZwMCq5IkdQcKUznnviljrTqD6JtfZ7Vs3UoIz+6PX50wXlwlrbTTSnaiKWOaROldUS41/dqdvFNa3L4feM7FPzpSm4RtKyLe9C3Hp90WS6vIZ/DlYEO6EB+fInjmr+0TT7c6VZ3djZahfW1+oiFvEn1cS4wc47D4k0W0m18Jm0+9aDW1vpQsdnEuY4YP3ifLjz+FCOq+oNP6I06bRum5bk5LGVi+5sn9lfL765GXJLqqVFsILEt9zLPpnROkNW1C4uNSjjtLmPwo7ZGLTRjufe+HlSx1XqGlzaKmj6P7S0JkEsk15LudmHzqtNW1/U9SuZMs8OTgjndn4k0K9juJBl2dj6sSa2YujSlrnK2VTzv7qQ76dbiy1C2ul8N2hkWQLvAzg5xThP1RYzytLddM6NNM5JMkmCx+ZxVMDT5s179HzA+ea05cOPI9UuStZZLZF3T9SaXddN3OniytrCSSJykdsmFLZXHPbnn8Kkz9TaW2pWF7Gfds45UIKZySFxn17Gq8/VNh0zpN0X+tuZogAB2VjiiidFP8ArHcWsjYiitUkfjuTkfxxXJlDBbf5/wCjUpzfoMk+uaWNP160iYkX7SvESnJyoC8+XnUq46j0h7zS5wx22HiA/V9/qsDPr71V8OlZv1VgumIMk12kaccgeJtP5kUZt+jXj6ut7U7dkdssko253Hec0OGBfyGub9Boj17SPB6iVmYm/YNFhOP7sKflyK5HqDR/+Q1b/wC3kGQ7OceFj7/epDPSFx+rlxfF9oFy0W3b2+t20QuOiJR1Db2KPl2tnldsccEf1puODy/3/ANU/A2x9Q6Ss+qzMfdv9mz3O31WD8ua8TXNJTTenIjI3i6e6NMNvbCEffyRSHb9NunTGp3btkeI0CBh2Icc1Nboq5j6gsrVpMh4GmJx5AjP8aNGDyCnN+g5WnU2kpqeoXTkEXkcSfY4BCvu48uSKiQ61pY0rRrRm+ss5IHf3OcAnd8+McUkXHTLNousXgcLFFPKqKB3wePyohcdFTrq2lWqyASTxSsxI7Abcfzo0YF7/AFKfgd26m0aHX7+9Vy1vcRQxDKE9mbdx6gGhaazpn0Np2nliHtZoZm48hKWbB+VKsHSckOm6/c3GCtsZIxkftbQQfzqXc9HyY0W13ASziR9xHO3YCBSUcC8/wDgap+Bth6o0ga1cag2TG9ukOAnGRIc8f5TUE6zpZ0GPTy2JI7gT9uceNuxn/LS3J0izz6/KAogtCwwOMkRA/xrjJ0hKs2iRB8y3QJz6DZn+tGnAGqb9B4/WjRzrv0gGBj8EwFdnGfEz2+VQH1vS/oKTT45W8Vp2mBK+Rm3Dn/LmlK66TZY9ekRiI7MquO+TsB/jWrdIzhunvfBN92x+yNhNSUMC298C1T8D7L1RpJ1tdRDAhYJIXHh+ZdSP/xBodJrOknQtQ01Sd08sssbAc+84I/LNL0fR+y81fdIfCtVUvnzJQn+NQz0lMtvoDeICbxlwAOACuaioYPp/seua9B9ueqNHfXINQQfVwQzRMu3vkjb/A1Cn1rSvonVrKEndeSyyR5XyONoznjzpOTpOdpNbHiAmzQE+734P9K2TpGRtK0OZ5gJL2RAgI9akoYPf7i1z8D1P1NpD6vaXiDKWsMiY2dyVXGfvBFRH1rSjpus24bMl9LI8fu+qAD8+KWP1LuBqWpxiQEwW6SkhfXdx+VQ7XpKWbQdMvPEx48kaqO/c4pLHgpb+P8AYOc/A9y9SaSdQ06dQdlkrK4wRnMWOef3uK1TXNGax19C7D29t8WF9YwP40np0bMdb1S1MmDBAj529wc9/wAKhw9KXD6Dpl2HG24mRB974prHgfL98hrm/Qf5Ne0h59Bl3NmxUiYYz/syO3zqHfdUadJcPLFoekXKsFIlmjXceBnvS+nQ1wdeubMTDfHbLJnHqx/pQi96TuIek2vmZSVdlK/J8U4Q6dyT5/6JynXAxa3r0OqaQ+nRWGn2UTOJMwMAMj4YpZ9hi/6yP/WKVzpshPYfhWv0c+OQK62PFHEqiqMrySk7aGs6XuH1eH/ynNRZ9NYKTgcUAjjurZt8EsiEfutTDo/UAlkW21ZFVm4EwGB99WAmnyC7mxGDxipPTusTaHchHy9m599P3fiKZ7zT1ZcqAc0uX9jsJ900A41uiy4ZFkhSSIhkcbgfhUlM7eNv30o9DagXhfT5R70I3Jz5elNXfkdvlUJGhO0AevJjHo4hizmZwvHp3ov0P+j+Cezs5bzWEtNQv4zJaWvh7ty+W4+RJoT1lD4i2a/9ocn7qPNrclxY6QPZljvNPXatyjcuoxtBHwxVGfuNJQIpJvcY9Ckfo3o3WtSmYw3Ez+yoh8iudxPy7VR0F5LqfUUV7dySJCJAPd5Kpnn51aX6Zuqhr/TmnwW4KsWBnULtAc9x8eB3+NI+h6YERWYc4zUMGNyg3PlhkdySXBb02n2Q06e51eW3n6fu1WK2gtY900rkD3s+TCkPq3pK10bWntLWSR4jGki+Lw6gj7Jx5ijfTXUd909FMlq0b27jd4cy5VG/fHoRSHq+o6j1DfytA8rq7kmQ/akPmfl6VRjhLppNyexZOpLZBTRrLTrbUYZNTt/a7VT9ZCsmwsPnTV7R0Of/ANMXOPhdnn86Q26N1OKya7nMEMCclpX5+4dz91AjaztcLDbENvbarN7oJ+GacpxyvVbIJuG1F4anc6NJpuhCyWO3t/Fi8OJm3FAko3An7xWC4sB1DrEokgG2ELIC5wNsp3Efcarr6KvWt+l7Zol3xNI8gDA95wO/3V3bS9Ra/wCspzbv4UkUvhlRk4aXFYe1jutXuy9TlXA4XL2CdLaXGZocm6LjJ5G2dWP3Y5orJPYjqvVZBNArraSKeSApU5OPPOOaqe8s5YtE6bt33nfNPuyOeZVH86JpbXl11R1ZPFEzQJazqGz+0SoA/jTeGDTdgsjVDur6anQc8TXERZr1yvvc/wB9vx6H3eaIvcWC9dzSrNDmOydSNxwDhW49DiqgvLe5j6Y0W3WGR5pr6Y7O+73YxTFPayDrHXbr3QsdtcDGDwREAKjLFDm/ILIw3I9g3Q8qNJGxe/cqc85J3D7setM99cac/VdkUnt2ZbCaMqCe5CsPyFU9NFNb9GQRSJHve/dsnsR4XHP30fmtJ4uumlGwxwWjN7p+zi3Ix+dEsUeLDW0HHfT5Ojb+KOWE7rp9uD5smR/Ojz3Onv1lpriSFm9nKqN52tuT3flmqaKzW/6P5JDKrSy6j2HG3EXAP4/nTZp+ltP1npsrXAQ20FuBFsJL4gBznyAqU8MI7t+RRm3sM2q3OmzdMdQ+BLEyXN5mMhjnlFx8xwamGfTpOqdAaOaLK2wwC5wQyHGR9x5qqpLOa16FlVjtZ9RQ8+Y8Fz/E0bsrSRusdEIUMsFjGDx/2T/1pdqHN+SWtrYZBc2D9M9WtHcKWuLlvCyx3e8oCY/A0QE9g2vdNFZoCREoUEnJBjdRn/velVhaWk6dF6kwA3SXUAC+hAJx+dToop4urujoJCAyW1sXHxwWNNYIv190J5WuRwiuNMfS+qyskXhXFxuXLHgMMKR/3hiiq3mnBekoFkhaQFJN3w8Mpz6e9VR2KS/qz1DJkAGa3UAt/jY/ypn0TSZ7q46XuGmtkEVnCSjyYdjvckAffRLDBK2/dCjkb4GSO60wx9Y4mi2yvuAyeFChSQf83HNdFuNNZOjVEsZaLbnv6bOf+96VWtks8emdWzvu95oo0Hn70rZ/LFS4Iw1x0RG55bYf/wC/NSeCKfPugeV3RYMN3piy9Xs0sKxyKMYz5ZU48/tEVxFzpg0/opPGi3xSoWYd8DKt8PtEUjWMN1dRdUZjHvLsQqvLE3C1vqmk3mnt0lDcxBZFyzLuyVzPnnHbsKj2oXV+6DuN7liJe6YmvdVSNLE0XgKmOce6GVsefc0PS406HpnpOGSZPEjuIy3rhCQ3wxkikyO1llvetSSoz4ioMY3ZmP8AwqNNbONO6TjIXLPKSMZHMwJprDBbX7oetssmO806LqnqWZ5YTH7IgYDOPdyG/wDMKh2eoaOnROjWDXMftlvPFK6+agSZP5UlXELtqfV88ZQ/2WdOO+fESkLxplJyoPz7Vbi6eM/X3RXLPo5PoodQaEOpr6+N1F7PLZLGp/xBicY++h2m6nocHQlvHqNvDflnYeA7Fdzby3f5EVRCNMx3vwnPamO+guV6J0po0Q/2i4chhzjjFD6WEat+AjnssL6Y6SAOektPz6mbt+dKd/b2N3qFxLaRQ20UjlkgRshAfKkRZLhmwQvvdvdrZjNDK/ur7rbSUP8AAit2OEcbtfUollT2GybRkOduc+mKB6jpRRTuWjXT+rGeRbW5bcSPq5CMHPoaM3NsJUIZe/wrUpWg0poE9H3jz2z2FwQzwcox7lP+FTtQtAyNjtQqzgaz1+2YA4Ztp+IIpqnTOcDPpTHHimKWlKbHqC2cfZZtp++n8MF90sMj40p3VvtvIH7YcH86bGAzyozUZDhsgXr4EhswqgDcx/KmPprpPUNatGnshB4avsy8wXn76AavHua0by3N/CpWnAi4tyjMo8RcgHA7iq8rlpteg0rZH630m406dLG9CieOVSyhs91zXG1iCIPgKaP0oIG6nuNucCRMcf4KBRKAOO1GKTlFNjcfmZH1CF57CWJTh3ATj0JonZW1roFsryqgOAqAjPPrj4Uy61ZwJYdMtbW0KPLb+JIQPtsCOTQPVLSS90zxm8QTO5AVV/ZH8ea5HV5O5OKvYuitMRN1x2vpXd7qe4bcQhKbFUeYANEuk9D+kJVtktppQ4ZBMMkI3BBA8vjRmy6aklhthtaZ5RuKk4I/pTIf0hWf6MLlLG8sEmZ7cOJCcH7RGMAfA0pSTXbhyymKe82SI+lb+TU9JiaHabWAAuYyMESZP/vyrm3Td7FpWrStF4TTFhvBILHxM/cMcU5Q9etO5lEFiPFXKubr7IceYx3GK43HWKXcHhzWlgYXOWT2rk7h8vLFc+UVT3NcZPwAl0lra601BBbzhInBEinCguDkfEULs+lLqM9R3ccIVpldY3BxzkNnimxerVWTC2mmjcAFJuOEDDB8vhmvIusBDbJFb22niMEF1a6OTu4Pl99QSaW7JNp8IUX6K1T2XS97q8sTySuzPhgzMDlfhW11oN5c33UM6QMXMckaArhTux+JxTiOvlinEPsWnOsgGGE5ITyG4447ZrX9cYwAUs9NwSC5N19oEbeOPvqxxdJ2RTvair4eidVOg6XamJpbgXMrncQV2kDGT8himxumWfV725aOX6yB4mVVyPsgcfHimJOr41kjc2OlYTGwC5+yclTnj45rSLr0SK0fsdgDCR7/ALQyiTBxx7v30Scsjtv+AVR9Cvr79HU970xY2OnQrF4lw0rmTgElAAfypjseir6HXr28x9UqBRtb9nwto/MUxN1kCyKLTTTGAODdnIIOAcY885+6uZ63a1iZvZdLcRjki7Yl9pwBjHc5NGpyWly/gfG6Qq670HdX2gw2doH4ug/A+0CuBn4jNcG6U1O16sWf3EtltVRge4xGVH5g09nr8TqJRZWHhkE7GuShBU8cY8/5VBv+rbiWOePw9JYEEbjdNyFPAHu+eTQ5aVpTIr5nbRWE2h3bdNNa6ZbySSi85kI5bAwD+OKNW/ROoP1Hp95eqY2tLaLcT+0QmCfxpq07qOTTpH2Q6XJEQQY/ajnK4OQcebcUTvetriaN1WHSQ43BpDdkjAwePd8ycD76lGbrd0xyir4K5t/0eM/S1zCgn3XM8ZLYAGQzAfdzTJp/Q15FqullRhbK1RDlefdznn76PP1lOIzHJbaS0SlsILs5JADE9vXitx1hKgfK6Z4h3AsLs7VAG4gcc4PFRcnLZsaVcIUn/Rxs0jU1vb3wknnXMp4xg/8AGtr79HUo1Xp+WzmWW0sl2h0wd218n+NNF/1TFf27w3VvpwiOdwjvTknbuOOPXgVpF1QYI2hiXTgDna3thHhgrk+XfOBQ5tOrCrV0IMf6O9Rt9K1xobuMyXLDavIZSr7ia633Q2qTXuhuoVhBGBKTkknxNxP507R9TqJHElvpYic4kHth3MSuTzjyOBU2PrKV23G30lWbhSLs4jBXJydvlj8TT7kuW/4E1HhIr+PoO8z1C0qSf2kuSwP+PcMD5Vxj6KvhBoa+ySL4DFhkZ/b3fwqxR1mce9b6aoYjxc3Zydyntx5Y/GsHWEku0m207JI2g3R+r3Kc548gPzpd1v1/gNl6CLB+j+8LdQzPI0a3IZd5xgchj91DLf8AQ3JPbRmFlnDDd4qNjv5YOOKss9Xltu620wJIVEha6OCSvPl5YqDbfpVEEaRR6LbLHwBiZue/+H4VdinL0ZCelcoru9/RFqVvHPst92yPKMDyx3DP5VD17p2/bRdIjktnVYmlLBjjK+7jJ+NWxa/pPe+nSCLS7OHxOC8tyyqMg8n3fQUF1j9Io0vKXWl2N4j2/iBVuM7EGRzkcE+nyqyU8mtK7IpR0ttUUe+jX1xLKHgKgEDcowFz2rSfp2S3cePDKIlbyHBHnirXs5otUt0fbHHbsAwXIbaeCAPlUXUL+yS4eIxhpXXAO3g5x2qxddK9LRF9KqtMraz01FumMAbYB4qEjkYYYBp3TTLm4sLq+jj3W1uwWV8j3Se3FTLzSDDdySnYEa1bCA/KiulR/wDMnqDOP7yIYArVg6luLa8gsWnYQ3gUX1s5H2ZAeaMeDJJvMauw7ZVSRXDw83UWewcU92et32jdDWsmnSiORrt1LFd2R99bcuRxS0q7IKNlcXkRWRdwwQwz8KLNIwZgvIz6VG1e5n1C6kurt988rhncDGakuBuPIqz03EMnSKoNZjEukNqieG31YjD7Txzg9qsIRwKcx9ESbh2b2dO/40g9FpO+uKtrfR2T+E+XePfntxjIqxhbahgZ6ngJ7Eeyj/1Vx+qk1kasuitgLr9hDr99Zwah0+1jcSbm9olcx7iBx9kHNdI/0fwqvuxWWB+9LKf4VIu7v2K4tTqXUjXlsxZfCtomVyceq5P51KtNX0OGNvc1CQ5/2njMR8OaoWaUFSY0r9D290ZI7PTttrZXJtVEZRhISAT+zz/GoR07UJLNIzpGnqUOQpti4Az5A1IvOoNL+qSKwkjmLqFeTeF7+ee1eTX1rNCu6CKZD2aOV6w5sjtWWwi2uDtBZXsUm+S0tA2ANyWgG0fOkPrO2tP1ivLq4ijnuVtNrCaBdqjcM4yasERQR26TT2a+LgcQysw/Ajmq86+BV71nsxbRyQEpJ4QBbkdyDn+FRhNudJj01F7FfavNYXljcPHcZjc4MsQ3bT3x8OKF2dlbWdxHcPc3Dhc+66YDcVI0C1lj0WRZY2Q+OThiB+yKBRXlxfdRot3M8qqJFy/OACcYroYsdKUYvZGNtbN+oY1KK0vpAwnmiCKVIVRyfxoj4ttbxxwtudkAXdt5OB581wuoIttx4iqASAQo5zg81FFhaS3c5aAOyzk+fpiqqjKO7dIsppki9itb5QRPNCEU5CqPe/OuNvZQMsSJczEAhcmNe+O5/hXaSwtvFf6hckbsAYwOR2rpbQpFeFoUEbCKTkL27UKfy0n/AADg+TyFYLWSQO0kmMDJQYGOf51pcxwSojeLOu5uF8MHH/scV7caVbTyNJKshZiCTvI/nUc6RY7VUROSftZc8cE+tKMo82/2DTInQrEbIKC+MbQSozz+VQ1sYgMeLNwQP7teDmmnojSNNkivUnT7Dx7d7HAJDZ8/gKZ5NF0oe59XgFW+8ffWPL10cE3Hf9jVj6WU46hFigjcYQu5UfaZQM8/0r1rZQjkp584FMOtdL2Uz25stSaBxICUX7O3ueK8Touzuru4e+1CUoyqERHKAHnPGaj8Tha1ykP4XJdITL+zUzlt0q5wAFRT8vjUaeGGS3WLfcKVcMG2DPftRHVtMt9F6guYLV5GRCmC7Fj2B8z61EuJPFG7cPI9sHNb1ktJxexkcdOzOzXMBIPhvg5x7uP50IvTb3E7yS2V0M8DZJx+AqSrs4XDcDvkduB/Wu8Uh4AIIyfL504/I7FVgZ1slYD2S8HoS59flR+5uLeC1juHCKkvbJxnI+VRLtBNCEk2kMSrY4OMipeqwRJpenIOURlC/D3SKcnGdaiOnTwCb+TT5xHPMHUt7oIlKjHHwre1vrG2hdI/sbifffPPY84+FTZ4kNsEYh2Bzj4cf+/uqLfopWREKkBSO2M8VNOMlpdjcWtyU3g31jH4kbKssmwYYg5wfPHwqOI13EC0uDgdvEP9K906W7azht45bIXHiKySXDhRt8wM+dHmbY5E0mnK3oLtc58hUJJ49o/UcU2LrRbBg2048v70/L0rp7Faj7VreEj92cijbwubkxrBaytjOVm3fmB3rcW9xjIsoCBxzJ/wqt53H8P1H279BauZrPTI/aWsrwBfN5iRny8qZdHgt2F289urq9tlA0Qf09eB86harIltal7yztRFkA7mOAf9NafTLxXV9DDbRMEtQcsT2YZzViUsqTj+92RtRlTLX027W3tLddQ0qAsyK4c7WPbAwE7ffUaTULOPV5nMdukQchWSz95RjsWbPOaHdM6+YdMsILiG0aNowAz26k545BozBdwak+YYdKudxKCCVPCYFeCQex86xO4N7GpVI3udXkjhZ7e9R2MLHwnjUjt27UV0C/N3pC+0dNvLFcYMvg2h2ykE47cGl2bU1t7Z/Z0tQ7wu6p4QfbgevbHw86aOlZdQm0m0nOo6dEXX+79jPujJ/wAWPyq/Dag/zQ5/gjlq1ro72EvidOXFiduRcLYn3D68Gor6f0xLpFtpT6vcKqSGcuVUHcR258qO61dXMWmzvNd6ddRqpzGbdlLfDO6uNudSeKF4+k7TwSoIwkQJGPUmtCySrZ/5KXtzsKmrdL9Mx2csltrcjTohZEOw5Izx+VJ8oCyEHPHwq09aFy+n3Sv0lFGDGffAi93496qm5QCd8Hz9K6nR5JTtSINKg90utq+rJ7bpsupKUfEUcZYg8c8dqf449KCcdIXf32zf1pF6JjvH11fYr2Gzm8F8vKhdSOOOD3qx1i1sAbuorDA5z7O3/qrF1f8AcZJcAgmCLWdPNhocmmXHvjfIWjVxj4g02xPfmLIMIcDA/tLY/wDLS/cvfQXtk191FbT2hLhhE5jYcfHNTGv9JwA2p3THPlcyY/IVjlyP0NNXl1FoVWcW00BdcxpcMWHPfGwfmaj2ySiMNDZRsAcYLyH8OK4ajc6TMI/D1K6jnDrtZrmRlPPYgiu8aWrRc6mzgd9pc/wrFmvUaMXBPjspgqulhCrA5JMbN3+Zquv0hRKt3dspy5tiGi8Laq8+WCc0+W7WkcSYuXlVm4+qkOPnzSF1uha+k8S08ODwiFn8BlEnvDgnzpQbUkyLWzKusr54+njNPO+fatudpcnK9u/5/Cok8VrFq9s9tBMgZJGYsT7xOT50065pw9iji06T2JDKrsY1JydvnmuWk6Fb3uotJdTzyzIu0NkDHrW9dVjjBzszRxyk6B8kpcuQkgyCc8YHfvWLLi5uxChKCQ7txHfbzRu50+1h1ZLGabY0yEo0koUHHlQWSLwbq6VmBV5W57+X/CoQmpRuuSyUXGRzEjtNxExBUAgMK3hmYzlQhCrDJgE58xXOULHOuzkH3vlXQDfPIFHPgsvIxntT2Eb+MwQsYmIAA+155qPDOwYAxliV/f8AnXNTKUVFRtu3J90+vet4o5AoYqcb+TtPoaVRQrb4G7oS4YrqQWMkGWIHODg4am6KUI3MbDJzwAfSkXopliOo+LJFGGkjcF22ns3mPLmmqB/FXdGyse2fFPJrj9bD+raOl08vkSZvdAXGpDfFIq4919qjy7VIGniTeoaQOe3C8cdxmoEUC3d6izRIy4OxmYkBvj92aIm3SytmZY7ZFJBYiRSBVE3SVFsWk9yvOsPFTqa68Tc7e5knGT7g9OKAeIy4yD9le+KYesYzL1DcG0Dy7imDHhhjaKA3drNCF3xuAxCgsOciu/ga0I5Wb7zo8TcIsBGIPP5VIVmX/ZMMMeQRx3qLGJnRMJIQBgYB5rpNOELgjDBsYarHGytGO7YXchHI5OP3qIawcabZ5JADjsPgaFPvlVSiOyLgkgE+eaK6upbSrMpyC4I4+BpNU4hV2DGk9zcjOPmBUW6YsGwzc+eK3O4I65Oc+v3Vp4TZzhiCDwPvqyNWRZ3zi3ySPhz91QNS91FeILvWTByAeKINETbcxvuwONp7ZqBrCTCzDICsgdTux5c1PE7nyKV0HdL1XT7XTg1urxiPO4eGM5861/XG0I+1N/4Z/rQS31vUVtGEnhMynGTD3+JrX6eu/wBy2/8ACFRfSQcm5K/1EsklwwnqHUmk3tuY72MyxEgsrxHGfWiWmaYt5q+qNIsqW0lkPCeNN2TgYApUvOo72K2Z1S1BHrCKcrC6v5JJ1t9P8fdZ7wx7ZIGePhU3CWGK7arn1BPXL5h007pm0i0u2tNQl1GGcKCNkKsCMeuam2uiaTCkOLq7RFLYje2Ck59fe79/xrr0RPq4S1ZdFtWgMaF5JIlL5xzj0olcSdTm5Kx6TpvhLIQA1qNoGe5INc2U5cM1pJOwNeabp8MLEXk8ahGChbfgAj03UxaHaaGNIgL6TdXb7SGm9jch+/oa5al7bJHKy6LbNiMlR7NyWx6elE+nrbWW023k9ss7QkH+z+A/ud+CN2KuwtqDX4jlTdg3W7fRBYy7dFltm28TPaygIfXNTIGs/CgX9abpCVGFWFVUcdsmpHUEGrtplwZb+yuYgpJgEDgv8MhuK4WqXhtrdj0XAYyoyRAgLcerNmrkvl2Iy2OerCH6Pnx1TLLujJ8NkiO74VV84PjNyw+FWdqyP7Dcb+jfCHhn6wRQ+6cd++eKq+4H1zckfd3ro/Z/qV5OOQz0sLU6rF7dYy30XhvhYkZmB4/dp7iGhGNf+bOobvQ28vFJnQ63f02g025gtpfCf35gxBHHHFWUi6+eDrWm7u+PCf8ArWfq/wC6xx4AsMunx6vYDTtGurG7y+DO7Qo3HP2lP5U0Jda0Dhbey482vD/JKC3T6pFd2banrdjLZgtuMTqjLx/iBP4VIa80cnc2t3QPf3Ls/wAhWNveg9D3VrrWDZ7bi0sLiIsuUW7ZmxnvjbWls0/OzTIkXAx9s/wqFqV7ovgx+Dr2oQzFlx9bI4PPbBxXUXVkm4yazeMNvlkfzrHm2luXYuCcvtqxKJbCGN853JHIw7/xxVdddOkVxK2MusJZ4vCZMe8Pnn5U920Vldoskd3dTruI3kswJ+5qRevY4xO+63MSNCVWba6l+RwTk1GFOSYNOnaFHTdTXWbNZBDtKy7cM+7Jx3orBGYWZlQI5OMocUNggt7GNFtYliUtuKp64opHMJOeQcqapztW9HAYFfJ5NYQ31ypuIY5XQe6zjcR8jUs2cWNoZto8jg15b8TvjuM9q77iATjknmsry5OLNscUPBFjsIomZoSUZjyQK8Nvvl2byxPkalBveXBY5zxiucRzdgYH2qFkyNPck4QtHvsskcgjWeQLyuB8BXq2zCNFFxKFOMjNSJAfawfRjWpJynfy/nVbyza5Dtx1HE2xXIWeQDO37qyTTwr+7PJ3HNdieXP+MVvK5L0nkm3yRljigbJCzKInmkeMMMKewPqBWSWgUcMx4ziujHLA/wCIV0mPByTjHlVqnLYg4RBes/2HTjcwguwC+4xx3OKi6az6rCHijfh8YyDhhRHW0D6Ogz3C4P8A3q06Mg8KxgJAzJKzH8cD+FallrA5vlFLheTSuDpJYXQiKTRMIyMEEjsaGHQbNSjvae8OQxYk/jmnDU4zlHGMAYNCrhsW4J9BVOLrMjjaZbLp4p7gzwVSQDfLlR9kyNj8K53d1aWEEcl1IsaE7VLDOTiuszhp3cZwcEGlLqxi9oqlwAt4u3PP+zrodPF5pLUzLmrHwHxq2mlDJ7REVB2khPPvitH1XTwfduFB/wAhpZtDi1nzglpB2XH7Na5wowucHz861Ppop0rKFkbGU6rZkHNyo+aGvEv7aeUxpMsjDkqENL1zvmQIEO9hwB8e1RrI/wBsfc5i75btnntR8PBqxObuhpury1iDCZ1UKOcpUI6tpfnPB/4dBdQ2m0vtspl5HJ70u5I7GrcXSRa3bK5Tpj1JrGkIm57i3C+ZMfFG7Ao7TMoDKbVioCE7u3kKqO/JNo/J8v409aJf+Dqk0c84S3GnLtD52glRzgedPJ0aik4thDJ8xbmjaTYXbWsmpW5srgRKyhLQLkDt2bk1LudF6fFzMntNyssv2l8LuSfL3u9BumNXh002iwRwX8UiL75sGD5xyA+85/CmG81q3kcRQ6favchgZEMXZfLt51y5txfJtikwPdaLpFhDcSQXlwJZY9zARElQB/mwDRXQG0h9MgB0e8uxzmf2aQ7zk+hxQ+/1Bks2eTSbNFKuTmNsHA4PftRTpi8u7jSrdrfUdNtV94i3VZDt5P8AixWjDJuDd+qHNJUka6uujNZShdKvLJiCFna2mURn1JqRZW0CJb7eqXVygPNsMAY9WNdtba/+jro3GoWE8YTLRhZE3D0zk4rjprNLa2/h9Eo8RQNvECtu475J5rQk3G2Vy2N9RgY2cuzqlpcqfdMEfvcdu9Vbc4EzDBOPMVaOoxRC2mH6lNH7hwwtk4OO/eqruyyzspByODzXS+z/AFK58BjpdrBdUjGpW088Gxv7nfuDcfuc4p5VumkfI0rUznzHtFJ3Q3t41oHS5raGYRPnx2IBGR2xVmRt1OMKb/Suf8Ug/lWfq/7rHH7oEtZNFXWLFtPsL60u8tgSuwVhj/H/ACpxja5PJ8MDvkSKaUdd1PVdMvdNXqDU7dbSVnUSW7AsOPVl4rrHrGiOOddvvQ/2gDH/AONY5rcklsGtdt5ZtP8ArbxfB3KdohWQjnvQr6KZoD4V1tyeWeAgYx8BQrWNZ0xIENlq+pi4DrgeOGVueRW66u5t2zeXZ3AHPj44+FYM9J2XY062YatdFgtoYB7V2yzNtkO4n04xVe9VWUMF3czC/wDa8wsns/vr4eGHvYpiHVLx2kPgyLK7Y91rhz2HOcD1pE6nv2d5xFptxHM0LO04kkKtyP3vSp4oa5JRIyk0nbI8iGQr73GQd3J8q6xMsJUGQHccdiOfhmk6W3vtY0QK1+pljn/vFyONvb3ahaboEkOpwvqF7HcRAkCN2fv6gn0rQujg01Oe/gojmaeyLKhuDFKzbGOQfKsfUI1YiXCknOGIBoLbeFaABobdO53m4yCPj738qgavrKSvBaRTWPvyKGCtuJGewB71lXRKcqXBt+IcVdjT9IQZUhsj/MK5R30Kzhyy4zn7QpD1fwEusWgAjHBA9aglqtj9nRatMzy62aZaq6vbe0M7YwST9oVyGqQjbyOMftCqu3VgbkUv/lw8kPj52WmNUhYMVVsZBzkVo2qRAF2Vx88Uuabk6bERx9TRO3wZBkAjHp8KyT6WEOTRHPOdIkC+jcjGTk5HIrpJfI2QEbtiuWpBQFwAPeHaoLkYP30Qwwluh5Jzg6sJuJNR0/wbeMZTCkl1Xsc+Zqbp8E1nDbp4OfD4P1sf/qqttfb+2Jg/7JaGZ+FbV0CnCr2Mr6txfBc93cyyRlRb9z5yp/Wh8sc7wbREvp/fJ/Wqo3cYrAf/AIoj9lxjwyXxrb3LBmVoC0Td+PMH+BNL2q6cdSiki8URFblZMn/IBiu/TLltLXJ3YkkHJ+JofqgglhujeTSxxxXasGjGT9gVowY3jm4p8EMk9aslwaSIIHjW4VmchueccYrz6JlbcBPGf5VJVLW602EhcjkeInDd/MVxtrVYhN4Us7O6bQJAMDmlrbbt7j0VVHv0TN4seZFCAAMUbDUNn0u/hmLW5i8MkkMZOaLzQTmEiOWNif2XWlfU9Ivpgggnt0XzzOBV3Ttze8ivK1FBKbSdRls7gSmEyynI97y/ChbdN34zxF/r/wCFbR6TqUabRdxqPQXNYdO1IHm9T/8Ak1epOL2kirnkj3fTWoPbuiLEWOP2/wDhTHp8apfyRewpeXAsVRouT5Dnj0xS/cadqbQkJeoDkc+00x9PB16qukOHb6NIJIZuQBz7vNDm2rbur/wEY2x20IxwwQJdaVLpv1AEarDKoH+I847VIisLFNQk26kil1B/bGT9/bFGOkLeZrSGT2GHU4fCGZTZShh8AWNFpIppJSzdOW4wwKk2z5PrXHyupOjoQlWwoan4S2KAamssoV1MABJIx/Sp3SK6a+jQrcdPXM5BbMyRytk5Ppx6VLv4ZC80jdMRpwQv1UmTx6ijfSsepNpUPgy2dkMsRbN4pK8nORmrsMl22vxQT3e4J1eLRhZS+BoN7DNt4d4JgAfInJx+NGNNt7k6bbbupo4V8JSIxAp2ccAnPJqfqi6hHp1wbmazmiCHciGRWI/ChFotq9rAf1KMkZQEyGEuW4754rQpXGit7Eu9gu1spQvU0TjY3Hsy88fOqouC3inBGPnVnX0Wnm1f/mZLGdv2vZMbeO+c1WN0mZ32jA7Yz2ro/Z9q7KsjtBXpr6POqp9KNcCHw22+A7qScj93nFPUf6rEcjVCfjNP/Sk/oNtQXW1Oli1abwnBE8pQYyPgas/xup+5+ivuuW4//GqOrX9VjjwLsUminWNPOkw6j7UC+2OeXKnj1ftTT7RqXddPj++6jH8qHXba415ZnWH09bZN58eGSMsvHqwrqZtPOQ/Uk6nPldxD+ArG92SXBz12a++jt13pMU9uGXKrcoxHPf7NQVkg3Iq6VGp24z44H3dq6ajcWvsw9h6mcXBYYE11GVPPI4XJqTBcXGMya1bA47CQf0rHm59/5Lsd1/7/AIIc0eLdBHaojDhgl86hT9wpG6wkkMlxBJepNCsBIgFw7smSOTkCrKS5kaNlGrRO+STicjjy7Liqx63kE95dINscxtGTxfHLCTkf4RRhdzSZGS2bFvTraC2t2TTRGsZbcdp3jOK11C1a4jQTrDKobIDAgA/dS7LYS6Xo5jM4VhN4mYzgEFexqX0PLLJd3RlmkkzGOHYkDmtU8ThGWVSuijH80lAkHSYcZ9ltfuLVyk0kiSB7YQRMrrkKCd3I9ab8D0FCNWJ8WQDeRtiOEUk/3g7AVRh6qU5Uap9PpVtipq0D217LHICDuJGRjIPNQyTRDXCZtTndRIRu/bUgjj0NQPDk/cP4V01wrObP7zo1++sFemOTH2T+FYEf905+VOyNDXpp/wCTYf8Ac/zorbEeIB8P5UJ04EabFnsIsfnUua+gsFE1y2yPtnBPOPhXMyxcrUeTfiaTTYV1Q8Dn9oev86HOeD99R5uodOv5khtpXd2YAe43867P27etVQxyxqpqi3NNTdxFfXz/AGxP92tDM5opr6N7YoCk/VrQsxSfuN+FdbHWhHNmtzM16DWeC57q34V6I3H7JqaohTGbpk50z3toxI/YfGoMd+bnWp7AWvtMT4kQqeScDyqV00wGlt5/WyD86EdJXh0TWLaaK3jmcTBiztyfgD5VSorVNrk0J/dT4Gq6t5lUKlhcSDOeF296jG3uR30y6/GnS368lkiDy2MKbic/2gmukvWh2+7axEYz/emuRLNmi6eP+TesWJraQitDMBltNnA+LAVDFpCWUDR7ZV5JMhXv68Zp01Dq03dsY2swVb92WlmbqVRAH9kUIXZQu7tg45rVhnmavTX6lc8eNbORzWxiwCun2IB/9/u1h05fKxsfz/pUSTqCFzzasP8ALMRUSbVkf7Buoz8J8/xFXqOV8lElBcMJSaahXBsLE/MH/wBNTtLt4hqMkhjVZfZJFJUsPdA+z7vNKM2oRRuks810UB594Gm7QrlZLnfGxANq5UlmXuvH2ealOGSFNkINOWw6dNnSXtLJZ7iXTZGjBEXh3BDHyJyR3o/dGH2mcJ1CFZGwQY5Vwx7etD+kzdG3t3e0h1UCJSJY1nYp/hyTjijkoVjM8vTr47AhZCST6c8fOufmq2zVGwJqEQETSrr0MjSZdSGkHGDgYxwKndMfRraZELmO5u5CTunjlnKnnt2AqJdmKGAwnp9l2jkFpQORRnpabUPoqFbb2Gyj3Ntt3mkJHPfFXdO/kaT8Dmdro6alpL7Kl1BLtJWR5plCn4k8AVpaQ6jJDbM3VlqzeGDs2NIP/Nz86l6o2pewz+1zWjxFDuWOR1JGOwyDQPTzpEllbN+ql04KD3ykshJ+YwD91aY7ryQlsFb6DVEs5W/WG1YbCSPZTyMf5qqS6z47cj76sm9TR3tJP+at4g2kbvZpeDj51W9ygExGCuAOPT8a6XQLdlWR2gt0s+nx6kp1S7nt4tjbGhm8Mk5GfLkU8JcdLlWzq2oEkZI9sJH8KU+g5r+HWx9GwwysYm3LLIqcZHme9WSlz1GBn6PsMHOf7Sn9Kz9Zfdf/AAI1pANqdAk1WxOmS3txON+IpCkgPHqxGKafEnX7OlAqfPdCKFztrz6jYe32FqkI3fXxbJWXj18vnRF4mb/7lcIPIBIR/FaxS2ZOPBC1x2Onf23Ri8G5eUaEsOeDxzUeKSx349hnBI7tKgH8K21OCf2c+xatcGfIO2SO3Kt+QNdlTUgFzerGxUf7SJSTWPNvItg6R0ikgFrIUglBDc5uFH8FxVd/pAuZGaVvaEeFbVsRe0KWU5B5AGasJr2WHT5vH1e3B8i90q4+Zqquqr+0vri78C5MshgIkl9qSRXyQOCBUsSqSfoKT2dFeLe3Go6DJNcurSCXb9nHlUvoRv7Vc/7sfxr3UbKCw0uSG1QhN+45bPOK06G4vLgHyj/nW/K08M9PBnxX3I2O+eKXup3lW3vWt5Xhl9nTbIhIZTv7gijuaXupz/Zb3/cp/wD6Vzei/ur9Df1D+QTLBXRZvEdpHaQkuzElviakZzXKD7Pz5rpXeybyZxjN3zr0E5HNa1nmPnUKF6jbprf8mRf7r+dT0hhuMLcRpIoGcOAR2obpp/5Nh/3X86KWrHxRj09fhXLzOraN+FW1Zve2NnEQ0NrCjArgqo4qNI3H40R1PlO5PK+hoY3b8apxyco/M7LsySlSFvqAn2xDn/ZihefWievf9LT/AHY/nQuuxj+4jm5OTM8n0r0HNeVlWFYzdOFBpvuFiPEfOR50uWTH26Hb28Qfxpg6bb/k5/8AfSUAsgwuYSRx4g/jVMPvzL5cIcLPxXs0HvADJBVBg8/OtmnuEK7DkHvlcAfnQ5LlrK2hJAKO7A47jk1xuuoJUkCwxFlwCST/AErI8M5StI09yKVMJSPIVV1aUDz2ngfgaX9QYtaIR7/10nJz6/OpV3q850sSBVHiEpt3FcfKhglJ0i1btl279+9acOOUVbKck1Lgi5b92td5HfFblyfP8a1bHlj8K0IqImqOTYy49Kb+lbhhrMduZNsA01mA3leduOCvNJupFvYpA2O3kKc+lICNSgvA4CtpzR4LlSDt75APHwqc67e/4hj++WT06LYx2zSXr6XmIZQNcsX+IzwfuotcQD2qSK36kCMy5wxmU8fPtQ3piUyW9iJLAasDGPrVe5bZ8Ps4o9qMERn50QLHggspnB3eXAFcDJ97c3x98AyRZl3kdRRYxyPFdQvFEenU036OUXE91ezFjunjupSvft7poRqJWG3k8fQjtK8/WyDJx27Ud6QudQbSIxYpYWkG9sQSXLls+fZc81bhrQ/0G7sl3S2C2sptRcRzFfcZppcA+p3HFe6fHrRtLXf1JY79nEY3SffwcfhUy9uNQFlP7W1kYdhLrHcPkjzHKUu6fJoBsoCuhXzrtBLjxnP5AD8K0Q3RCfIauodaaFy2u2DDBz9S/p86qS/4un3ZZvMjzqxpn6f8F86FqS5B5MU9VvdlROwUMq+Qz2FdT7PW7K8l0FulWsvpMC/v5bFPDbEkThSxyvHOaekl6dUEt1HfE/8A7hP6UmdES3cesf2HT1vpPCbKOyDaMjn3qsZLnXNvPTltk/8AaQ1R1i/rMIvYFQ/Q76tYfR+q3l1MN58CULIp49eB+NMo89uls/rhYP5mhcx1KTUrEX+gQ28YDbbqOFXKnH+E4/Gi6rICf7Zs9V8BB/E1gnzRNPYFa9sXTf7ZosogLL76Rwkjnjs1cI5dOCxbba+CgdhGn9KIanFKbfFncwSSllzHLCm0jPPZq5RR6rsX3rJTyPdjj4/E1lyq2ieN0jksli1lMrRXKe8eHeNSTVcdbLdAXZkkb2IWreDEZoSU57e7zk1Z6NqCwSiVo3Ic4b6kYqr+tyj3WorG8/tXspEhkaHYSSMYxzUsFKaQ8m8SrNU1JW0SOWB2WP2na2Vx+zUroe/ia9uvEcLiMDc3Geah32i3cehR2jKDI1xvynvDbt7mjGjJb6TaiGGGZmPLv4fLGurm7TwuMd7MOJy1qT9Bm+kLVe9zAPm4oTq81vdpdBZ1MfhIGZPex74rQ6kAc+z3B+UYNaHVByPY7g57nwhWDFg0PUkbZZtSpgK9smsZzEXWRcAqyjGR8vKuGKZL98SqPBkY7QeFBqIztj/osv8AoFa45pNW0Y3BWB1ikZcqjEfAVsIJSRiNvwotvVRxby/+HXnibRkWsv8AoNDyy8C0LyENPUrp0QYEYi8/nRGBwj5Y4GP5VEtcvZphSuR2Iwa2kjYhFGDyCawTak2maIycXYRv7iJ0wrgksKgvnH41xSJ1Zf8ANmuzDkY781Wko7IlOet2xc1yN2u0wpP1Y7UNMMn7jfhTFqTFZxiGRxtHKrkVFLse1rL/AKK6ePI9KM0oJvdgcxSZ+w34VghkP7DfhRYsc82sv+mtS0h4FpKCe2V4qzuMj20iT04CNPfgj696CWx/tceCeHpk0qAw25UuzFpGYlhg8+Q+FB47RluEIWTAb92qoTTlMlJbInXUPiWluh5w7n8zURNPhklk8QyZXH2TiiF5G4tY9u8FXJzsz3qLG8ibyyuSx/6vApKT07MsVXuiJq9ukVjBEhO0S8ZOe9cNSk8OX2aJQsUXYY7k0RvImubaP3XX6zP2ah39sz3Lt4Uhz6Crsc9kpFU1b2Bpkf4fhXniN8PwqUbVv+pl/wBNeNaScYhkHzWrVJFelkC6cm3kBwePSnDpe4dNYggEgSH6PL4L7P2e2QKWrmxmaB9kTbiPNTTJ0rFJHrVpcORGosWjIMnhsDtPniicouJLGvmLC6aNs9lbGTV7jSU2jCJPO5k/xdgPwpkvw0oIh6kljKd2xKPu9KWNCu2ntbIG2OsMqDBi1GUiMehAXGaYrwxRRndoDhBk+5LISTjIAyOa4mdPUb4kHUWuUs5HTXlCyD3SzSA/MZHFTelZtO9gUXl1cXNyHOZUuXC48vsigN5faXMkxbTZf7vDBLokj7mXimnoe5ujoqHTXSC2EjfVT3aBs+fASrsVrG/z/AGybKbJ4JDZyzLPtO1nu2wD/wB6t7A9ReyW+7X9Nzt/u95f/wAvFS7ya+NtN7VLH4ZQg7LnJ7eWVpWsp+l/ZYN+n6m2FILNO/ByfJOKthun7+hGQx3EXUDRv/yvpxyD2WQVTt+pNy24ZbzIqxbibpbwmItNR2gf9dcD+dVvelGuGMZIQ/ZB9K6n2fyyvJsji+rXul3MEmnzmKRwwYhQePSi9h1ZrktzAr6g+1pFB4A7kUs6oSZbX933iT+FMnTL9NJZl9alvUvUk3IsIBXA5HlWvPihpcnG2URk7oM9QdUPo3VchvN89lG/hiEAEcqDnFSh+kfRGxjRUPzgQ/ypE68vodS1aa6tixglmBTcMHG3Hb7qFRDCj4VTHoYSgrtMl3ZJ0i1+ouoLSS30yJdHtALwLMjxxhHUZ+FB4up7O5t5ltLVRPGDgSg4yPI1x1HJPSYVgQLVfu96lCZ5dG6mv7SVAfEcsDjsDyDXKy9LGVeS/uOO46/rgYdFlM8MQnkkKlIkHugY5OaSNa6s1O4vBDtgMW0qpFqoYgkcZGOag6jqE5solMxCI75AIxkn/wCaWpdRulHhpM3hqSw5q/B0cY70Z8nUNui4x05aXNjEPph4PFaNfEWL3YyyFypbPcdqjQ9FCSSND1Ff72EWU8D3jvUtwPPtVVwa1f8AsRtHuJTbNJ4oTd+1jGfzoiOpNVS7t7tdQm9ojUIjB/srjA/nUV0s4PZ7D7sGuCz06YtrmziVNWuEDrEGmSAnZuJzk9geOx9a4w9CGRo1+ndSBYRkqbbk7mIYr6gYH41Wcmu6pClzZrd3KwyHc6+IeSO35nNTrfrHW4BDMl/cZh9xCWzgVGPTTivlY+5AsVeloJbGNBqs4ZlRGlEJyhMm3J9OOagXHRZgtmmTW7+VggdI/Cx4h8TbgH5c0nx9Z6xCLhBcttmPv5x72BWk/WmrH2cvezIbcDwwuBjj/iaUenyRY3kgxwtukFntPaH12/ikKeI0XhZEY8TbyfLjmp9v0naWkcks+tXMqMJNheHglHA93nnIOaRbfrTWtszC9lPtGFfIBOPTtXC61/UbqCK3mu5WSHlBkjGe/P3CieHI9gUoVaLOfpi1UzgX85aISkqIOV2kYyM8ZBzXk/TVoscrjUZNqGUBvB91iuCuDnkkE8VUkev6pHczXEd5cm4uMrI+4+9nvmuUuq6rPaJbTXcxgRt4XxDwe1QXQPyPurwXBP0zaBp1S/maSMSEJ4HvYChgcehyea1l6bsF8Vl1KQxqWVXMXuk+GGUbs4znIqt5utNVlsghlG9ovCeYgB2XsRn5cUKn1nU2sxYtdT+zIQ4j3nAI7H86F0MvUHliWdf9HWc923g65fxsV9yJIcEjwt4bHfBPFZpvR9l4/iJrl9cxkquXjyo3R7hn0O7iq0j6k1cTLKb6cSRx+EGLHhcYxXD6Wv0tDapdXCwu4kKhyMsO2fxq1dPkrTf8Ee5HwWtc9F2l1dQqusalA8gTZEkRBZWQnIB7+8MVH07pPTYzFcya/eyR7o1kDx+6hcMPePkQwx8qQ7XqzXLdo3S+nPgqVQsckD/4qc3W+tqs0fjoFmyXURj0xmo9nIlpslqiWBF03p/1BkvrgLL4RU+BjcGJU455w35c0C0zpKPUzdmfUtTtvZJFWQRLuAUsQWPpg4+6kq86k1yeRZ3v7hZIvdTBwAMeQqNHqmqRo8aXtwqz8yYkPvc55++nDp3Dhic0yyrHo3To7q1Z9evnEm0xqyAiT39jY9ce6R681Kj6e0t8j6QnLxqGlxD/AHWJCr7vlwRVUrqWqQxRL7ZceFA++Mbz7p75r0a9qk0rytfXG+fiQ7vtD40S6aU92xdxXVFi3HRmlrKrz69qMaSqZFwoCsBIVbb6jHIqVZ9Iafardr9KX880JPio0YYx7HAbgf4SCKq25vtQuVQT3U8iwgKm5z7o+FZBqepxO80d7cJJPw77zl/XPrUngm41qDXHwWtddLaWYju1O5RH8RVlCABirchTnk7Dn51ztOi7Cze5U6pqM0iB9yNGCVCEHOPihz8waqj26+aMQNcTsincgLnCt5kVq2paoZ2n9suRKylXfxDlh25oj08kq1A8i8Fp3HR2ke0C6Ot34hdpCpXHhkqQQv3qfx4oH1zA3TW2fp69d79J5LeVJIwGWMrlWA9COCfWkCS6vAohNzOIhyI95wPuqHcz3rsXmmmkf7O5nJP41di6dqScndEJ5FWyGzQ+tNf0xo4ItRvoCAN8QlZcn4gU2f8A1G1+KBvDvLppCAMGViRzyf5VVlt45mEwZ2nJ53HJNHoHlQEm4Cs3f3asyYcT5RUpyH2TrrWLqaGN7x1MigNs7Zz3ORU/pPW7+T6VaW6dnSzaWPAUbW9eBVb2sga/tCzgyb8H0pl0nUhpsl0WhMontmhwCBjI71HH08XCUUtzRHI73O36360oVvbt3+FokYH58U/6V1vqo6fvJt8W2y2hUjUIGyfQdqqCT7HHBFP3TMUF7puq2M19b2hn8Pa8xwMDntWrqenxxhaQoTbbsmT/AKUNYMZ3W8RGOfrGpXuZDJJvbG5wGPPrzXPqTT4tNunt7e+t71dm7xIfs/L8q1zuSMqf2B3+VXYcWOHzQXInJvYgasD4tsCeMN/KsiYAD1Pes1UE+zsPIsK8i4HNaVwVepz1LDLb8c7+33Gvbce6Mdq3vIy9uGTnYwb7q1Q4HFSoFyEdHbbewF2YhHXaCfIGpn6SY2HUdhOUIjlhCq54BIJ/rQhJCjhlbkU4tdWfVWh+w3bRw6hCMwSsONw8vvrl9XglqWSK2WxfH5ouJWiWzSx3AWLxNuQVQ5Pfk4oCmlz3Mj4ilwBweOB8af7TRNXsWmEum3Dbl2FkYMO/BFdl064WKRUtrqNzxlkwCTVfdlHhFPZsQJdOYJDGre8n2iPPmvItOmQPI5GwE8j1zVgLp/h3LhI2Z/DPdORkVxi0nFi0rr7zZUAdj91V9+TXBZ2BW9ktZLgC4uZgzZ7Lkk8flU59MtTEyxiZmyccYGMUWTRpFviEj95UL4bkE5rUWNw0UrSK4RT2AweRjiq5yk+CShXoCLuztLWaNjG7bgMruBHauTwr4iLHGnv4wzDOPhzTAukm5uYBLEYEYAnC+gPOK6RWd0lyyRQb4eBuK5xzj7jS1NbEtAAurJkkjWNdhY8EcZODzWngEuyOGB2ruJPANMWo2N6t3EngMQSMH0FRJNLupzM/hMu0ANk4J5PYUJyIuIAOnMIodi57Y/xVzEDtOyJGSFwp/E0yx6NO8dkrK6AqMEc//FbNo10LllRHJjUktjaDg9/nUlN+qDt2K8tlgAshVmfHB8s1JubfMikcjYVz8jRu50m69kRvAkJDlST5HPP/AM12k0a6NwcRPjZk4wM9uKNT8B2xTW2d7EqqklWIIHlzXWWweO6jWRDuZSFPr8ab7XRiLMlw65kKkPwAfXFSrzSjJeq0MeHAZBkYG3A5Hz5pSyyXoNYfIqnTyYmD/Zw+09s1zbTpIvCadQkbuVLN64/pTbcWRfSRi1xc72yADwMccVqbCaaeFbiGQ/Blypwpx99QjKZJ4xTeKB4iVf3SxXePLit3i2ey4jDQlQMnjnHFF00e5MNyzwSlS3uqoA5+XlRJ9LZZ7GaG1n8LAX4E7fIn76k79COgU106S6gO4eEofaSxzk8fgK6w6AsRV4LhriJcZymNxIPY+nFMS6a4F/KttKG2hFQjuMjk/H41JsYJrUQEWjOkgCkvwBwR3HoTSc58Iaxq9xMe3aSa4CpuXhVXPn8a5pbuUgjjRpGRiDkHHenIWMqLMsNgFmRgRx5Z8/X51wNrebt8ttKv1xyYxtAO4Zz6U9UvAPGKJTEjMv2k7qew5rgVcwnxto4wuz503DSLkXF5HJZOoK5BI5A75rSXRp104FLaQsQ28sOF5qep1wQ7YrvZYzuDEEZyeOM1xNqGYLHuBLnB78Z86dfoeY3Lq9nLtKNnHc4APGe9R49GvWQBbOUuGYHj7Pnj4cetSjOXog7YKt4I42cTII1KERlPdwfXnmoly6YjK73xjcCMYpgudE1AxjwLOSR/Ill/rXGPp7WpziS3jgB4Z5JF7VZGEm7aIOLSogaNaS3+tQqiYWP6x+OwFFLtFScqvZeM0ShjtdBsnt7SYXF7MPrZh2A9BQo8n3q39PjcbkwaqNEedeOO+eM1PuBufLAGo3hGWVEGcsccVImx4pwc44zWhqxLYjy4CNjA4zRKMfUxY4G0edDZTlDle/FE2AUIpPIUD8qTQ47HO4VZ7WUYyVww+7vUFMbeFzU62kCOp7rjHzFcruDwZjtGY295G9RTXAjWBlzh+EYYPyrnLEYHK9x3BHmK8yewFTYJ4pIxDcqfD8iO6n4UwIIJOOTitkcgggkH4VLm06TG63InjPYp3/DvUNoypAZSCPWgAxourR21/E+pi5uLIZ3xxSFWPpimQ9TdKEgHRtS9CGuTSHsbPHetgjN+yx+QrNlwKbu6JqbstC8uYprLS5rFBBbTSwFI35ZBuAOT510iEv01qS71Bjt1OSgwSGI/OoaoG6e6eG094txx2+sFEEUfT2sEr9WbXbxnH2zXBkpK/wBfqa0wWxkGg2kgcAPLtPu8jE45ooiTDqa5iMoZktmYEqMcFTQ5Y2HTFjH3cTkkYOceMtFwpPVt7gEr7I4HB7+7UXq3/UPABaST9UTJ4oA8d0wV5+2TnPpRwC4HWMUPjDi3Zgdgx9oEUEeNv1KKFGZhdOQCO/J/lTBtb9d4GJygtmGQPPC8GpPVuPYEarLO2h6vKsva8mVh51LmEx6rsovFZd9uzDjsMZqNq0Un6u6wvhtua9kwMcng4xU5kc9V6c53Mq23vHGQDs7E0nq+v0EwSjy/QGsSNLnE7LjHqi/0qZcGf6d0CPxvdliZgSO2Ux9+KjRxuentXXwyS1wCgA5PuDt61Omjb6f6ZbHCQ4bj7PuefpzRUvf5DIRklfTeqsynKSkknz93HH8a6M8om6W+vP1g3Y74ymKxbaU6V1SpiYCWQlCVPveXHrzW3hss3ShWNsxoN+VPA2+fp3p3L3+QjWMzLP1P9cwKFWOfP3SK0WWZbPpImYlWkj8u3GOfWuwQi66rzG21sbTzyfhWjxyexdJjY+6KRS6lfeHbv6Ulq+gWjpB466t1EntBDxwRkk+eARUDfOvT3TLeO+DcIAPTDGitvGV1fqQqjbJIQFJH2jz51ANvIOnenI/CbxEulLjacqA3mPKmtVfsDJ1kZl6s1aMzuSkCMG9QDnGKErdzfqBoieK5UXqkDP8AjPejcELHq7WXKMEe2A3Y4Jx60GS2m/UfS4/CfxFu0JXacgbzzjypJS+g9gsTMOt79BMwLWW4N5fbzjj8KCSSTfqPAxmO0XrKQP8AeZo+IWPW91IFcRtZFQ+PdzkcZ7UB9llPQaRGGQyC8JChDnBf0oipbfoJh3MrdcmNbhstYNtPOBls0HvpZ36Q1mUTt/02YMM47yj+lGBC36+QyBG8L2HbvxkA7uBQOSCZuiNWj8GUyyXrMqbDlh4gwQKEpbe/UGwtO88nW9kouGJlspSDjtnANDopp/1W6lPtBwlxOGH72QB/Kissbt1vps0ayeEtk6lyvC/Oh0dtMvSvU8ZhcNJPM0a4OWBwAR60969+Q9SfcNKdf0FGnP1sEpGR2zGorXRr2aJuop5Cs6xXbmSJzxJ9UBivbiOVuoumn2OFjgfexXhPdA5Pl6Vx0uORYeqGaJlEtxIUyv2htxx680lGT8+2G1AH9dNLPfpSxPnkue340u67qsWp3ni2lkmnxBAoijYkZ9ai+w3iqC1vMCPLYa89juCciCbv22GvQY8EYboyOTZGGefOvB2B8v4VNi0y7c48FkHmXG0fnXeOK2sW3yutxMOyLyq/P1rSQ5NYovZbYzS/30gwg/dX1qE3vcdv6U5/o/n0u41a6fWEgnl2AwpNygOeTjz8qj/pA0qK01NLuytxFZXCgho/7vd5gelZfiY93tPknoenUK9nCZrlEUZGdzZPYCpEzlpWIHGfWpKxCxsjvOLicZxjlV8hUHB9a0EKPE4UCpkEkckRtpyfDY+6w7ofUVCHY16G2rQgNru1kt2xIMg9iOzD4VHP5UStbzEfgzqJYT+y3l8R8a3axt5zutJwp/cl8vvpjoGxTPE2UZh8qlLq12o4lzkefNbTaXdqeYXcfvR+8Pyrh7FOePAlH/cNAtwlpGo3FzqlpDO2YpJVVgOOCfUU36nr/TWnajPavpOos8LlWZbjj7uaQYbe8hlSWGOVJY2DIwQ5B9e1dLiC/urh57mOeSZzlmaM+8fwrPlxOclu6JKVIs+DWYLvpHU7vSbee2gjiZAsz723cHIPkKlXM96L3Q4TNhp0ly2zg5UEZ/GgPTdvJ/8ATzVI3V1kO/ahB3HIHYU1TRL9K9PErlUV92P2TsHeuJlhKMml+Jqi9kQUvbtv1mkEqkRFwFx2JjXt6Vze6vBF06PaMrcuDjbn/Y45+8ZqYtqqJ1Twx8RiU4xu+qHb1rnJbk2/SuAwMbpvAHYeGRz6VFxlfHuiR7DcXTa1rANxnwY4zjjB+rIqBb3l6mi9PP44PizxE47ngjk+dFYYQNX15iDtaJNuR9o7T2qBFaSL0504m0iSOeIuuOV796FGfj3QBGO8upertR+sIEcEThSOP2waDRXt4OkrGQXB+suol7c8SY/nR2GPb1ZqLkfVPaRgPngnLZ+/kUJSA/qhp6FH8RLqMldvvYEvfHyo0ztbe6AnxT3f62JE1wSYbRW7YDYb0oL7Ve/qjczrcsAbnbjHIxMfP76YjD/zwaXDeD7Ht3+RO/tQZ7Zz0bcxLE3iG5ZgnmR4uc4+VKMJ7beBE2WS8HVFjbi6PNq7Z8j76t/Oh0l5dHpzX5/aWwJZkAxz9oGjc8SnquwlyDGtrIrNjhTlcD8jQua3Y9L6/CsZEsk8xjUd2BIxihQntt4HZJvGvJNd0eAXGNySvn04BqHJc3TWfVEwnlBR5VCjyyin+VFblN+u6NKD9WkUgdh2UlR3qC1u3sPU6DIeaRygJ+2DGO1NQl492Fms0l48vTtv7U22bcc9sZj7Vul7dm56lmNySYzjHziFdpIMz9MOuB4PEhx9n6vHP31rBARN1JuwFlIMY4w/1eP48UtEvHuw9CCbi7Ol9NqbiTE8kZz5jMW3n8KlwXF2Nc1gm6f6mGP7xsYHHNaJFjTOmV8Mh4ZIzJx9jCkHNS4Yk+mtZdmCxSwxhWOMEgN2p9ufjz9QAyXN3+r3T+65cLPNFnJ5U4Ionb3F3+tF+ntLkW9tDx+9gMKhezsOm9AiYEyQTxF1PcAE5NFYVC9VahMcCKS2RVfIwSC2f40njn4DYAx3d4OlNLl9pb37qJSCe2JD+PejMc9z+tUsXjuDHZKUbvyHzQ72d16RsYTjxo7pGK8ZUCXOfwosoReqZJwymJrMRl8jG7fnFScJ77eQF83l0vRrN7S+72vYQT6TcH86LvLdnq6KA3MgUWbEFf8AODUBrUnpB7f3fGN0z7MgHHi5/hRaRY/1ohmEiG3Fo6F9w4bcMDOfnSeOd7L3sAvyXV1+qeqyG5ZW9pkVgfP6zP41K6v6gj0Y2SXumpqYZWMbySFCgzyMD4mtJLUjpTU7YczPcStGu4ZYFsgihn6R7SS/fT2tMTFEO4KRxwKuw4pSyJSWxGb2dHul9RafrPtlunT9vbOlu8gk8VjjApBN/clQRLJ+J4qZFpepwkmCOaNmXaSrAZHp3rn9CX449mbj4j+tdjFh7cm/QzOTaIb3c0h9+RyMftE4riBuJPc0UGiXnObdlJ82YAfxrddIEbZu7qKMDyU72rQRpgsR7zjHvZwMCm7TtQudL6els78rJDIQ0NvJ7xT4/ChS3drY5NlEXmHHiy8kfIdhQy4meaVnkcsx8yc5quWOMqsaelG13dPcTNJL7zMck1zB47fnWvwHNYPiKmRe57GSY/LmvcZAHbFZWUkI9DZ4/lXqsQOOKyspjO0dzNERsdwB5g13+k7oZ/tEhHzrKygdnn0nd9/Hk/GvfpW8JH9ok+81lZRQWZ9K3uf+kSf6jW/0te5P9pl/1GsrKhS8D1Mz6Xvcc3En+o14NXvjx7TJ89xrKyil4DUz36WvCBm4l5/xHitfpW88riTn/Eaysp0vAamenVLzH9/J2/eNefSd1kf2iUfNiaysopeA1M8+lLr7PjPwe+6vRqd2G5nkB/zVlZRS8BqZ59J3Z/28hHnzWDUroHmd/wAayso28BqZ4dRuSGxNIOP3q9+kbo4zNJ/qrKykq8BqZ59IXP8A10n+qvDf3J7zOfXnvWVlG3gNTPPb7k4HiSev2q1N/cjA8Z+PjWVlLYNTPTfXB5Mz/jXnttwMZlcn51lZT28BqZnt04/2jZ9c14LyYDmR+/bNZWUw1Mw3k5P962fM5rz2ucd5GPnyayso28CcmaG7mx/eN+NYbmU9pCPv71lZT2YtTMNzL5yN+NeNPLxiRvxrKygLZ4Z5D/tCfvrn4jHktmsrKYWzTOeT3PNYDnJx3rKymB6vGeOawH4A1lZQB//Z;" vertex="1" parent="1">
          <mxGeometry x="580.12" y="620.42" width="79.76" height="59.58" as="geometry" />
        </mxCell>
        <mxCell id="SVQWeV-mscCjuDsBFyhi-92" value="" style="html=1;labelBackgroundColor=#ffffff;startArrow=classic;startFill=1;startSize=6;endArrow=classic;endFill=1;endSize=6;jettySize=auto;orthogonalLoop=1;strokeWidth=1;fontSize=14;rounded=0;exitX=0.5;exitY=0;exitDx=0;exitDy=0;" edge="1" parent="1" source="SVQWeV-mscCjuDsBFyhi-81" target="SVQWeV-mscCjuDsBFyhi-91">
          <mxGeometry width="60" height="60" relative="1" as="geometry">
            <mxPoint x="620" y="750" as="sourcePoint" />
            <mxPoint x="619.5699999999999" y="680" as="targetPoint" />
          </mxGeometry>
        </mxCell>
        <mxCell id="SVQWeV-mscCjuDsBFyhi-93" value="" style="html=1;labelBackgroundColor=#ffffff;startArrow=classic;startFill=1;startSize=6;endArrow=classic;endFill=1;endSize=6;jettySize=auto;orthogonalLoop=1;strokeWidth=1;fontSize=14;rounded=0;exitX=1;exitY=0.5;exitDx=0;exitDy=0;" edge="1" parent="1">
          <mxGeometry width="60" height="60" relative="1" as="geometry">
            <mxPoint x="500" y="649.78" as="sourcePoint" />
            <mxPoint x="580" y="649.78" as="targetPoint" />
            <Array as="points">
              <mxPoint x="550" y="649.78" />
            </Array>
          </mxGeometry>
        </mxCell>
        <mxCell id="SVQWeV-mscCjuDsBFyhi-96" value="" style="shape=image;verticalLabelPosition=bottom;labelBackgroundColor=default;verticalAlign=top;aspect=fixed;imageAspect=0;image=https://www.distrelec.de/Web/WebShopImages/landscape_large/6-/01/Kingston_KCP3L16NS8_4_30061436-01.jpg;" vertex="1" parent="1">
          <mxGeometry x="301.46000000000004" y="600" width="196.84" height="110" as="geometry" />
        </mxCell>
        <mxCell id="SVQWeV-mscCjuDsBFyhi-99" value="" style="html=1;labelBackgroundColor=#ffffff;startArrow=classic;startFill=1;startSize=6;endArrow=classic;endFill=1;endSize=6;jettySize=auto;orthogonalLoop=1;strokeWidth=1;fontSize=14;rounded=0;entryX=0.5;entryY=1;entryDx=0;entryDy=0;exitX=0.5;exitY=0;exitDx=0;exitDy=0;" edge="1" parent="1" source="SVQWeV-mscCjuDsBFyhi-103">
          <mxGeometry width="60" height="60" relative="1" as="geometry">
            <mxPoint x="340" y="840" as="sourcePoint" />
            <mxPoint x="179.28" y="800" as="targetPoint" />
            <Array as="points">
              <mxPoint x="340" y="840" />
              <mxPoint x="180" y="840" />
            </Array>
          </mxGeometry>
        </mxCell>
        <mxCell id="SVQWeV-mscCjuDsBFyhi-100" value="" style="html=1;labelBackgroundColor=#ffffff;startArrow=classic;startFill=1;startSize=6;endArrow=classic;endFill=1;endSize=6;jettySize=auto;orthogonalLoop=1;strokeWidth=1;fontSize=14;rounded=0;entryX=0.5;entryY=1;entryDx=0;entryDy=0;" edge="1" parent="1">
          <mxGeometry width="60" height="60" relative="1" as="geometry">
            <mxPoint x="460" y="880" as="sourcePoint" />
            <mxPoint x="619.52" y="800" as="targetPoint" />
            <Array as="points">
              <mxPoint x="460" y="840" />
              <mxPoint x="620" y="840" />
            </Array>
          </mxGeometry>
        </mxCell>
        <mxCell id="SVQWeV-mscCjuDsBFyhi-101" value="" style="html=1;labelBackgroundColor=#ffffff;startArrow=classic;startFill=1;startSize=6;endArrow=classic;endFill=1;endSize=6;jettySize=auto;orthogonalLoop=1;strokeWidth=1;fontSize=14;rounded=0;exitX=1;exitY=0.5;exitDx=0;exitDy=0;" edge="1" parent="1" source="SVQWeV-mscCjuDsBFyhi-84">
          <mxGeometry width="60" height="60" relative="1" as="geometry">
            <mxPoint x="353.55" y="810" as="sourcePoint" />
            <mxPoint x="360" y="720" as="targetPoint" />
            <Array as="points">
              <mxPoint x="360" y="780" />
            </Array>
          </mxGeometry>
        </mxCell>
        <mxCell id="SVQWeV-mscCjuDsBFyhi-102" value="" style="html=1;labelBackgroundColor=#ffffff;startArrow=classic;startFill=1;startSize=6;endArrow=classic;endFill=1;endSize=6;jettySize=auto;orthogonalLoop=1;strokeWidth=1;fontSize=14;rounded=0;entryX=0.5;entryY=1;entryDx=0;entryDy=0;exitX=0;exitY=0.5;exitDx=0;exitDy=0;" edge="1" parent="1" source="SVQWeV-mscCjuDsBFyhi-81">
          <mxGeometry width="60" height="60" relative="1" as="geometry">
            <mxPoint x="440.24" y="820" as="sourcePoint" />
            <mxPoint x="440" y="720" as="targetPoint" />
            <Array as="points">
              <mxPoint x="440" y="780" />
            </Array>
          </mxGeometry>
        </mxCell>
        <mxCell id="SVQWeV-mscCjuDsBFyhi-103" value="" style="image;aspect=fixed;perimeter=ellipsePerimeter;html=1;align=center;shadow=0;dashed=0;fontColor=#4277BB;labelBackgroundColor=default;fontSize=12;spacingTop=3;image=img/lib/ibm/users/browser.svg;" vertex="1" parent="1">
          <mxGeometry x="319.76" y="880" width="40" height="40" as="geometry" />
        </mxCell>
        <mxCell id="SVQWeV-mscCjuDsBFyhi-105" value="" style="image;aspect=fixed;perimeter=ellipsePerimeter;html=1;align=center;shadow=0;dashed=0;fontColor=#4277BB;labelBackgroundColor=default;fontSize=12;spacingTop=3;image=img/lib/ibm/users/browser.svg;" vertex="1" parent="1">
          <mxGeometry x="440" y="880" width="40" height="40" as="geometry" />
        </mxCell>
        <mxCell id="SVQWeV-mscCjuDsBFyhi-108" value="Multiprocessor Operation System" style="rounded=0;whiteSpace=wrap;html=1;fillColor=#eeeeee;strokeColor=#36393d;" vertex="1" parent="1">
          <mxGeometry x="199.76" y="960" width="400" height="40" as="geometry" />
        </mxCell>
      </root>
    </mxGraphModel>
  </diagram>
</mxfile>
